<?xml version="1.0" encoding="utf-8"?>
<!-- Generator: Adobe Illustrator 19.0.0, SVG Export Plug-In . SVG Version: 6.00 Build 0)  -->
<svg version="1.1" id="Layer_1" xmlns="http://www.w3.org/2000/svg" xmlns:xlink="http://www.w3.org/1999/xlink" x="0px" y="0px"
	 viewBox="0 0 49.847744 25.7362976" style="enable-background:new 0 0 49.847744 25.7362976;" xml:space="preserve">
<style type="text/css">
	.st0{fill:#99825A;}
</style>
<g>
	<path class="st0" d="M8.9190311,0.849621l4.4399414,10.5922852c0.5742188,1.3808594,1.2441406,2.7514648,2.0097656,4.1118164
		l1.7021484,0.3588867v0.1025391H9.8316288v-0.1025391l2.7890625-0.3588867
		c-0.1025391-0.6767578-0.2924805-1.4130859-0.5688477-2.2094727c-0.2773438-0.7963867-0.5830078-1.4887695-0.9179688-2.0766602
		H4.7046757c-0.2734375,0.6904297-0.4941406,1.2578125-0.6616211,1.7021484s-0.328125,0.9057617-0.4814453,1.3842773
		c-0.1542969,0.4785156-0.2548828,0.878418-0.3027344,1.199707l2.6865234,0.3588867v0.1025391H0.2134649v-0.1025391
		l1.8867186-0.3588867c0.4580078-0.7929688,0.878418-1.6679688,1.2612305-2.625L8.1089725,0.849621H8.9190311z M7.8321171,3.7309687
		C7.6475468,4.0932732,7.4029179,4.6230583,7.0987186,5.3203239S6.5196171,6.6704216,6.2735233,7.27882
		s-0.5024414,1.2558594-0.769043,1.9433594c-0.2666016,0.6865234-0.4443359,1.1396484-0.5332031,1.3583984
		c0.4033203,0.0546875,0.8730469,0.0922852,1.409668,0.112793s1.0478516,0.0307617,1.5332031,0.0307617
		c1.1962891,0,2.1772461-0.0478516,2.9428711-0.1435547c-0.2597656-0.7724609-0.7006836-1.8710938-1.3227539-3.296875
		C8.9121952,5.8588982,8.3448124,4.6743279,7.8321171,3.7309687z M7.9961796,2.8696406l5.3217773,12.7456055h0.6870117
		L8.3345585,2.0083125L7.9961796,2.8696406z"/>
	<path class="st0" d="M32.6368065,13.2465935l-1.51758,2.8095703c-0.65625-0.0546875-1.1318359-0.0820313-1.4257813-0.0820313
		c-0.3623047,0-0.8505859,0.0273438-1.4663086,0.0820313c-0.6152344,0.0546875-1.09375,0.0820313-1.4355469,0.0820313
		c-1.3808594,0-2.6030273-0.2133789-3.6660156-0.640625s-1.9394531-1.0048828-2.6298828-1.7333984
		c-0.6904297-0.7275391-1.203125-1.5307617-1.5380859-2.4091797s-0.5024414-1.769043-0.5024414-2.6713867
		c0-1.1552734,0.1962891-2.2202148,0.5893555-3.1938477c0.3930664-0.9746094,0.9487305-1.8115232,1.6665039-2.5126951
		c0.7177734-0.7001953,1.5551758-1.2368164,2.512207-1.609375s1.9858398-0.5590821,3.0864258-0.5590821
		c0.2871094,0,0.4682617,0.0019531,0.543457,0.0053711s0.2392578,0.0097656,0.4921875,0.0205078
		c0.2529297,0.0097656,0.5092773,0.0219727,0.769043,0.0356445c0.9228516,0.0615234,1.6308594,0.0922852,2.1230469,0.0922852
		c1.09375,0,1.8076191-0.0307617,2.14258-0.0922852l0.1230469,3.4453123h-0.1230469l-0.6865253-2.2866209
		c-0.2050781-0.0478516-0.5673828-0.1162109-1.0869141-0.2050781s-1.0273438-0.1606445-1.5224609-0.215332
		C28.5879765,1.5537226,28.06991,1.5263789,27.529871,1.5263789c-1.4082031,0-2.6132813,0.2817383-3.6142578,0.8461914
		c-1.0019531,0.5634766-1.7553711,1.3632813-2.2612305,2.3994138c-0.5058594,1.0351563-0.7587891,2.2265625-0.7587891,3.5732422
		c0,1.0458984,0.1811523,2.0083008,0.543457,2.8867188s0.8681641,1.6269531,1.5175781,2.2451172
		c0.6494141,0.6191406,1.3896484,1.0888672,2.2197266,1.4101563c0.8310547,0.3212891,1.7075195,0.4819336,2.6303711,0.4819336
		c0.9160156,0,1.7744141-0.1552734,2.5742188-0.4663086s1.5136719-0.8769531,2.14258-1.6972656L32.6368065,13.2465935z
		 M27.9912968,1.0444453h-1.199707c-1.1894531,0-2.28125,0.1967773-3.2763672,0.5898438
		c-0.9941406,0.3930664-1.8349609,0.9399414-2.5224609,1.640625c-0.6865234,0.7006836-1.2080078,1.5087888-1.5634766,2.4248044
		s-0.5332031,1.8969727-0.5332031,2.9428711c0,0.9570313,0.1826172,1.871582,0.5488281,2.7426758
		c0.3652344,0.8720703,0.9052734,1.6479492,1.6201172,2.328125c0.7138672,0.6801758,1.5668945,1.2099609,2.5581055,1.5888672
		c0.9912109,0.3798828,2.0986328,0.5693359,3.3222656,0.5693359c0.546875,0,0.8955078-0.0068359,1.0458984-0.0205078v-0.1333008
		c-1.3603516,0.0273438-2.5722656-0.1518555-3.6352539-0.5385742c-1.0629883-0.3857422-1.9394531-0.9257813-2.6298828-1.6201172
		c-0.6904297-0.6933594-1.2050781-1.4780273-1.5429688-2.3530273c-0.3388672-0.875-0.5078125-1.7636719-0.5078125-2.6660156
		c0-0.8886719,0.1469727-1.7636719,0.440918-2.625s0.746582-1.6508789,1.3588867-2.3686521
		c0.6113281-0.7177734,1.402832-1.2900391,2.3735352-1.7177734C24.8194218,1.4018672,25.9610233,1.188,27.2735233,1.188h0.7177734
		V1.0444453z"/>
	<path class="st0" d="M33.425869,1.1059687V1.0034297h10.9208984l0.2558594,3.1889646h-0.1640625l-0.7382813-2.5019529
		c-0.5810547-0.0410156-1.2333984-0.0615234-1.9580078-0.0615234c-1.3193359,0-2.3828125,0.0922852-3.1894531,0.2768555
		c-0.1367188,1.1074219-0.2050781,2.3720701-0.2050781,3.7939451c0,0.8886719,0.0273438,1.6098633,0.0820313,2.1635742
		c1.0800781,0.0615234,1.7675781,0.0922852,2.0615234,0.0922852c0.7724609,0,1.5683594-0.0444336,2.3886719-0.1333008
		l0.4619141-1.7431641h0.1738281v4.3681641h-0.1738281l-0.4824219-1.8457031
		c-0.5947266-0.0683594-1.2509766-0.1025391-1.96875-0.1025391c-0.9023438,0-1.7226563,0.0410156-2.4609375,0.1230469
		c-0.0888672,0.7929688-0.1162109,1.5688477-0.0820313,2.3276367c0.0136719,0.9707031,0.03125,1.7724609,0.0517578,2.4042969
		c0.0205078,0.6328125,0.0576172,1.1777344,0.1123047,1.6357422c0.8339844,0.2529297,1.9277344,0.3793945,3.28125,0.3793945
		c0.7792969,0,1.4355469-0.0307617,1.96875-0.0922852l0.8203125-2.4711914h0.1435547l-0.2255859,3.2094727H33.457119v-0.1025391
		l2.4501953-0.3588867c0.0546875-0.2802734,0.1044922-0.7075195,0.1484375-1.2817383
		c0.0449219-0.5742188,0.0839844-1.2182617,0.1181641-1.9326172s0.0585938-1.3125,0.0722656-1.7949219
		c0.0136719-0.4814453,0.0205078-0.9038086,0.0205078-1.2661133V6.6943474c0-0.328125-0.0107422-0.7944336-0.03125-1.3999023
		c-0.0205078-0.6044922-0.0507813-1.2319336-0.0917969-1.8813474s-0.0996094-1.2988281-0.1748047-1.9482422L33.425869,1.1059687z
		 M36.5430565,1.403332v14.2119141h0.7080078V1.403332H36.5430565z"/>
	<path class="st0" d="M47.9043846,13.5952263c0.3554688,0,0.6542969,0.125,0.8974609,0.3740234
		c0.2421875,0.25,0.3642578,0.5522461,0.3642578,0.9077148c0,0.3417969-0.125,0.6342773-0.375,0.8764648
		c-0.2490234,0.2431641-0.5517578,0.3642578-0.9072266,0.3642578s-0.6542969-0.1210938-0.8974609-0.3642578
		c-0.2421875-0.2421875-0.3632813-0.534668-0.3632813-0.8764648c0-0.3554688,0.1240234-0.6577148,0.3740234-0.9077148
		C47.2461815,13.7202263,47.5489159,13.5952263,47.9043846,13.5952263z M47.8838768,15.7793083v-1.8662109
		c-0.2871094,0.0273438-0.5087891,0.1318359-0.6660156,0.3129883s-0.2363281,0.3911133-0.2363281,0.6303711
		c0,0.2324219,0.0800781,0.4394531,0.2412109,0.6206055C47.3829002,15.6582146,47.6036034,15.7588005,47.8838768,15.7793083z"/>
</g>
<g>
	<path class="st0" d="M1.5982305,22.9555779l-0.3027344,1.046875H1.543543c0.1772461,0,0.3051758-0.0273438,0.3847656-0.0810547
		c0.0795897-0.0537109,0.1479491-0.1542969,0.205078-0.2998047h0.0722656L1.934168,24.582531H1.856043
		c0.0234375-0.0810547,0.0351563-0.1494141,0.0351563-0.2070313c0-0.0556641-0.0112305-0.1005859-0.0341797-0.1347656
		s-0.0541992-0.0585938-0.09375-0.0751953s-0.1235352-0.0244141-0.2509766-0.0244141H1.2603399l-0.2558594,0.8769531
		c-0.0249023,0.0849609-0.0371094,0.1494141-0.0371094,0.1933594c0,0.0341797,0.0161133,0.0634766,0.0488281,0.0898438
		c0.0219727,0.0185547,0.0776367,0.0273438,0.1660156,0.0273438h0.234375c0.2539063,0,0.4575195-0.0449219,0.6103514-0.1347656
		s0.2900391-0.2460938,0.4111328-0.46875h0.0722656l-0.25,0.7363281h-2.046875l0.0253906-0.0722656
		c0.1015625-0.0029297,0.1699219-0.0117188,0.2050781-0.0273438c0.0522461-0.0234375,0.0898438-0.0537109,0.1132813-0.0898438
		c0.0351563-0.0537109,0.0766602-0.1650391,0.125-0.3359375l0.4648438-1.5976563
		c0.0366211-0.1289063,0.0546875-0.2275391,0.0546875-0.2949219c0-0.0498047-0.0170898-0.0878906-0.0517578-0.1162109
		s-0.1020508-0.0419922-0.2021484-0.0419922H0.9068242l0.0234375-0.0722656h1.9023436l-0.1640625,0.6386719H2.5962772
		c0.0092773-0.0595703,0.0136719-0.1103516,0.0136719-0.1503906c0-0.0693359-0.0170898-0.1269531-0.0507813-0.1738281
		c-0.0444336-0.0595703-0.1088867-0.1054688-0.1933594-0.1367188c-0.0625-0.0234375-0.206543-0.0351563-0.4316405-0.0351563
		H1.5982305z"/>
	<path class="st0" d="M3.8340702,25.5219841l0.21875-2.2050781c0.0102539-0.1123047,0.015625-0.1875,0.015625-0.2265625
		c0-0.0585938-0.0219727-0.1074219-0.0654297-0.1464844s-0.1123047-0.0585938-0.2060547-0.0585938H3.7266483l0.0195313-0.0722656
		h1.0449219l-0.0214844,0.0722656c-0.1132813,0.0009766-0.190918,0.0126953-0.2333984,0.0351563
		s-0.0756836,0.0595703-0.1005859,0.1132813c-0.0131836,0.0283203-0.0268555,0.1103516-0.0410156,0.2441406l-0.15625,1.5800781
		l1.0332031-1.4101563c0.1118164-0.1523438,0.1821289-0.2587891,0.2109375-0.3183594
		c0.0195313-0.0400391,0.0292969-0.0751953,0.0292969-0.1054688c0-0.0351563-0.0151367-0.0654297-0.0449219-0.0917969
		s-0.0859375-0.0419922-0.1679688-0.046875l0.0234375-0.0722656h0.796875l-0.0195313,0.0722656
		c-0.0639648,0.0048828-0.1147461,0.0175781-0.1523438,0.0371094c-0.0717773,0.0341797-0.1430664,0.0849609-0.2138672,0.1542969
		s-0.1831055,0.2080078-0.3369141,0.4179688l-1.4921875,2.0273438H3.8340702z"/>
	<path class="st0" d="M7.44491,22.9555779l-0.3027344,1.046875h0.2480469c0.1772461,0,0.3051758-0.0273438,0.3847656-0.0810547
		s0.1479492-0.1542969,0.2050781-0.2998047h0.0722656L7.7808475,24.582531h-0.078125
		c0.0234375-0.0810547,0.0351563-0.1494141,0.0351563-0.2070313c0-0.0556641-0.0112305-0.1005859-0.0341797-0.1347656
		s-0.0541992-0.0585938-0.09375-0.0751953s-0.1235352-0.0244141-0.2509766-0.0244141H7.1070194L6.85116,25.0180779
		c-0.0249023,0.0849609-0.0371094,0.1494141-0.0371094,0.1933594c0,0.0341797,0.0161133,0.0634766,0.0488281,0.0898438
		c0.0219727,0.0185547,0.0776367,0.0273438,0.1660156,0.0273438h0.234375c0.2539063,0,0.4575195-0.0449219,0.6103516-0.1347656
		s0.2900391-0.2460938,0.4111328-0.46875h0.0722656l-0.25,0.7363281h-2.046875l0.0253906-0.0722656
		c0.1015625-0.0029297,0.1699219-0.0117188,0.2050781-0.0273438c0.0522461-0.0234375,0.0898438-0.0537109,0.1132813-0.0898438
		c0.0351563-0.0537109,0.0766602-0.1650391,0.125-0.3359375l0.4648438-1.5976563
		c0.0366211-0.1289063,0.0546875-0.2275391,0.0546875-0.2949219c0-0.0498047-0.0170898-0.0878906-0.0517578-0.1162109
		s-0.1020508-0.0419922-0.2021484-0.0419922H6.7535038l0.0234375-0.0722656H8.679285l-0.1640625,0.6386719H8.4429569
		c0.0092773-0.0595703,0.0136719-0.1103516,0.0136719-0.1503906c0-0.0693359-0.0170898-0.1269531-0.0507813-0.1738281
		c-0.0444336-0.0595703-0.1088867-0.1054688-0.1933594-0.1367188c-0.0625-0.0234375-0.206543-0.0351563-0.4316406-0.0351563H7.44491
		z"/>
	<path class="st0" d="M10.2198124,22.8129997l0.8183594,2.0761719l0.4433594-1.5507813
		c0.0366211-0.1279297,0.0546875-0.2265625,0.0546875-0.296875c0-0.0478516-0.0170898-0.0859375-0.0507813-0.1132813
		s-0.097168-0.0410156-0.1894531-0.0410156c-0.015625,0-0.0317383-0.0009766-0.0488281-0.0019531l0.0214844-0.0722656h0.8515625
		l-0.0234375,0.0722656c-0.0883789-0.0009766-0.1542969,0.0078125-0.1972656,0.0273438
		c-0.0610352,0.0273438-0.1069336,0.0625-0.1367188,0.1054688c-0.0415039,0.0615234-0.0839844,0.1679688-0.1269531,0.3203125
		l-0.6230469,2.1835938h-0.0703125l-0.8808594-2.234375l-0.4707031,1.6503906
		c-0.0351563,0.125-0.0527344,0.2207031-0.0527344,0.2871094c0,0.0498047,0.0161133,0.0869141,0.0478516,0.1123047
		s0.1079102,0.0429688,0.2275391,0.0517578l-0.0195313,0.0722656H8.9619999l0.0273438-0.0722656
		c0.1040039-0.0029297,0.1738281-0.0117188,0.2089844-0.0273438c0.0532227-0.0234375,0.0932617-0.0537109,0.1191406-0.0917969
		c0.0375977-0.0576172,0.0800781-0.1679688,0.1269531-0.3320313l0.5253906-1.8417969
		c-0.0507813-0.078125-0.1049805-0.1318359-0.1630859-0.1611328s-0.1479492-0.0458984-0.2705078-0.0498047l0.0214844-0.0722656
		H10.2198124z"/>
	<path class="st0" d="M12.8072147,22.8129997h2.0117188l-0.2167969,0.703125h-0.0742188
		c0.0249023-0.1025391,0.0371094-0.1943359,0.0371094-0.2753906c0-0.0947266-0.0292969-0.1669922-0.0878906-0.2148438
		c-0.0444336-0.0361328-0.1582031-0.0546875-0.3417969-0.0546875h-0.2089844l-0.5234375,1.8242188
		c-0.0664063,0.2294922-0.0996094,0.3701172-0.0996094,0.4238281c0,0.0498047,0.0209961,0.0898438,0.0625,0.1220703
		s0.1152344,0.0478516,0.2207031,0.0478516h0.0898438l-0.0234375,0.0722656h-1.1523438l0.0214844-0.0722656h0.0507813
		c0.1015625,0,0.1796875-0.0166016,0.234375-0.0488281c0.0375977-0.0224609,0.0717773-0.0625,0.1025391-0.1201172
		s0.0732422-0.1806641,0.1279297-0.3681641l0.5488281-1.8808594h-0.1582031c-0.1523438,0-0.2749023,0.0195313-0.3681641,0.0585938
		s-0.168457,0.0957031-0.2255859,0.1699219s-0.1040039,0.1796875-0.140625,0.3164063h-0.0722656L12.8072147,22.8129997z"/>
	<path class="st0" d="M14.9532108,25.5219841l0.21875-0.9824219h0.0664063
		c-0.0092773,0.0947266-0.0136719,0.1738281-0.0136719,0.2363281c0,0.1787109,0.0571289,0.3232422,0.1708984,0.4355469
		s0.2626953,0.1679688,0.4462891,0.1679688c0.1704102,0,0.300293-0.0527344,0.3886719-0.1572266
		s0.1328125-0.2255859,0.1328125-0.3623047c0-0.0888672-0.0200195-0.1689453-0.0605469-0.2421875
		c-0.0610352-0.1083984-0.2246094-0.2978516-0.4902344-0.5703125c-0.1289063-0.1298828-0.2114258-0.2275391-0.2480469-0.2910156
		c-0.0600586-0.1054688-0.0898438-0.2158203-0.0898438-0.3320313c0-0.1845703,0.0688477-0.3427734,0.2070313-0.4746094
		s0.3149414-0.1972656,0.53125-0.1972656c0.0727539,0,0.1420898,0.0068359,0.2070313,0.0214844
		c0.0405273,0.0078125,0.1137695,0.0341797,0.2207031,0.078125c0.0756836,0.0302734,0.1171875,0.0458984,0.125,0.0488281
		c0.0180664,0.0039063,0.0385742,0.0058594,0.0605469,0.0058594c0.0375977,0,0.0703125-0.0097656,0.0976563-0.0292969
		s0.059082-0.0615234,0.0957031-0.125h0.0742188l-0.203125,0.8789063h-0.0664063
		c0.0053711-0.078125,0.0078125-0.1416016,0.0078125-0.1894531c0-0.1572266-0.0522461-0.2861328-0.15625-0.3867188
		s-0.2416992-0.1503906-0.4121094-0.1503906c-0.1352539,0-0.2456055,0.0400391-0.3300781,0.1191406
		s-0.1269531,0.1708984-0.1269531,0.2753906c0,0.0908203,0.0268555,0.1777344,0.0810547,0.2607422
		s0.1782227,0.2177734,0.3730469,0.4042969s0.3208008,0.3330078,0.3779297,0.4375s0.0859375,0.2167969,0.0859375,0.3349609
		c0,0.1337891-0.0356445,0.2636719-0.1064453,0.3896484s-0.1728516,0.2226563-0.3056641,0.2919922
		s-0.277832,0.1035156-0.4355469,0.1035156c-0.078125,0-0.1508789-0.0068359-0.21875-0.0214844
		s-0.1757813-0.0498047-0.3242188-0.1054688c-0.0507813-0.0195313-0.0932617-0.0292969-0.1269531-0.0292969
		c-0.0766602,0-0.1367188,0.0517578-0.1796875,0.15625H14.9532108z"/>
	<path class="st0" d="M20.9893436,24.0727654h0.7910156v0.0742188c-0.1147461,0.015625-0.2075195,0.046875-0.2792969,0.09375
		s-0.15625,0.140625-0.2539063,0.28125c-0.1289063,0.1875-0.2358398,0.3369141-0.3203125,0.4472656
		c0.1547852,0.2617188,0.3222656,0.3925781,0.5019531,0.3925781c0.1108398,0,0.2109375-0.0478516,0.3007813-0.1425781h0.0878906
		c-0.078125,0.1064453-0.1606445,0.1835938-0.2480469,0.2314453s-0.190918,0.0712891-0.3105469,0.0712891
		c-0.125,0-0.2329102-0.0234375-0.3242188-0.0693359s-0.1816406-0.1240234-0.2714844-0.2333984
		c-0.1445313,0.1083984-0.2822266,0.1855469-0.4130859,0.2324219s-0.2758789,0.0703125-0.4345703,0.0703125
		c-0.2358398,0-0.4174805-0.0615234-0.5458984-0.1835938s-0.1923828-0.2822266-0.1923828-0.4785156
		c0-0.2333984,0.0981445-0.4384766,0.2949219-0.6152344c0.1289063-0.1142578,0.3911133-0.2392578,0.7871094-0.3730469
		c-0.0063477-0.0498047-0.0112305-0.0957031-0.0146484-0.1396484s-0.0048828-0.0839844-0.0048828-0.1201172
		c0-0.265625,0.0698242-0.4755859,0.2089844-0.6289063s0.3071289-0.2304688,0.5039063-0.2304688
		c0.1328125,0,0.237793,0.0371094,0.3154297,0.1103516s0.1162109,0.1660156,0.1162109,0.2763672
		c0,0.1396484-0.0561523,0.2724609-0.1679688,0.4003906s-0.3125,0.2382813-0.6015625,0.3320313
		c0.09375,0.3876953,0.2089844,0.7128906,0.3457031,0.9746094c0.2016602-0.2431641,0.3027344-0.4384766,0.3027344-0.5839844
		c0-0.03125-0.012207-0.0576172-0.0371094-0.078125s-0.0703125-0.0332031-0.1367188-0.0371094V24.0727654z M20.1787968,23.9946404
		c-0.2514648,0.09375-0.4321289,0.2089844-0.5429688,0.3447266s-0.1660156,0.2773438-0.1660156,0.4228516
		c0,0.1640625,0.0522461,0.2998047,0.1572266,0.4072266s0.2412109,0.1611328,0.4091797,0.1611328
		c0.0922852,0,0.175293-0.0136719,0.2490234-0.0419922s0.1748047-0.0878906,0.3037109-0.1787109
		c-0.0834961-0.1298828-0.1635742-0.2998047-0.2412109-0.5097656S20.213953,24.1889763,20.1787968,23.9946404z
		 M20.4893436,23.7465935c0.1977539-0.0849609,0.331543-0.1650391,0.4003906-0.2421875
		c0.0952148-0.1064453,0.1425781-0.2236328,0.1425781-0.3496094c0-0.0830078-0.0229492-0.1494141-0.0683594-0.1972656
		s-0.1049805-0.0722656-0.1777344-0.0722656c-0.09375,0-0.1733398,0.0410156-0.2382813,0.1230469
		s-0.0976563,0.2177734-0.0976563,0.40625c0,0.0439453,0.003418,0.09375,0.0097656,0.1494141
		S20.47616,23.6801872,20.4893436,23.7465935z"/>
	<path class="st0" d="M25.1036015,22.8129997l0.8183594,2.0761719l0.4433594-1.5507813
		c0.0366211-0.1279297,0.0546875-0.2265625,0.0546875-0.296875c0-0.0478516-0.0170898-0.0859375-0.0507813-0.1132813
		s-0.097168-0.0410156-0.1894531-0.0410156c-0.015625,0-0.0317383-0.0009766-0.0488281-0.0019531l0.0214844-0.0722656h0.8515625
		l-0.0234375,0.0722656c-0.0883789-0.0009766-0.1542969,0.0078125-0.1972656,0.0273438
		c-0.0610352,0.0273438-0.1069336,0.0625-0.1367188,0.1054688c-0.0415039,0.0615234-0.0839844,0.1679688-0.1269531,0.3203125
		l-0.6230469,2.1835938h-0.0703125l-0.8808594-2.234375l-0.4707031,1.6503906
		c-0.0351563,0.125-0.0527344,0.2207031-0.0527344,0.2871094c0,0.0498047,0.0161133,0.0869141,0.0478516,0.1123047
		s0.1079102,0.0429688,0.2275391,0.0517578l-0.0195313,0.0722656H23.845789l0.0273438-0.0722656
		c0.1040039-0.0029297,0.1738281-0.0117188,0.2089844-0.0273438c0.0532227-0.0234375,0.0932617-0.0537109,0.1191406-0.0917969
		c0.0375977-0.0576172,0.0800781-0.1679688,0.1269531-0.3320313l0.5253906-1.8417969
		c-0.0507813-0.078125-0.1049805-0.1318359-0.1630859-0.1611328s-0.1479492-0.0458984-0.2705078-0.0498047l0.0214844-0.0722656
		H25.1036015z"/>
	<path class="st0" d="M28.0913944,25.3891716L28.06991,25.4614372h-1.0898438l0.0273438-0.0722656
		c0.109375-0.0029297,0.1816406-0.0117188,0.2167969-0.0273438c0.0571289-0.0224609,0.0996094-0.0527344,0.1269531-0.0917969
		c0.0429688-0.0615234,0.0874023-0.1708984,0.1328125-0.328125l0.4609375-1.5976563
		c0.0390625-0.1328125,0.0585938-0.2333984,0.0585938-0.3007813c0-0.0341797-0.0083008-0.0625-0.0253906-0.0859375
		s-0.0424805-0.0410156-0.0771484-0.0537109s-0.1020508-0.0185547-0.2021484-0.0185547l0.0234375-0.0722656h1.0229492
		l-0.0214844,0.0722656c-0.0830078-0.0009766-0.1445313,0.0078125-0.1855469,0.0273438
		c-0.0585938,0.0263672-0.1025391,0.0634766-0.1337891,0.1113281c-0.0302734,0.0478516-0.0693359,0.1552734-0.1176758,0.3203125
		l-0.4589844,1.5976563c-0.0415039,0.1474609-0.0625,0.2412109-0.0625,0.28125c0,0.0322266,0.0083008,0.0605469,0.0244141,0.0830078
		s0.0424805,0.0400391,0.078125,0.0527344S27.9781132,25.3813591,28.0913944,25.3891716z"/>
	<path class="st0" d="M31.7959843,22.7524529l-0.1972656,0.8339844h-0.0742188
		c0.0117188-0.0976563,0.0175781-0.1699219,0.0175781-0.2167969c0-0.1279297-0.0566406-0.2402344-0.1689453-0.3388672
		c-0.1132813-0.0986328-0.2685547-0.1474609-0.4658203-0.1474609c-0.4052734,0-0.7363281,0.1904297-0.9921875,0.5703125
		c-0.2050781,0.3007813-0.3066406,0.6376953-0.3066406,1.0097656c0,0.2470703,0.0625,0.4609375,0.1894531,0.640625
		c0.1259766,0.1796875,0.3203125,0.2695313,0.5839844,0.2695313c0.0644531,0,0.1259766-0.0058594,0.1845703-0.0175781
		c0.0576172-0.0117188,0.1455078-0.0380859,0.2626953-0.078125l0.1933594-0.6816406
		c0.0273438-0.09375,0.0410156-0.1689453,0.0410156-0.2246094c0-0.046875-0.0175781-0.0830078-0.0507813-0.1074219
		c-0.0546875-0.0380859-0.1435547-0.0566406-0.265625-0.0566406h-0.0546875l0.0214844-0.0761719h1.1015625l-0.0195313,0.0761719
		c-0.1005859,0.0009766-0.1738281,0.0126953-0.21875,0.0351563c-0.0458984,0.0224609-0.0849609,0.0595703-0.1171875,0.1132813
		c-0.0224609,0.0351563-0.0585938,0.1376953-0.1074219,0.3066406l-0.1953125,0.6699219
		c-0.1787109,0.0771484-0.3222656,0.1279297-0.4316406,0.1533203s-0.2246094,0.0380859-0.3457031,0.0380859
		c-0.2792969,0-0.5048828-0.0527344-0.6777344-0.1572266c-0.1738281-0.1044922-0.3017578-0.2431641-0.3837891-0.4160156
		c-0.0830078-0.1728516-0.1240234-0.34375-0.1240234-0.5146484c0-0.2294922,0.0478516-0.4472656,0.1445313-0.6533203
		c0.0957031-0.2060547,0.2158203-0.3808594,0.3603516-0.5234375c0.1435547-0.1425781,0.2998047-0.2548828,0.4697266-0.3369141
		c0.2324219-0.1132813,0.4775391-0.1699219,0.734375-0.1699219c0.1884766,0,0.359375,0.03125,0.5117188,0.09375
		c0.0605469,0.0244141,0.1054688,0.0371094,0.1347656,0.0371094c0.0322266,0,0.0595703-0.0078125,0.0830078-0.0224609
		c0.0224609-0.0146484,0.0517578-0.0507813,0.0888672-0.1083984H31.7959843z"/>
	<path class="st0" d="M33.2715721,23.9946404h1.2226563l0.1933594-0.6542969
		c0.0371094-0.1279297,0.0546875-0.2265625,0.0546875-0.296875c0-0.0341797-0.0078125-0.0625-0.0244141-0.0869141
		c-0.015625-0.0244141-0.0410156-0.0419922-0.0751953-0.0537109c-0.0332031-0.0117188-0.0996094-0.0175781-0.1992188-0.0175781
		l0.0195313-0.0722656h1.0664063l-0.0234375,0.0722656c-0.0898438-0.0009766-0.15625,0.0078125-0.2011719,0.0273438
		c-0.0625,0.0273438-0.1083984,0.0625-0.1386719,0.1054688c-0.0429688,0.0615234-0.0859375,0.1689453-0.1308594,0.3222656
		l-0.4667969,1.5996094c-0.0390625,0.1328125-0.0585938,0.2275391-0.0585938,0.2851563
		c0,0.0498047,0.0175781,0.0869141,0.0517578,0.1123047c0.0351563,0.0253906,0.1171875,0.0429688,0.2470703,0.0517578
		l-0.0214844,0.0722656h-1.03125l0.0273438-0.0722656c0.1015625-0.0029297,0.1699219-0.0117188,0.203125-0.0273438
		c0.0527344-0.0234375,0.0898438-0.0537109,0.1132813-0.0898438c0.0341797-0.0507813,0.0761719-0.1611328,0.125-0.3320313
		l0.2382813-0.8105469h-1.2285156l-0.2402344,0.8105469c-0.0371094,0.1298828-0.0566406,0.2255859-0.0566406,0.2851563
		c0,0.0498047,0.0175781,0.0869141,0.0507813,0.1123047c0.0341797,0.0253906,0.1162109,0.0429688,0.2460938,0.0517578
		l-0.015625,0.0722656h-1.0390625l0.0253906-0.0722656c0.1035156-0.0029297,0.171875-0.0117188,0.2050781-0.0273438
		c0.0527344-0.0234375,0.0908203-0.0537109,0.1152344-0.0898438c0.0341797-0.0537109,0.0761719-0.1640625,0.125-0.3320313
		l0.46875-1.5996094c0.0380859-0.1298828,0.0566406-0.2294922,0.0566406-0.296875c0-0.0341797-0.0078125-0.0625-0.0244141-0.0869141
		c-0.015625-0.0244141-0.0410156-0.0419922-0.0761719-0.0537109c-0.0341797-0.0117188-0.1015625-0.0175781-0.2021484-0.0175781
		l0.0234375-0.0722656h1.0449219l-0.0214844,0.0722656c-0.0869141-0.0009766-0.1513672,0.0078125-0.1933594,0.0273438
		c-0.0605469,0.0263672-0.1054688,0.0605469-0.1347656,0.1035156c-0.0390625,0.0576172-0.0820313,0.1650391-0.1289063,0.3242188
		L33.2715721,23.9946404z"/>
	<path class="st0" d="M36.2403221,22.8129997h2.0117188l-0.2167969,0.703125h-0.0742188
		c0.0253906-0.1025391,0.0371094-0.1943359,0.0371094-0.2753906c0-0.0947266-0.0292969-0.1669922-0.0878906-0.2148438
		c-0.0439453-0.0361328-0.1582031-0.0546875-0.3417969-0.0546875h-0.2089844l-0.5234375,1.8242188
		c-0.0664063,0.2294922-0.0996094,0.3701172-0.0996094,0.4238281c0,0.0498047,0.0214844,0.0898438,0.0625,0.1220703
		c0.0419922,0.0322266,0.1152344,0.0478516,0.2207031,0.0478516h0.0898438l-0.0234375,0.0722656h-1.1523438l0.0214844-0.0722656
		h0.0507813c0.1015625,0,0.1796875-0.0166016,0.234375-0.0488281c0.0380859-0.0224609,0.0722656-0.0625,0.1025391-0.1201172
		c0.03125-0.0576172,0.0732422-0.1806641,0.1279297-0.3681641l0.5488281-1.8808594h-0.1582031
		c-0.1523438,0-0.2744141,0.0195313-0.3681641,0.0585938c-0.0927734,0.0390625-0.1679688,0.0957031-0.2255859,0.1699219
		c-0.0566406,0.0742188-0.1035156,0.1796875-0.140625,0.3164063h-0.0722656L36.2403221,22.8129997z"/>
	<path class="st0" d="M41.6006737,25.4614372h-1.9628906l0.0273438-0.0722656
		c0.1044922-0.0029297,0.1738281-0.0107422,0.2089844-0.0253906c0.0546875-0.0234375,0.0957031-0.0537109,0.1210938-0.0917969
		c0.0410156-0.0595703,0.0839844-0.1679688,0.1289063-0.3242188l0.4667969-1.6113281
		c0.0390625-0.1328125,0.0585938-0.2304688,0.0585938-0.2929688c0-0.0498047-0.0175781-0.0878906-0.0537109-0.1152344
		c-0.0351563-0.0273438-0.1025391-0.0410156-0.2021484-0.0410156c-0.0214844,0-0.0390625-0.0009766-0.0527344-0.0019531
		l0.0234375-0.0722656h1.0800781l-0.015625,0.0722656c-0.1210938,0-0.2070313,0.0117188-0.2578125,0.0351563
		s-0.0927734,0.0615234-0.1269531,0.1152344c-0.0234375,0.0351563-0.0615234,0.1445313-0.1152344,0.328125l-0.4589844,1.5839844
		c-0.0351563,0.1201172-0.0527344,0.203125-0.0527344,0.25c0,0.03125,0.0175781,0.0615234,0.0527344,0.0898438
		c0.0224609,0.0195313,0.0722656,0.0292969,0.1503906,0.0292969h0.2558594c0.1865234,0,0.3339844-0.0234375,0.4433594-0.0703125
		c0.0810547-0.0351563,0.1552734-0.0878906,0.2226563-0.1582031c0.0371094-0.0390625,0.1015625-0.1357422,0.1933594-0.2910156
		l0.0507813-0.0878906h0.0722656L41.6006737,25.4614372z"/>
	<path class="st0" d="M43.4580956,25.3891716l-0.0214844,0.0722656h-1.0898438l0.0273438-0.0722656
		c0.109375-0.0029297,0.1816406-0.0117188,0.2167969-0.0273438c0.0566406-0.0224609,0.0996094-0.0527344,0.1269531-0.0917969
		c0.0429688-0.0615234,0.0869141-0.1708984,0.1328125-0.328125l0.4609375-1.5976563
		c0.0390625-0.1328125,0.0585938-0.2333984,0.0585938-0.3007813c0-0.0341797-0.0087891-0.0625-0.0253906-0.0859375
		c-0.0175781-0.0234375-0.0429688-0.0410156-0.0771484-0.0537109c-0.0351563-0.0126953-0.1025391-0.0185547-0.2021484-0.0185547
		l0.0234375-0.0722656h1.0234375l-0.0214844,0.0722656c-0.0839844-0.0009766-0.1455078,0.0078125-0.1855469,0.0273438
		c-0.0585938,0.0263672-0.1035156,0.0634766-0.1337891,0.1113281c-0.03125,0.0478516-0.0703125,0.1552734-0.1181641,0.3203125
		l-0.4589844,1.5976563c-0.0419922,0.1474609-0.0625,0.2412109-0.0625,0.28125c0,0.0322266,0.0078125,0.0605469,0.0244141,0.0830078
		c0.015625,0.0224609,0.0419922,0.0400391,0.078125,0.0527344C43.269619,25.3715935,43.3448143,25.3813591,43.4580956,25.3891716z"
		/>
	<path class="st0" d="M45.5840721,22.9536247l-0.3125,1.0488281h0.3476563c0.15625,0,0.2734375-0.0244141,0.3505859-0.0722656
		c0.078125-0.0478516,0.1572266-0.1513672,0.2392578-0.3085938h0.0742188l-0.2753906,0.9648438h-0.078125
		c0.0195313-0.078125,0.0292969-0.1425781,0.0292969-0.1933594c0-0.0791016-0.0263672-0.140625-0.0791016-0.1845703
		s-0.1513672-0.0654297-0.2958984-0.0654297h-0.3515625l-0.2304688,0.7988281
		c-0.0410156,0.1416016-0.0625,0.2363281-0.0625,0.2832031c0,0.0478516,0.0185547,0.0849609,0.0537109,0.1113281
		c0.0361328,0.0263672,0.1240234,0.0439453,0.2626953,0.0527344l-0.0234375,0.0722656h-1.046875l0.0253906-0.0722656
		c0.1015625-0.0029297,0.1699219-0.0117188,0.203125-0.0273438c0.0527344-0.0224609,0.0908203-0.0517578,0.1152344-0.0898438
		c0.0351563-0.0537109,0.0771484-0.1630859,0.125-0.3300781l0.4667969-1.5957031
		c0.0380859-0.1289063,0.0566406-0.2294922,0.0566406-0.3027344c0-0.0341797-0.0078125-0.0625-0.0253906-0.0869141
		c-0.0166016-0.0244141-0.0419922-0.0419922-0.0751953-0.0537109s-0.0986328-0.0175781-0.1982422-0.0175781l0.0234375-0.0722656
		h2.0546875l-0.1953125,0.6699219h-0.0742188c0.0146484-0.0810547,0.0214844-0.1474609,0.0214844-0.1992188
		c0-0.0859375-0.0234375-0.1542969-0.0712891-0.2041016c-0.046875-0.0498047-0.1083984-0.0859375-0.1826172-0.1064453
		c-0.0517578-0.0126953-0.1679688-0.0195313-0.3496094-0.0195313H45.5840721z"/>
	<path class="st0" d="M48.5020409,22.9555779l-0.3027344,1.046875h0.2480469c0.1767578,0,0.3046875-0.0273438,0.3847656-0.0810547
		c0.0791016-0.0537109,0.1474609-0.1542969,0.2050781-0.2998047h0.0722656l-0.2714844,0.9609375h-0.078125
		c0.0234375-0.0810547,0.0351563-0.1494141,0.0351563-0.2070313c0-0.0556641-0.0117188-0.1005859-0.0341797-0.1347656
		c-0.0234375-0.0341797-0.0546875-0.0585938-0.09375-0.0751953c-0.0400391-0.0166016-0.1240234-0.0244141-0.2509766-0.0244141
		h-0.2519531l-0.2558594,0.8769531c-0.0253906,0.0849609-0.0371094,0.1494141-0.0371094,0.1933594
		c0,0.0341797,0.015625,0.0634766,0.0488281,0.0898438c0.0214844,0.0185547,0.0771484,0.0273438,0.1660156,0.0273438h0.234375
		c0.2539063,0,0.4570313-0.0449219,0.6103516-0.1347656c0.1523438-0.0898438,0.2900391-0.2460938,0.4111328-0.46875h0.0722656
		l-0.25,0.7363281h-2.046875l0.0253906-0.0722656c0.1015625-0.0029297,0.1699219-0.0117188,0.2050781-0.0273438
		c0.0517578-0.0234375,0.0898438-0.0537109,0.1132813-0.0898438c0.0351563-0.0537109,0.0761719-0.1650391,0.125-0.3359375
		l0.4648438-1.5976563c0.0361328-0.1289063,0.0546875-0.2275391,0.0546875-0.2949219
		c0-0.0498047-0.0175781-0.0878906-0.0517578-0.1162109c-0.0351563-0.0283203-0.1025391-0.0419922-0.2021484-0.0419922h-0.0410156
		l0.0234375-0.0722656h1.9023438l-0.1640625,0.6386719h-0.0722656c0.0087891-0.0595703,0.0136719-0.1103516,0.0136719-0.1503906
		c0-0.0693359-0.0175781-0.1269531-0.0507813-0.1738281c-0.0449219-0.0595703-0.109375-0.1054688-0.1933594-0.1367188
		c-0.0625-0.0234375-0.2070313-0.0351563-0.4316406-0.0351563H48.5020409z"/>
</g>
<g>
	<path class="st0" d="M0.6959239,19.6117058c0,0,3.0541687-0.119751,7.6354065-0.2102661
		c2.2906189-0.0309448,4.9630127-0.1001587,7.8262949-0.114502c2.8632813-0.0159302,5.91745-0.0328369,8.9716187-0.0498047
		c3.0541687,0.0167847,6.1083069,0.0335083,8.9715862,0.0492554c2.8632813,0.0124512,5.535675,0.0835571,7.8262939,0.1142578
		c4.5812683,0.090271,7.6354065,0.2110596,7.6354065,0.2110596s-3.0541382,0.1207275-7.6354065,0.2110596
		c-2.2906189,0.0306396-4.9630127,0.1018066-7.8262939,0.1141968c-2.8632793,0.0157471-5.9174175,0.0325317-8.9715862,0.0492554
		c-3.0541687-0.0169067-6.1083374-0.0338745-8.9716187-0.0498047c-2.8632822-0.0143433-5.535676-0.0835571-7.8262949-0.114502
		C3.7500925,19.7313957,0.6959239,19.6117058,0.6959239,19.6117058z"/>
</g>
</svg>
