<?xml version="1.0" encoding="utf-8"?>
<!-- Generator: Adobe Illustrator 19.0.0, SVG Export Plug-In . SVG Version: 6.00 Build 0)  -->
<svg version="1.1" id="Layer_1" xmlns="http://www.w3.org/2000/svg" xmlns:xlink="http://www.w3.org/1999/xlink" x="0px" y="0px"
	 viewBox="0 0 16.2600307 18.4498901" style="enable-background:new 0 0 16.2600307 18.4498901;" xml:space="preserve">
<style type="text/css">
	.st0{fill:url(#XMLID_2_);}
	.st1{fill:url(#SVGID_1_);}
</style>
<g id="XMLID_23_">
	<g>
		
			<linearGradient id="XMLID_2_" gradientUnits="userSpaceOnUse" x1="10.1411676" y1="10.7372751" x2="23.6147156" y2="10.7372751" gradientTransform="matrix(1 0 0 1 -8.1300154 -14.7172127)">
			<stop  offset="0" style="stop-color:#EE4574"/>
			<stop  offset="1" style="stop-color:#F06265"/>
		</linearGradient>
		<path id="XMLID_17_" class="st0" d="M2.011152-3.9799373c0-0.2393286,0.3206186-0.4602263,0.9615126-0.6626933
			c0.6412375-0.202467,1.4934719-0.3629036,2.5563591-0.4812417s2.1890044-0.1775074,3.3783526-0.1775074
			c0.8106527,0,1.6109972,0.0315571,2.4017191,0.0946708c0.7907219,0.0631132,1.4982824,0.1515269,2.1226816,0.2653084
			c0.6247425,0.1137133,1.1230249,0.2527266,1.4948463,0.4171081c0.3718214,0.164381,0.5580759,0.3431802,0.5580759,0.5364659
			c0,0.235384-0.2955332,0.4552617-0.8865986,0.6597691c-0.591753,0.2044392-1.4137459,0.36712-2.4666681,0.4881105
			c-1.0532646,0.1209905-2.2439871,0.1814518-3.572854,0.1814518c-1.0164952,0-1.9333344-0.0394459-2.7505169-0.1183381
			C4.9908791-2.8557253,4.295002-2.9622295,3.7204313-3.0963461C3.1455169-3.2304626,2.7169943-3.3741007,2.43452-3.527328
			C2.1523893-3.6804876,2.011152-3.8313346,2.011152-3.9799373z M3.4960327-4.1298323
			c0,0.2300792,0.2725086,0.4477124,0.8171825,0.6528318s1.2756019,0.3691607,2.192441,0.4921234
			c0.9168391,0.1228948,1.8869429,0.1843762,2.9099674,0.1843762c0.7573891,0,1.4831619-0.0371337,2.1776648-0.111469
			c0.6941586-0.0742674,1.2639179-0.1890008,1.7089357-0.3441327c0.4450169-0.1551318,0.6676979-0.3464451,0.6676979-0.5739398
			c0-0.1814518-0.1477671-0.3537221-0.4432993-0.5167432c-0.2958765-0.1630211-0.7079048-0.306047-1.2357397-0.4289417
			c-0.5285225-0.1229625-1.1378012-0.2183132-1.828867-0.2860518c-0.6910658-0.0676703-1.4185572-0.1015396-2.182476-0.1015396
			c-0.8371134,0-1.6209626,0.0410786-2.351891,0.1233029C5.1967211-4.957859,4.608748-4.8378887,4.1637306-4.6801047
			C3.718713-4.5223203,3.4960327-4.3388963,3.4960327-4.1298323z"/>
	</g>
</g>
<g>
	<g>
		
			<linearGradient id="SVGID_1_" gradientUnits="userSpaceOnUse" x1="8.1300154" y1="23.9421577" x2="24.3900471" y2="23.9421577" gradientTransform="matrix(1 0 0 1 -8.1300154 -14.7172127)">
			<stop  offset="0" style="stop-color:#EE4574"/>
			<stop  offset="1" style="stop-color:#F06265"/>
		</linearGradient>
		<path class="st1" d="M16.2600327,8.1431293v10.0313911h-2.6881514c-0.2185488-0.7428474-0.458952-1.3681164-0.7212105-1.8751488
			c-1.1102285,1.433897-2.7537155,2.1505203-4.9304614,2.1505203c-2.3078756,0-4.2048793-0.8064461-5.6910114-2.4193363
			c-1.4863503-1.6128902-2.2291977-3.7961931-2.2291977-6.5499077c0-2.6750379,0.7190256-4.9239049,2.1570768-6.7466021
			c1.4378326-1.822697,3.5776439-2.7340455,6.4187789-2.7340455c2.1328173,0,3.8506107,0.5422196,5.1533804,1.6260031
			c1.3025513,1.0840023,2.1457129,2.622586,2.5307961,4.6157513L10.936183,6.7662716
			c-0.2622585-1.8620358-1.0798492-2.7930539-2.4521179-2.7930539c-1.8010607,0-2.701263,1.7134225-2.701263,5.1402683
			c0,2.0718422,0.2884841,3.4377728,0.8654532,4.0977898c0.5769687,0.6602364,1.2763252,0.9900265,2.0980682,0.9900265
			c0.6641703,0,1.2304296-0.2010651,1.6981249-0.6031952c0.4674759-0.4019108,0.7059126-0.9526539,0.714654-1.6522293h-2.963522
			V8.1431293H16.2600327z"/>
	</g>
</g>
</svg>
