<?xml version="1.0" encoding="utf-8"?>
<!-- Generator: Adobe Illustrator 19.0.0, SVG Export Plug-In . SVG Version: 6.00 Build 0)  -->
<svg version="1.1" id="Layer_1" xmlns="http://www.w3.org/2000/svg" xmlns:xlink="http://www.w3.org/1999/xlink" x="0px" y="0px"
	 viewBox="0 0 99.2 21.9" style="enable-background:new 0 0 99.2 21.9;" xml:space="preserve">
<style type="text/css">
	.st0{fill:url(#SVGID_1_);}
	.st1{fill:url(#SVGID_2_);}
	.st2{fill:url(#SVGID_3_);}
	.st3{fill:url(#SVGID_4_);}
	.st4{fill:url(#SVGID_5_);}
	.st5{fill:url(#SVGID_6_);}
	.st6{fill:url(#XMLID_4_);}
	.st7{fill:url(#SVGID_7_);}
	.st8{fill:url(#SVGID_8_);}
	.st9{fill:url(#SVGID_9_);}
	.st10{fill:url(#SVGID_10_);}
	.st11{fill:url(#SVGID_11_);}
</style>
<g>
	<g>
		
			<linearGradient id="SVGID_1_" gradientUnits="userSpaceOnUse" x1="5.77" y1="-9.2638" x2="37.7372" y2="-9.2638" gradientTransform="matrix(1 0 0 1 -1.1837 4.107)">
			<stop  offset="0" style="stop-color:#EE4574"/>
			<stop  offset="1" style="stop-color:#F06265"/>
		</linearGradient>
		<path class="st0" d="M4.6-2.2v-6h2.3c1,0,1.8,0.3,2.3,0.9C9.7-6.7,9.9-6,9.9-5.2c0,0.9-0.3,1.6-0.8,2.2C8.6-2.5,7.9-2.2,7-2.2H4.6
			z M6.4-3.6h0.5c0.3,0,0.6-0.1,0.8-0.4C7.9-4.3,8-4.7,8-5.2c0-0.4-0.1-0.8-0.3-1.1C7.5-6.7,7.3-6.8,6.9-6.8H6.4V-3.6z"/>
		
			<linearGradient id="SVGID_2_" gradientUnits="userSpaceOnUse" x1="5.77" y1="-9.2638" x2="37.7372" y2="-9.2638" gradientTransform="matrix(1 0 0 1 -1.1837 4.107)">
			<stop  offset="0" style="stop-color:#EE4574"/>
			<stop  offset="1" style="stop-color:#F06265"/>
		</linearGradient>
		<path class="st1" d="M15.2-2.2h-1.7c0-0.2-0.1-0.4-0.1-0.6c-0.3,0.5-0.8,0.7-1.4,0.7c-0.5,0-0.9-0.1-1.2-0.4
			c-0.3-0.3-0.4-0.6-0.4-0.9c0-0.5,0.2-0.9,0.6-1.1c0.4-0.3,1.2-0.5,2.3-0.5v-0.1c0-0.2,0-0.3-0.1-0.4c-0.1-0.1-0.2-0.1-0.4-0.1
			c-0.4,0-0.6,0.2-0.7,0.5l-1.6-0.1c0.2-0.9,1-1.4,2.3-1.4c0.4,0,0.7,0,1,0.1c0.3,0.1,0.5,0.2,0.7,0.3C14.8-6.2,14.9-6,15-5.8
			C15-5.7,15-5.3,15-4.9v1.8C15-2.7,15.1-2.4,15.2-2.2z M13.4-4.3c-0.7,0.1-1.1,0.3-1.1,0.7c0,0.3,0.1,0.4,0.4,0.4
			c0.2,0,0.3-0.1,0.5-0.2c0.1-0.1,0.2-0.4,0.2-0.7V-4.3z"/>
		
			<linearGradient id="SVGID_3_" gradientUnits="userSpaceOnUse" x1="5.77" y1="-9.2638" x2="37.7372" y2="-9.2638" gradientTransform="matrix(1 0 0 1 -1.1837 4.107)">
			<stop  offset="0" style="stop-color:#EE4574"/>
			<stop  offset="1" style="stop-color:#F06265"/>
		</linearGradient>
		<path class="st2" d="M18.7-6.7v1.1h-0.9v1.7c0,0.2,0,0.4,0.1,0.4c0.1,0,0.2,0.1,0.3,0.1c0.1,0,0.3,0,0.5-0.1v1.3
			c-0.3,0.1-0.7,0.1-1,0.1c-0.5,0-0.9-0.1-1.2-0.3c-0.3-0.2-0.4-0.6-0.4-1.1l0-0.5v-1.4h-0.7v-1.1h0.7l0-1.5l1.7,0v1.5H18.7z"/>
		
			<linearGradient id="SVGID_4_" gradientUnits="userSpaceOnUse" x1="5.77" y1="-9.2638" x2="37.7372" y2="-9.2638" gradientTransform="matrix(1 0 0 1 -1.1837 4.107)">
			<stop  offset="0" style="stop-color:#EE4574"/>
			<stop  offset="1" style="stop-color:#F06265"/>
		</linearGradient>
		<path class="st3" d="M22.3-3.8l1.6,0.1c-0.1,0.4-0.3,0.8-0.7,1.1c-0.4,0.3-0.9,0.5-1.6,0.5c-0.8,0-1.4-0.2-1.8-0.7
			c-0.4-0.4-0.7-1-0.7-1.6c0-0.7,0.2-1.2,0.7-1.7s1-0.7,1.8-0.7c0.7,0,1.3,0.2,1.7,0.7c0.4,0.4,0.7,1,0.7,1.8c0,0.1,0,0.1,0,0.3h-3
			c0,0.3,0.1,0.5,0.1,0.6c0.1,0.1,0.3,0.2,0.5,0.2C22-3.3,22.2-3.4,22.3-3.8z M22.2-5c0-0.3-0.1-0.5-0.2-0.6
			c-0.1-0.1-0.3-0.2-0.4-0.2c-0.4,0-0.6,0.3-0.6,0.8H22.2z"/>
		
			<linearGradient id="SVGID_5_" gradientUnits="userSpaceOnUse" x1="5.77" y1="-9.2638" x2="37.7372" y2="-9.2638" gradientTransform="matrix(1 0 0 1 -1.1837 4.107)">
			<stop  offset="0" style="stop-color:#EE4574"/>
			<stop  offset="1" style="stop-color:#F06265"/>
		</linearGradient>
		<path class="st4" d="M31.4-2.2h-1.7c0-0.2-0.1-0.4-0.1-0.6c-0.3,0.5-0.8,0.7-1.4,0.7c-0.5,0-0.9-0.1-1.2-0.4
			c-0.3-0.3-0.4-0.6-0.4-0.9c0-0.5,0.2-0.9,0.6-1.1c0.4-0.3,1.2-0.5,2.3-0.5v-0.1c0-0.2,0-0.3-0.1-0.4c-0.1-0.1-0.2-0.1-0.4-0.1
			c-0.4,0-0.6,0.2-0.7,0.5l-1.6-0.1c0.2-0.9,1-1.4,2.3-1.4c0.4,0,0.7,0,1,0.1c0.3,0.1,0.5,0.2,0.7,0.3s0.3,0.3,0.4,0.5
			c0.1,0.2,0.1,0.5,0.1,1v1.8C31.3-2.7,31.3-2.4,31.4-2.2z M29.6-4.3c-0.7,0.1-1.1,0.3-1.1,0.7c0,0.3,0.1,0.4,0.4,0.4
			c0.2,0,0.3-0.1,0.5-0.2c0.1-0.1,0.2-0.4,0.2-0.7V-4.3z"/>
		
			<linearGradient id="SVGID_6_" gradientUnits="userSpaceOnUse" x1="5.77" y1="-9.2638" x2="37.7372" y2="-9.2638" gradientTransform="matrix(1 0 0 1 -1.1837 4.107)">
			<stop  offset="0" style="stop-color:#EE4574"/>
			<stop  offset="1" style="stop-color:#F06265"/>
		</linearGradient>
		<path class="st5" d="M36.6-2.2h-1.8V-5c0-0.2,0-0.4-0.1-0.4c-0.1-0.1-0.2-0.1-0.3-0.1c-0.3,0-0.5,0.2-0.5,0.7v2.7h-1.8v-4.5h1.6
			V-6c0.2-0.5,0.7-0.7,1.3-0.7c0.3,0,0.6,0.1,0.8,0.2c0.2,0.1,0.4,0.3,0.5,0.5c0.1,0.2,0.1,0.5,0.1,1V-2.2z"/>
	</g>
</g>
<g id="XMLID_5_">
	<g>
		
			<linearGradient id="XMLID_4_" gradientUnits="userSpaceOnUse" x1="45.7158" y1="-7.7286" x2="61.7148" y2="-7.7286" gradientTransform="matrix(1 0 0 1 -1.1837 4.107)">
			<stop  offset="0" style="stop-color:#EE4574"/>
			<stop  offset="1" style="stop-color:#F06265"/>
		</linearGradient>
		<path id="XMLID_21_" class="st6" d="M44.5-3.6c0-0.3,0.4-0.5,1.1-0.8c0.8-0.2,1.8-0.4,3-0.6c1.3-0.1,2.6-0.2,4-0.2
			c1,0,1.9,0,2.9,0.1c0.9,0.1,1.8,0.2,2.5,0.3c0.7,0.1,1.3,0.3,1.8,0.5c0.4,0.2,0.7,0.4,0.7,0.6c0,0.3-0.4,0.5-1.1,0.8
			c-0.7,0.2-1.7,0.4-2.9,0.6c-1.3,0.1-2.7,0.2-4.2,0.2c-1.2,0-2.3,0-3.3-0.1c-1-0.1-1.8-0.2-2.5-0.4c-0.7-0.2-1.2-0.3-1.5-0.5
			C44.7-3.3,44.5-3.4,44.5-3.6z M46.3-3.8c0,0.3,0.3,0.5,1,0.8c0.6,0.2,1.5,0.4,2.6,0.6c1.1,0.1,2.2,0.2,3.5,0.2
			c0.9,0,1.8,0,2.6-0.1c0.8-0.1,1.5-0.2,2-0.4c0.5-0.2,0.8-0.4,0.8-0.7c0-0.2-0.2-0.4-0.5-0.6c-0.4-0.2-0.8-0.4-1.5-0.5
			c-0.6-0.1-1.4-0.3-2.2-0.3C53.7-5,52.9-5,52-5c-1,0-1.9,0-2.8,0.1c-0.9,0.1-1.6,0.2-2.1,0.4C46.6-4.3,46.3-4,46.3-3.8z"/>
	</g>
</g>
<g>
	<g>
		
			<linearGradient id="SVGID_7_" gradientUnits="userSpaceOnUse" x1="1.1837" y1="6.847" x2="100.4195" y2="6.847" gradientTransform="matrix(1 0 0 1 -1.1837 4.107)">
			<stop  offset="0" style="stop-color:#EE4574"/>
			<stop  offset="1" style="stop-color:#F06265"/>
		</linearGradient>
		<path class="st7" d="M13.5,21.6l-1.2-4.2H6.6l-1.3,4.2H0L6.6,0.3h6.9l6.7,21.3H13.5z M7.7,12.8h3.4L9.4,6.6L7.7,12.8z"/>
		
			<linearGradient id="SVGID_8_" gradientUnits="userSpaceOnUse" x1="1.1837" y1="6.847" x2="100.4195" y2="6.847" gradientTransform="matrix(1 0 0 1 -1.1837 4.107)">
			<stop  offset="0" style="stop-color:#EE4574"/>
			<stop  offset="1" style="stop-color:#F06265"/>
		</linearGradient>
		<path class="st8" d="M40.3,21.6h-5.3l-5.8-9.4c-0.7-1.2-1.5-2.7-2.3-4.4c0.3,1.4,0.5,2.5,0.5,3.5v10.3h-5.3V0.3h6.2l5,7.8
			c1,1.5,1.7,2.9,2.2,4.1c-0.3-1.8-0.5-3.7-0.5-5.6V0.3h5.3V21.6z"/>
		
			<linearGradient id="SVGID_9_" gradientUnits="userSpaceOnUse" x1="1.1837" y1="6.847" x2="100.4195" y2="6.847" gradientTransform="matrix(1 0 0 1 -1.1837 4.107)">
			<stop  offset="0" style="stop-color:#EE4574"/>
			<stop  offset="1" style="stop-color:#F06265"/>
		</linearGradient>
		<path class="st9" d="M62.3,9.7v11.9h-3.2c-0.3-0.9-0.5-1.6-0.9-2.2c-1.3,1.7-3.3,2.6-5.9,2.6c-2.7,0-5-1-6.8-2.9
			c-1.8-1.9-2.6-4.5-2.6-7.8c0-3.2,0.9-5.8,2.6-8C47.3,1.1,49.8,0,53.2,0c2.5,0,4.6,0.6,6.1,1.9c1.5,1.3,2.5,3.1,3,5.5L56,8
			c-0.3-2.2-1.3-3.3-2.9-3.3c-2.1,0-3.2,2-3.2,6.1c0,2.5,0.3,4.1,1,4.9c0.7,0.8,1.5,1.2,2.5,1.2c0.8,0,1.5-0.2,2-0.7
			c0.6-0.5,0.8-1.1,0.8-2h-3.5V9.7H62.3z"/>
		
			<linearGradient id="SVGID_10_" gradientUnits="userSpaceOnUse" x1="1.1837" y1="6.847" x2="100.4195" y2="6.847" gradientTransform="matrix(1 0 0 1 -1.1837 4.107)">
			<stop  offset="0" style="stop-color:#EE4574"/>
			<stop  offset="1" style="stop-color:#F06265"/>
		</linearGradient>
		<path class="st10" d="M81.7,16.5v5.1h-16V0.3h16v4.9h-9.6v3.1h7.8V13h-7.8v3.5H81.7z"/>
		
			<linearGradient id="SVGID_11_" gradientUnits="userSpaceOnUse" x1="1.1837" y1="6.847" x2="100.4195" y2="6.847" gradientTransform="matrix(1 0 0 1 -1.1837 4.107)">
			<stop  offset="0" style="stop-color:#EE4574"/>
			<stop  offset="1" style="stop-color:#F06265"/>
		</linearGradient>
		<path class="st11" d="M99.2,16.4v5.2H84.3V0.3h6.5v16H99.2z"/>
	</g>
</g>
</svg>
