<?xml version="1.0" encoding="utf-8"?>
<!-- Generator: Adobe Illustrator 19.0.0, SVG Export Plug-In . SVG Version: 6.00 Build 0)  -->
<svg version="1.1" id="Layer_1" xmlns="http://www.w3.org/2000/svg" xmlns:xlink="http://www.w3.org/1999/xlink" x="0px" y="0px"
	 viewBox="0 0 103 42.2" style="enable-background:new 0 0 103 42.2;" xml:space="preserve">
<style type="text/css">
	.st0{fill:#53B95D;}
</style>
<g>
	<g>
		<path class="st0" d="M7.1,18.8c0,0.5,0,1,0,1.2c0,0.3,0.1,0.5,0.2,0.7c0.1,0.2,0.2,0.3,0.3,0.4c0.1,0.1,0.3,0.2,0.5,0.3
			c0.2,0.1,0.5,0.2,0.9,0.2v1H0.7v-1c0.4-0.1,0.7-0.2,0.9-0.3c0.2-0.1,0.4-0.3,0.5-0.5c0.1-0.2,0.2-0.5,0.2-0.8c0-0.3,0-0.7,0-1.2
			V5.6c0-0.5,0-0.9,0-1.2c0-0.3-0.1-0.6-0.2-0.8C2,3.4,1.8,3.2,1.6,3.1C1.4,2.9,1.1,2.8,0.7,2.7v-1h14.9v4.9h-2.1
			c-0.3-1-0.6-1.6-0.9-2c-0.2-0.3-0.5-0.6-0.8-0.8c-0.3-0.2-0.9-0.3-1.7-0.3h-3v7.8h2c0.5,0,0.9-0.1,1.1-0.2
			c0.3-0.1,0.5-0.4,0.6-0.7c0.2-0.3,0.3-0.8,0.4-1.5H13v6.7h-1.7c-0.1-0.6-0.3-1.1-0.4-1.5c-0.2-0.4-0.4-0.6-0.6-0.7
			c-0.3-0.1-0.6-0.2-1.1-0.2h-2V18.8z"/>
		<path class="st0" d="M16.4,21.7c0.5-0.1,0.8-0.3,1-0.5c0.2-0.2,0.3-0.5,0.4-0.9s0.1-1,0.1-2v-7.1c0-0.5,0-0.9-0.1-1.2
			c0-0.3-0.1-0.6-0.3-0.7c-0.1-0.2-0.3-0.3-0.5-0.4c-0.2-0.1-0.5-0.2-0.9-0.3v-1l4.2-0.1h1.9v10.9c0,0.6,0,1,0,1.3
			c0,0.3,0,0.6,0.1,0.7c0,0.2,0.1,0.3,0.1,0.5c0.1,0.1,0.1,0.3,0.2,0.4c0.1,0.1,0.2,0.2,0.4,0.3c0.2,0.1,0.4,0.2,0.7,0.2v1h-7.5
			V21.7z M22.3,1.3v3.8H18V1.3H22.3z"/>
		<path class="st0" d="M35.4,20.8c-0.9,0.8-1.7,1.3-2.5,1.6c-0.7,0.3-1.5,0.5-2.3,0.5c-1.5,0-2.7-0.4-3.4-1.2
			c-0.8-0.8-1.1-2.1-1.1-3.7V9.4h-1.9V8.3c0.6-0.1,1.1-0.3,1.4-0.5C25.8,7.6,26,7.4,26.2,7c0.2-0.3,0.3-0.8,0.4-1.3
			c0.1-0.6,0.2-1.2,0.2-2.1h3.7v3.8h4.4v1.9h-4.4v6.9c0,1.2,0.1,2,0.2,2.6c0.1,0.6,0.3,1,0.5,1.2c0.3,0.3,0.6,0.4,1,0.4
			c0.3,0,0.5,0,0.8-0.1c0.2-0.1,0.5-0.1,0.7-0.3c0.3-0.1,0.5-0.3,0.8-0.6L35.4,20.8z"/>
		<path class="st0" d="M43.1,1.7c1.7,0,3.1,0.1,4.3,0.4c1.1,0.3,2.2,0.7,3.1,1.3c0.9,0.6,1.6,1.3,2.2,2.1c0.5,0.8,1,1.7,1.2,2.8
			c0.3,1.1,0.4,2.2,0.4,3.6c0,1.6-0.2,3-0.6,4.3c-0.4,1.3-0.9,2.4-1.7,3.3c-0.7,0.8-1.5,1.5-2.5,2c-1,0.5-2.1,0.9-3.3,1.1
			c-1.1,0.2-2.5,0.3-4.1,0.3h-7v-1c0.4-0.1,0.7-0.2,0.9-0.3c0.2-0.1,0.4-0.3,0.5-0.5s0.2-0.5,0.2-0.8c0-0.3,0-0.7,0-1.2V5.6
			c0-0.5,0-0.9,0-1.2c0-0.3-0.1-0.6-0.2-0.8c-0.1-0.2-0.3-0.4-0.5-0.5c-0.2-0.1-0.5-0.2-0.9-0.3v-1H43.1z M41.5,20.8
			c0.2,0,0.7,0,1.4,0c1.1,0,2.1-0.2,2.8-0.5c0.6-0.2,1.1-0.6,1.5-1c0.7-0.7,1.2-1.6,1.5-2.8c0.4-1.2,0.6-2.7,0.6-4.5
			c0-1.9-0.3-3.6-0.8-4.8C47.9,6,47.2,5,46.3,4.4s-2.1-0.9-3.4-0.9c-0.6,0-1.1,0-1.4,0V20.8z"/>
		<path class="st0" d="M64.7,20.7l-0.2-0.1c-0.8,0.8-1.7,1.4-2.5,1.8c-0.8,0.4-1.6,0.6-2.5,0.6c-0.9,0-1.6-0.2-2.3-0.5
			c-0.7-0.3-1.1-0.8-1.5-1.3c-0.3-0.6-0.5-1.2-0.5-2c0-1.5,0.7-2.7,2.2-3.6c1.5-0.9,3.7-1.4,6.7-1.6v-1.5c0-1-0.1-1.7-0.3-2.2
			c-0.2-0.5-0.5-0.9-0.8-1.1c-0.3-0.2-0.7-0.3-1.2-0.3c-0.5,0-0.9,0.1-1.2,0.2C60.3,9.3,60,9.6,59.7,10c-0.3,0.5-0.5,1.1-0.6,1.9
			h-2.9V9.1c0.9-0.4,1.7-0.7,2.4-1c0.6-0.2,1.2-0.4,1.9-0.6C61,7.4,61.5,7.3,62,7.3c0.5-0.1,1-0.1,1.4-0.1c1.2,0,2.2,0.2,3,0.5
			c0.7,0.3,1.3,0.9,1.7,1.6c0.4,0.7,0.6,1.8,0.6,3.1v6c0,0.7,0,1.2,0,1.6c0,0.4,0.1,0.6,0.1,0.8c0.1,0.2,0.2,0.3,0.3,0.4
			c0.1,0.1,0.2,0.2,0.4,0.3c0.1,0.1,0.4,0.2,0.8,0.3v1h-5.7L64.7,20.7z M64.2,15.4c-1.6,0-2.8,0.3-3.5,0.9c-0.8,0.6-1.1,1.4-1.1,2.4
			c0,0.6,0.2,1.1,0.5,1.5c0.3,0.3,0.8,0.5,1.4,0.5c0.5,0,0.9-0.1,1.3-0.4c0.4-0.3,0.8-0.6,1-1c0.2-0.4,0.4-0.9,0.4-1.3V15.4z"/>
		<path class="st0" d="M71,21.7c0.5-0.1,0.8-0.3,1-0.5c0.2-0.2,0.3-0.5,0.4-0.9c0.1-0.4,0.1-1,0.1-2v-7.1c0-0.5,0-0.9-0.1-1.2
			c0-0.3-0.1-0.6-0.3-0.7c-0.1-0.2-0.3-0.3-0.5-0.4c-0.2-0.1-0.5-0.2-0.9-0.3v-1l4.2-0.1H77v10.9c0,0.6,0,1,0,1.3
			c0,0.3,0,0.6,0.1,0.7c0,0.2,0.1,0.3,0.1,0.5c0.1,0.1,0.1,0.3,0.2,0.4c0.1,0.1,0.2,0.2,0.4,0.3c0.2,0.1,0.4,0.2,0.7,0.2v1H71V21.7z
			 M76.9,1.3v3.8h-4.2V1.3H76.9z"/>
		<path class="st0" d="M85.2,18.2c0,1,0,1.6,0.1,2c0.1,0.4,0.2,0.7,0.4,0.9c0.2,0.2,0.5,0.4,1.1,0.5v1h-7.5v-1
			c0.3-0.1,0.5-0.2,0.7-0.3c0.2-0.1,0.3-0.2,0.4-0.3c0.1-0.1,0.2-0.3,0.3-0.5c0.1-0.2,0.1-0.5,0.1-0.8c0-0.4,0-0.9,0-1.5v-12
			c0-0.9,0-1.5,0-1.9c0-0.4,0-0.8-0.1-1c0-0.3-0.1-0.5-0.2-0.7c-0.1-0.2-0.3-0.3-0.5-0.4c-0.2-0.1-0.5-0.2-0.9-0.3v-1l4.3-0.2h1.9
			V18.2z"/>
		<path class="st0" d="M94.7,23.4c-0.7,1.5-1.3,2.7-1.9,3.5c-0.6,0.8-1.2,1.5-1.9,1.9c-0.7,0.4-1.5,0.6-2.5,0.6
			c-0.8,0-1.5-0.1-2.2-0.3v-3.5h1.7c0.1,0.5,0.3,0.8,0.5,1c0.2,0.2,0.5,0.3,0.8,0.3c0.4,0,0.7-0.1,1.1-0.3c0.3-0.2,0.7-0.6,1.1-1.2
			c0.4-0.6,0.9-1.5,1.5-2.6h-0.9l-4-11.5c-0.3-0.8-0.5-1.4-0.7-1.7c-0.2-0.3-0.4-0.5-0.6-0.7s-0.5-0.3-0.8-0.3v-1h7.7v1
			c-0.5,0.1-0.8,0.2-1.1,0.4c-0.2,0.2-0.3,0.5-0.3,0.8c0,0.5,0.1,1.1,0.4,1.9l2.2,6.7l2.4-5.9c0.2-0.5,0.4-0.9,0.5-1.3
			c0.1-0.4,0.2-0.7,0.2-1.1c0-0.4-0.1-0.8-0.4-1.1c-0.2-0.3-0.6-0.5-1-0.5v-1h6v1c-0.3,0.1-0.5,0.2-0.7,0.3
			c-0.2,0.1-0.3,0.3-0.5,0.5c-0.2,0.2-0.4,0.5-0.6,1c-0.2,0.4-0.5,1.1-0.9,1.9L94.7,23.4z"/>
	</g>
</g>
<g>
	<g>
		<path class="st0" d="M72.5,28.8h2.9l-0.1,0.5c-0.2,0-0.4,0.1-0.5,0.2c-0.1,0.1-0.2,0.2-0.3,0.3c-0.1,0.1-0.2,0.3-0.2,0.6
			c-0.1,0.3-0.2,0.7-0.3,1.3l-1.6,7.2c-0.1,0.4-0.1,0.7-0.2,0.9c0,0.2,0,0.4,0,0.6c0,0.3,0.1,0.5,0.2,0.6c0.1,0.1,0.4,0.2,0.7,0.2
			L73,41.3h-3.7l0.1-0.5c0.2,0,0.4-0.1,0.5-0.2c0.1-0.1,0.2-0.2,0.3-0.3s0.2-0.3,0.2-0.5c0.1-0.2,0.2-0.6,0.3-1.2L72,33
			c0.2-0.7,0.4-1.5,0.6-2.4h-0.1c-0.2,0.3-0.4,0.6-0.5,1c-0.2,0.3-0.4,0.7-0.8,1.3l-4.2,6.9h-1L65,33l-0.2-2.5h-0.2
			c-0.2,1.5-0.5,2.8-0.7,3.9l-0.9,4c-0.1,0.5-0.2,0.8-0.2,1c0,0.2,0,0.4,0,0.6c0,0.3,0.1,0.5,0.2,0.6c0.1,0.1,0.4,0.2,0.7,0.2
			l-0.1,0.5h-3.2l0.1-0.5c0.2,0,0.4-0.1,0.5-0.2c0.1-0.1,0.2-0.2,0.3-0.3s0.2-0.3,0.2-0.5c0.1-0.2,0.2-0.6,0.3-1.2l1.6-7.1
			c0.1-0.3,0.1-0.5,0.1-0.8c0-0.2,0.1-0.5,0.1-0.7c0-0.3-0.1-0.5-0.2-0.6c-0.1-0.1-0.4-0.2-0.7-0.2l0.1-0.5h3.3l1.1,8.9L72.5,28.8z"
			/>
		<path class="st0" d="M75.4,32.5h2.9l-1.2,4.7c-0.1,0.3-0.2,0.7-0.2,1c-0.1,0.3-0.1,0.7-0.1,0.9c0,0.4,0.1,0.7,0.2,0.9
			c0.2,0.2,0.4,0.3,0.7,0.3c0.3,0,0.5-0.1,0.9-0.3s0.6-0.5,1-1c0.3-0.4,0.6-0.8,0.8-1.2c0.2-0.4,0.4-0.8,0.5-1.4l0.8-4h1.6l-1.4,6.3
			c0,0.2-0.1,0.4-0.1,0.7c0,0.3-0.1,0.5-0.1,0.7c0,0.3,0.1,0.4,0.2,0.5c0.1,0.1,0.4,0.2,0.8,0.2l-0.1,0.5H80l0.6-2.3l-0.1,0
			c-0.6,0.8-1.2,1.5-1.7,1.9c-0.6,0.4-1.1,0.6-1.7,0.6c-0.6,0-1-0.2-1.4-0.5c-0.3-0.3-0.5-0.8-0.5-1.5c0-0.2,0-0.4,0.1-0.7
			c0-0.2,0.1-0.5,0.1-0.8l0.8-3.3c0.1-0.3,0.1-0.5,0.1-0.6c0-0.2,0-0.3,0-0.4c0-0.3-0.1-0.5-0.2-0.6C76,33.1,75.7,33,75.3,33
			L75.4,32.5z"/>
		<path class="st0" d="M89.2,34.7c-0.1-0.6-0.2-1-0.5-1.2c-0.2-0.2-0.6-0.4-1.2-0.4c-0.3,0-0.5,0.1-0.8,0.2
			c-0.2,0.1-0.4,0.3-0.6,0.5c-0.1,0.2-0.2,0.4-0.2,0.7c0,0.2,0,0.4,0.1,0.6c0.1,0.2,0.2,0.4,0.5,0.6c0.2,0.2,0.5,0.4,0.9,0.7
			c0.6,0.4,1,0.8,1.3,1.2c0.2,0.4,0.4,0.8,0.4,1.3c0,0.6-0.1,1.1-0.4,1.5c-0.3,0.4-0.7,0.7-1.1,0.9c-0.5,0.2-1,0.3-1.6,0.3
			c-0.5,0-1,0-1.5-0.1c-0.5-0.1-0.9-0.2-1.4-0.3l0.4-2h0.7c0,0.6,0.2,1,0.5,1.3c0.3,0.3,0.7,0.4,1.2,0.4c0.5,0,1-0.1,1.3-0.4
			c0.3-0.3,0.5-0.6,0.5-1.1c0-0.3,0-0.5-0.1-0.7c-0.1-0.2-0.2-0.4-0.4-0.6c-0.2-0.2-0.5-0.4-0.8-0.7c-0.4-0.3-0.7-0.5-0.9-0.7
			c-0.2-0.2-0.4-0.5-0.6-0.8s-0.2-0.6-0.2-0.9c0-0.5,0.1-1,0.4-1.3c0.3-0.4,0.6-0.7,1.1-0.9c0.5-0.2,1-0.3,1.6-0.3
			c1,0,1.9,0.1,2.7,0.4L90,34.7H89.2z"/>
		<path class="st0" d="M92.3,39c-0.1,0.3-0.1,0.5-0.1,0.7c0,0.1,0,0.3,0,0.4c0,0.2,0,0.3,0.1,0.4c0.1,0.1,0.2,0.2,0.3,0.2
			c0.1,0.1,0.3,0.1,0.6,0.1l-0.1,0.5h-2.9l1.4-6.2c0.1-0.4,0.1-0.6,0.2-0.9c0-0.2,0-0.4,0-0.5c0-0.2,0-0.3-0.1-0.4
			c-0.1-0.1-0.1-0.2-0.3-0.2c-0.1,0-0.3-0.1-0.6-0.1l0.1-0.5l2.2-0.1h0.5L92.3,39z M94.6,28.9l-0.4,1.8h-1.6l0.4-1.8H94.6z"/>
		<path class="st0" d="M100.4,34.7c0-0.5-0.1-0.8-0.1-1c-0.1-0.2-0.2-0.4-0.3-0.5c-0.1-0.1-0.3-0.2-0.6-0.2c-0.6,0-1.2,0.2-1.7,0.7
			c-0.5,0.5-0.9,1.2-1.2,2.1S96,37.7,96,38.6c0,0.3,0,0.5,0.1,0.7c0,0.2,0.1,0.4,0.2,0.6c0.1,0.2,0.3,0.3,0.5,0.4
			c0.2,0.1,0.4,0.1,0.7,0.1c0.6,0,1-0.1,1.5-0.3c0.4-0.2,0.8-0.5,1.3-1l0.6,0.6c-0.6,0.6-1.2,1.1-1.7,1.4c-0.6,0.3-1.2,0.4-1.9,0.4
			c-0.9,0-1.6-0.3-2-0.8c-0.5-0.5-0.7-1.3-0.7-2.3c0-0.7,0.1-1.4,0.4-2.2c0.2-0.8,0.6-1.5,1.1-2.1c0.5-0.6,1-1,1.7-1.3
			c0.6-0.3,1.3-0.4,2-0.4c0.5,0,0.9,0,1.3,0.1c0.4,0.1,0.7,0.1,1,0.2l-0.5,2.1H100.4z"/>
	</g>
</g>
</svg>
