<?xml version="1.0" encoding="utf-8"?>
<!-- Generator: Adobe Illustrator 19.0.0, SVG Export Plug-In . SVG Version: 6.00 Build 0)  -->
<svg version="1.1" id="Layer_1" xmlns="http://www.w3.org/2000/svg" xmlns:xlink="http://www.w3.org/1999/xlink" x="0px" y="0px"
	 viewBox="0 0 46.7 19.3" style="enable-background:new 0 0 46.7 19.3;" xml:space="preserve">
<style type="text/css">
	.st0{fill:#FFFFFF;}
</style>
<g>
	<path class="st0" d="M3.8,8.1c0,0.2,0,0.4,0,0.6s0,0.2,0.1,0.3S3.9,9.1,4,9.1c0.1,0,0.1,0.1,0.2,0.1s0.2,0.1,0.4,0.1v0.5H0.9V9.3
		c0.2,0,0.3-0.1,0.4-0.1S1.5,9.1,1.5,9s0.1-0.2,0.1-0.4s0-0.3,0-0.5V2.2c0-0.2,0-0.4,0-0.5s0-0.3-0.1-0.4S1.4,1.1,1.3,1.1
		S1.1,1,0.9,0.9V0.5h6.6v2.2H6.6C6.4,2.2,6.3,1.9,6.2,1.8S6,1.5,5.8,1.4S5.4,1.3,5.1,1.3H3.8v3.5h0.9c0.2,0,0.4,0,0.5-0.1
		s0.2-0.2,0.3-0.3s0.1-0.4,0.2-0.7h0.8v3H5.6C5.5,6.3,5.5,6.1,5.4,6S5.2,5.7,5.1,5.6S4.8,5.5,4.6,5.5H3.8V8.1z"/>
	<path class="st0" d="M7.8,9.3c0.2-0.1,0.4-0.1,0.5-0.2s0.1-0.2,0.2-0.4s0-0.5,0-0.9V4.6c0-0.2,0-0.4,0-0.5c0-0.1-0.1-0.2-0.1-0.3
		S8.2,3.6,8.1,3.6S7.9,3.5,7.8,3.5V3L9.6,3h0.9v4.9c0,0.3,0,0.5,0,0.6s0,0.2,0,0.3s0,0.1,0.1,0.2s0.1,0.1,0.1,0.2s0.1,0.1,0.2,0.1
		s0.2,0.1,0.3,0.1v0.5H7.8V9.3z M10.4,0.3V2H8.6V0.3H10.4z"/>
	<path class="st0" d="M16.2,9c-0.4,0.3-0.8,0.6-1.1,0.7s-0.7,0.2-1,0.2c-0.7,0-1.2-0.2-1.5-0.6s-0.5-0.9-0.5-1.7V3.9h-0.9V3.4
		c0.3,0,0.5-0.1,0.6-0.2s0.2-0.2,0.3-0.4s0.1-0.4,0.2-0.6s0.1-0.6,0.1-0.9h1.6V3H16v0.9h-1.9v3.1c0,0.5,0,0.9,0.1,1.1
		c0,0.2,0.1,0.4,0.2,0.5s0.3,0.2,0.4,0.2c0.1,0,0.2,0,0.3,0s0.2-0.1,0.3-0.1s0.2-0.1,0.4-0.3L16.2,9z"/>
	<path class="st0" d="M19.6,0.5c0.8,0,1.4,0.1,1.9,0.2s1,0.3,1.4,0.6s0.7,0.6,1,0.9s0.4,0.8,0.5,1.2s0.2,1,0.2,1.6
		c0,0.7-0.1,1.3-0.2,1.9s-0.4,1-0.7,1.4c-0.3,0.4-0.7,0.7-1.1,0.9S21.5,9.6,21,9.7c-0.5,0.1-1.1,0.1-1.8,0.1H16V9.3
		c0.2,0,0.3-0.1,0.4-0.1s0.2-0.1,0.2-0.2s0.1-0.2,0.1-0.4s0-0.3,0-0.5V2.2c0-0.2,0-0.4,0-0.5s0-0.3-0.1-0.4s-0.1-0.2-0.2-0.2
		S16.2,1,16,0.9V0.5H19.6z M18.9,9c0.1,0,0.3,0,0.6,0c0.5,0,0.9-0.1,1.3-0.2c0.3-0.1,0.5-0.3,0.6-0.5c0.3-0.3,0.5-0.7,0.7-1.2
		c0.2-0.5,0.2-1.2,0.2-2c0-0.9-0.1-1.6-0.3-2.2s-0.6-1-1-1.3s-0.9-0.4-1.5-0.4c-0.3,0-0.5,0-0.6,0V9z"/>
	<path class="st0" d="M29.2,8.9l-0.1,0c-0.4,0.4-0.7,0.6-1.1,0.8s-0.7,0.2-1.1,0.2c-0.4,0-0.7-0.1-1-0.2s-0.5-0.3-0.7-0.6
		S25,8.5,25,8.2c0-0.7,0.3-1.2,1-1.6s1.7-0.6,3-0.7V5.2c0-0.4,0-0.8-0.1-1s-0.2-0.4-0.4-0.5s-0.3-0.1-0.5-0.1s-0.4,0-0.5,0.1
		S27.1,4,26.9,4.2c-0.1,0.2-0.2,0.5-0.3,0.8h-1.3V3.8c0.4-0.2,0.8-0.3,1-0.4s0.6-0.2,0.8-0.2S27.8,3,28,2.9s0.4,0,0.6,0
		c0.6,0,1,0.1,1.3,0.2s0.6,0.4,0.7,0.7s0.2,0.8,0.2,1.4v2.7c0,0.3,0,0.5,0,0.7s0,0.3,0.1,0.4s0.1,0.1,0.1,0.2s0.1,0.1,0.2,0.1
		s0.2,0.1,0.4,0.1v0.5h-2.5L29.2,8.9z M29,6.6c-0.7,0-1.2,0.2-1.6,0.4S26.9,7.6,26.9,8c0,0.3,0.1,0.5,0.2,0.6s0.4,0.2,0.6,0.2
		c0.2,0,0.4-0.1,0.6-0.2s0.3-0.3,0.4-0.4S29,7.9,29,7.7V6.6z"/>
	<path class="st0" d="M31.9,9.3c0.2-0.1,0.4-0.1,0.5-0.2s0.1-0.2,0.2-0.4s0-0.5,0-0.9V4.6c0-0.2,0-0.4,0-0.5c0-0.1-0.1-0.2-0.1-0.3
		s-0.1-0.1-0.2-0.2S32,3.5,31.8,3.5V3L33.7,3h0.9v4.9c0,0.3,0,0.5,0,0.6s0,0.2,0,0.3s0,0.1,0.1,0.2s0.1,0.1,0.1,0.2s0.1,0.1,0.2,0.1
		s0.2,0.1,0.3,0.1v0.5h-3.3V9.3z M34.5,0.3V2h-1.9V0.3H34.5z"/>
	<path class="st0" d="M38.2,7.8c0,0.4,0,0.7,0,0.9s0.1,0.3,0.2,0.4s0.2,0.2,0.5,0.2v0.5h-3.3V9.3c0.1,0,0.2-0.1,0.3-0.1
		S36,9.1,36,9.1s0.1-0.1,0.1-0.2s0.1-0.2,0.1-0.4s0-0.4,0-0.7V2.5c0-0.4,0-0.7,0-0.9s0-0.3,0-0.5s-0.1-0.2-0.1-0.3s-0.1-0.1-0.2-0.2
		s-0.2-0.1-0.4-0.1V0.1L37.3,0h0.9V7.8z"/>
	<path class="st0" d="M42.3,10.1c-0.3,0.7-0.6,1.2-0.8,1.6s-0.5,0.7-0.8,0.8s-0.7,0.3-1.1,0.3c-0.3,0-0.7,0-1-0.1v-1.6h0.8
		c0.1,0.2,0.1,0.4,0.2,0.4s0.2,0.1,0.4,0.1c0.2,0,0.3,0,0.5-0.1s0.3-0.3,0.5-0.5s0.4-0.7,0.6-1.2h-0.4l-1.8-5.1
		C39.2,4.3,39.1,4,39,3.9c-0.1-0.1-0.2-0.2-0.3-0.3s-0.2-0.1-0.3-0.1V3h3.4v0.5c-0.2,0-0.4,0.1-0.5,0.2S41.2,3.8,41.2,4
		c0,0.2,0.1,0.5,0.2,0.9l1,3l1.1-2.6c0.1-0.2,0.2-0.4,0.2-0.6s0.1-0.3,0.1-0.5c0-0.2-0.1-0.3-0.2-0.5s-0.3-0.2-0.5-0.2V3h2.7v0.5
		c-0.1,0-0.2,0.1-0.3,0.2s-0.2,0.1-0.2,0.2S45.1,4.1,45,4.3s-0.2,0.5-0.4,0.9L42.3,10.1z"/>
</g>
<g>
	<path class="st0" d="M37.4,13h1.2l0,0.2c-0.1,0-0.2,0-0.2,0.1s-0.1,0.1-0.1,0.1s-0.1,0.1-0.1,0.2s-0.1,0.3-0.1,0.5l-0.7,3
		c0,0.2-0.1,0.3-0.1,0.4s0,0.2,0,0.2c0,0.1,0,0.2,0.1,0.2s0.2,0.1,0.3,0.1l0,0.2h-1.6l0-0.2c0.1,0,0.2,0,0.2-0.1s0.1-0.1,0.1-0.1
		s0.1-0.1,0.1-0.2s0.1-0.3,0.1-0.5l0.5-2.4c0.1-0.3,0.2-0.6,0.3-1h-0.1c-0.1,0.1-0.2,0.3-0.2,0.4s-0.2,0.3-0.3,0.6l-1.8,2.9h-0.4
		l-0.4-2.9l-0.1-1.1h-0.1c-0.1,0.7-0.2,1.2-0.3,1.7l-0.4,1.7c0,0.2-0.1,0.3-0.1,0.4s0,0.2,0,0.3c0,0.1,0,0.2,0.1,0.2
		s0.2,0.1,0.3,0.1l0,0.2h-1.4l0-0.2c0.1,0,0.2,0,0.2-0.1s0.1-0.1,0.1-0.1s0.1-0.1,0.1-0.2s0.1-0.3,0.1-0.5l0.7-3
		c0-0.1,0-0.2,0.1-0.3s0-0.2,0-0.3c0-0.1,0-0.2-0.1-0.3s-0.2-0.1-0.3-0.1l0-0.2h1.4l0.4,3.8L37.4,13z"/>
	<path class="st0" d="M41.2,17.6c-0.2,0.2-0.4,0.4-0.6,0.5s-0.4,0.2-0.5,0.3s-0.4,0.1-0.6,0.1c-0.2,0-0.4,0-0.5-0.1
		s-0.3-0.2-0.4-0.3s-0.2-0.3-0.2-0.4s-0.1-0.3-0.1-0.5c0-0.3,0-0.6,0.2-0.9c0.1-0.3,0.3-0.6,0.5-0.9s0.4-0.5,0.7-0.6
		s0.6-0.2,0.9-0.2c0.3,0,0.6,0.1,0.7,0.2s0.2,0.3,0.2,0.6c0,0.4-0.2,0.8-0.6,1s-1,0.3-1.8,0.3c0,0.2,0,0.3,0,0.5
		c0,0.3,0.1,0.5,0.2,0.6s0.3,0.2,0.5,0.2c0.2,0,0.5-0.1,0.7-0.2s0.4-0.3,0.6-0.5L41.2,17.6z M39.2,16.3c0.2,0,0.5,0,0.6,0
		s0.3-0.1,0.5-0.1s0.2-0.1,0.3-0.2c0.1-0.1,0.2-0.1,0.2-0.2s0.1-0.1,0.1-0.2s0-0.2,0-0.2c0-0.2,0-0.3-0.1-0.4s-0.2-0.1-0.3-0.1
		c-0.2,0-0.4,0.1-0.5,0.2s-0.3,0.3-0.5,0.5S39.2,16.1,39.2,16.3z"/>
	<path class="st0" d="M45,18.4h-1.2l0.5-2c0-0.1,0.1-0.3,0.1-0.4c0-0.2,0-0.3,0-0.4c0-0.2,0-0.3-0.1-0.4S44.2,15,44,15
		c-0.1,0-0.2,0-0.4,0.1s-0.3,0.2-0.4,0.4S43,15.9,42.9,16c-0.1,0.2-0.2,0.4-0.2,0.6l-0.4,1.7h-0.7l0.6-2.7c0-0.1,0-0.1,0.1-0.3
		s0-0.2,0-0.3c0-0.1,0-0.1,0-0.2s-0.1-0.1-0.1-0.1s-0.1,0-0.3,0l0-0.2l0.9,0h0.2l-0.3,1l0,0c0.3-0.4,0.5-0.6,0.7-0.8
		s0.5-0.3,0.7-0.3c0.3,0,0.4,0.1,0.6,0.2s0.2,0.3,0.2,0.6c0,0.1,0,0.2,0,0.3s0,0.2-0.1,0.3l-0.3,1.4c0,0.2-0.1,0.3-0.1,0.4
		c0,0.1,0,0.1,0,0.2s0.1,0.1,0.1,0.1s0.1,0,0.3,0.1L45,18.4z"/>
</g>
</svg>
