<?xml version="1.0" encoding="utf-8"?>
<!-- Generator: Adobe Illustrator 19.0.0, SVG Export Plug-In . SVG Version: 6.00 Build 0)  -->
<svg version="1.1" id="Layer_1" xmlns="http://www.w3.org/2000/svg" xmlns:xlink="http://www.w3.org/1999/xlink" x="0px" y="0px"
	 viewBox="0 0 11.8 6.2" style="enable-background:new 0 0 11.8 6.2;" xml:space="preserve">
<style type="text/css">
	.st0{fill:#FFFFFF;}
</style>
<g>
	<path class="st0" d="M-28.7-3.9c0,0.2,0,0.4,0,0.6s0,0.2,0.1,0.3s0.1,0.1,0.1,0.2s0.1,0.1,0.2,0.1s0.2,0.1,0.4,0.1v0.5h-3.7v-0.5
		c0.2,0,0.3-0.1,0.4-0.1S-31-2.9-30.9-3s0.1-0.2,0.1-0.4s0-0.3,0-0.5v-5.9c0-0.2,0-0.4,0-0.5s0-0.3-0.1-0.4s-0.1-0.2-0.2-0.2
		s-0.2-0.1-0.4-0.2v-0.5h6.6v2.2h-0.9c-0.2-0.4-0.3-0.7-0.4-0.9s-0.2-0.3-0.4-0.4s-0.4-0.1-0.7-0.1h-1.3v3.5h0.9
		c0.2,0,0.4,0,0.5-0.1s0.2-0.2,0.3-0.3s0.1-0.4,0.2-0.7h0.8v3h-0.8C-26.9-5.7-27-5.9-27.1-6s-0.2-0.3-0.3-0.3s-0.3-0.1-0.5-0.1h-0.9
		V-3.9z"/>
	<path class="st0" d="M-24.6-2.7c0.2-0.1,0.4-0.1,0.5-0.2S-24-3.1-24-3.3s0-0.5,0-0.9v-3.2c0-0.2,0-0.4,0-0.5s-0.1-0.2-0.1-0.3
		s-0.1-0.1-0.2-0.2s-0.2-0.1-0.4-0.1V-9l1.9-0.1h0.9v4.9c0,0.3,0,0.5,0,0.6s0,0.2,0,0.3s0,0.1,0.1,0.2s0.1,0.1,0.1,0.2
		s0.1,0.1,0.2,0.1s0.2,0.1,0.3,0.1v0.5h-3.3V-2.7z M-22-11.7v1.7h-1.9v-1.7H-22z"/>
	<path class="st0" d="M-16.2-3c-0.4,0.3-0.8,0.6-1.1,0.7s-0.7,0.2-1,0.2c-0.7,0-1.2-0.2-1.5-0.6s-0.5-0.9-0.5-1.7v-3.8h-0.9v-0.5
		c0.3,0,0.5-0.1,0.6-0.2s0.2-0.2,0.3-0.4s0.1-0.4,0.2-0.6s0.1-0.6,0.1-0.9h1.6V-9h1.9v0.9h-1.9v3.1c0,0.5,0,0.9,0.1,1.1
		s0.1,0.4,0.2,0.5s0.3,0.2,0.4,0.2c0.1,0,0.2,0,0.3,0s0.2-0.1,0.3-0.1s0.2-0.1,0.4-0.3L-16.2-3z"/>
	<path class="st0" d="M-12.9-11.5c0.8,0,1.4,0.1,1.9,0.2s1,0.3,1.4,0.6s0.7,0.6,1,0.9s0.4,0.8,0.5,1.2s0.2,1,0.2,1.6
		c0,0.7-0.1,1.3-0.2,1.9s-0.4,1-0.7,1.4C-9.2-3.4-9.6-3.1-10-2.8s-0.9,0.4-1.5,0.5c-0.5,0.1-1.1,0.1-1.8,0.1h-3.1v-0.5
		c0.2,0,0.3-0.1,0.4-0.1s0.2-0.1,0.2-0.2s0.1-0.2,0.1-0.4s0-0.3,0-0.5v-5.9c0-0.2,0-0.4,0-0.5s0-0.3-0.1-0.4s-0.1-0.2-0.2-0.2
		s-0.2-0.1-0.4-0.2v-0.5H-12.9z M-13.6-3c0.1,0,0.3,0,0.6,0c0.5,0,0.9-0.1,1.3-0.2c0.3-0.1,0.5-0.3,0.6-0.5c0.3-0.3,0.5-0.7,0.7-1.2
		c0.2-0.5,0.2-1.2,0.2-2c0-0.9-0.1-1.6-0.3-2.2s-0.6-1-1-1.3s-0.9-0.4-1.5-0.4c-0.3,0-0.5,0-0.6,0V-3z"/>
	<path class="st0" d="M-3.3-3.1l-0.1,0c-0.4,0.4-0.7,0.6-1.1,0.8s-0.7,0.2-1.1,0.2c-0.4,0-0.7-0.1-1-0.2s-0.5-0.3-0.7-0.6
		s-0.2-0.5-0.2-0.9c0-0.7,0.3-1.2,1-1.6s1.7-0.6,3-0.7v-0.6c0-0.4,0-0.8-0.1-1S-3.9-8.1-4-8.2s-0.3-0.1-0.5-0.1s-0.4,0-0.5,0.1
		S-5.4-8-5.5-7.8S-5.7-7.4-5.8-7h-1.3v-1.2c0.4-0.2,0.8-0.3,1-0.4s0.6-0.2,0.8-0.2S-4.7-9-4.5-9.1s0.4,0,0.6,0c0.6,0,1,0.1,1.3,0.2
		S-2-8.5-1.8-8.2s0.2,0.8,0.2,1.4v2.7c0,0.3,0,0.5,0,0.7s0,0.3,0.1,0.4s0.1,0.1,0.1,0.2s0.1,0.1,0.2,0.1S-1-2.7-0.8-2.7v0.5h-2.5
		L-3.3-3.1z M-3.5-5.4c-0.7,0-1.2,0.2-1.6,0.4S-5.6-4.4-5.6-4c0,0.3,0.1,0.5,0.2,0.6S-5-3.1-4.7-3.1c0.2,0,0.4-0.1,0.6-0.2
		s0.3-0.3,0.4-0.4s0.2-0.4,0.2-0.6V-5.4z"/>
	<path class="st0" d="M-0.5-2.7c0.2-0.1,0.4-0.1,0.5-0.2s0.1-0.2,0.2-0.4s0-0.5,0-0.9v-3.2c0-0.2,0-0.4,0-0.5S0-8.1,0-8.2
		s-0.1-0.1-0.2-0.2s-0.2-0.1-0.4-0.1V-9L1.3-9h0.9v4.9c0,0.3,0,0.5,0,0.6s0,0.2,0,0.3s0,0.1,0.1,0.2S2.3-3,2.3-2.9s0.1,0.1,0.2,0.1
		s0.2,0.1,0.3,0.1v0.5h-3.3V-2.7z M2.1-11.7v1.7H0.2v-1.7H2.1z"/>
	<path class="st0" d="M5.7-4.2c0,0.4,0,0.7,0,0.9S5.8-3,5.9-2.9s0.2,0.2,0.5,0.2v0.5H3.1v-0.5c0.1,0,0.2-0.1,0.3-0.1
		s0.1-0.1,0.2-0.2s0.1-0.1,0.1-0.2s0.1-0.2,0.1-0.4s0-0.4,0-0.7v-5.3c0-0.4,0-0.7,0-0.9s0-0.3,0-0.5s-0.1-0.2-0.1-0.3
		s-0.1-0.1-0.2-0.2S3.2-11.4,3-11.5v-0.5L4.9-12h0.9V-4.2z"/>
	<path class="st0" d="M9.9-1.9C9.6-1.2,9.3-0.7,9-0.3S8.5,0.3,8.2,0.5S7.5,0.8,7,0.8c-0.3,0-0.7,0-1-0.1v-1.6h0.8
		C6.9-0.7,7-0.6,7.1-0.5s0.2,0.1,0.4,0.1c0.2,0,0.3,0,0.5-0.1S8.2-0.8,8.4-1S8.8-1.7,9-2.2H8.6L6.9-7.3C6.7-7.7,6.6-8,6.6-8.1
		S6.4-8.3,6.3-8.4S6.1-8.5,6-8.5V-9h3.4v0.5C9.2-8.5,9-8.4,8.9-8.4S8.7-8.2,8.7-8c0,0.2,0.1,0.5,0.2,0.9l1,3L11-6.8
		c0.1-0.2,0.2-0.4,0.2-0.6s0.1-0.3,0.1-0.5c0-0.2-0.1-0.3-0.2-0.5s-0.3-0.2-0.5-0.2V-9h2.7v0.5c-0.1,0-0.2,0.1-0.3,0.2
		s-0.2,0.1-0.2,0.2s-0.2,0.2-0.3,0.4s-0.2,0.5-0.4,0.9L9.9-1.9z"/>
</g>
<g>
	<g>
		<path class="st0" d="M4.5,0h1.1l0,0.2c-0.1,0-0.1,0-0.2,0.1c0,0-0.1,0.1-0.1,0.1c0,0-0.1,0.1-0.1,0.2C5.1,0.6,5.1,0.8,5,1L4.5,3.7
			c0,0.1,0,0.2-0.1,0.3c0,0.1,0,0.1,0,0.2c0,0.1,0,0.2,0.1,0.2c0.1,0,0.1,0.1,0.3,0.1l0,0.2H3.3l0-0.2c0.1,0,0.2,0,0.2-0.1
			c0,0,0.1-0.1,0.1-0.1c0-0.1,0.1-0.1,0.1-0.2c0-0.1,0.1-0.2,0.1-0.5l0.5-2.1C4.4,1.3,4.4,1,4.5,0.7h0C4.4,0.8,4.3,1,4.3,1.1
			C4.2,1.2,4.1,1.3,4,1.6L2.4,4.1H2.1L1.7,1.6L1.6,0.6H1.6C1.5,1.2,1.4,1.7,1.3,2.1L1,3.6C1,3.8,0.9,3.9,0.9,4c0,0.1,0,0.2,0,0.2
			c0,0.1,0,0.2,0.1,0.2c0.1,0,0.1,0.1,0.3,0.1l0,0.2H0l0-0.2c0.1,0,0.2,0,0.2-0.1c0,0,0.1-0.1,0.1-0.1s0.1-0.1,0.1-0.2
			c0-0.1,0.1-0.2,0.1-0.5L1.1,1c0-0.1,0-0.2,0.1-0.3s0-0.2,0-0.3c0-0.1,0-0.2-0.1-0.2C1.1,0.2,1,0.2,0.9,0.2l0-0.2h1.2l0.4,3.3
			L4.5,0z"/>
		<path class="st0" d="M7.9,1.6l0.3-0.2l0.2,0.1L7.9,3.7C7.9,3.9,7.9,4,7.9,4c0,0.1,0,0.1,0,0.2c0,0.1,0,0.2,0.1,0.2
			c0.1,0,0.2,0.1,0.3,0.1l0,0.2h-1l0.2-0.9l0,0C7.2,4.1,7,4.3,6.8,4.5C6.6,4.6,6.4,4.7,6.1,4.7c-0.3,0-0.4-0.1-0.6-0.3
			S5.3,4,5.3,3.6c0-0.2,0-0.4,0.1-0.7c0-0.2,0.1-0.4,0.2-0.6C5.7,2.2,5.9,2,6,1.8c0.1-0.2,0.3-0.3,0.5-0.4s0.4-0.1,0.6-0.1
			c0.1,0,0.3,0,0.4,0C7.6,1.4,7.8,1.5,7.9,1.6z M7.6,2.6c0-0.1,0-0.2,0-0.2s0-0.1,0-0.2c0-0.2,0-0.3-0.1-0.4
			C7.5,1.7,7.3,1.6,7.2,1.6c-0.1,0-0.2,0-0.3,0c-0.1,0-0.2,0.1-0.3,0.2C6.5,1.9,6.5,2,6.4,2.1C6.3,2.2,6.2,2.3,6.2,2.5S6,2.9,6,3.1
			C6,3.2,6,3.4,6,3.6C6,3.8,6,4,6,4.1c0.1,0.1,0.2,0.2,0.3,0.2c0.1,0,0.1,0,0.2,0s0.2-0.1,0.3-0.2C6.9,4,7,3.9,7.2,3.7
			c0.1-0.2,0.2-0.3,0.3-0.5c0.1-0.1,0.1-0.3,0.2-0.5L7.6,2.6z"/>
		<path class="st0" d="M8.7,5c0,0.1-0.1,0.1-0.1,0.2c0,0.1-0.1,0.1-0.1,0.1s0,0.1,0,0.2c0,0.2,0.1,0.3,0.2,0.4
			C8.9,5.9,9,5.9,9.3,5.9c0.2,0,0.4,0,0.6-0.1s0.3-0.2,0.4-0.4c0.1-0.2,0.2-0.4,0.3-0.6c0.1-0.2,0.2-0.6,0.2-1l0,0
			c-0.2,0.3-0.4,0.5-0.6,0.7C9.9,4.6,9.7,4.7,9.5,4.7C9.2,4.7,9,4.6,8.9,4.4S8.7,4,8.7,3.6c0-0.3,0-0.5,0.1-0.7
			c0.1-0.2,0.2-0.5,0.3-0.7s0.3-0.4,0.4-0.5c0.1-0.1,0.3-0.2,0.5-0.3s0.3-0.1,0.5-0.1c0.1,0,0.3,0,0.4,0.1c0.1,0,0.3,0.1,0.4,0.2
			l0.3-0.2l0.2,0.1L11.4,3c0,0.1-0.1,0.2-0.1,0.4l-0.1,0.4c-0.1,0.5-0.2,0.9-0.3,1.1c-0.1,0.2-0.2,0.4-0.3,0.6
			c-0.1,0.1-0.2,0.3-0.3,0.4C10.2,6,10.1,6.1,9.9,6.1S9.5,6.2,9.3,6.2C8.4,6.2,8,5.9,8,5.4c0-0.1,0-0.2,0.1-0.3
			C8.2,5,8.3,4.9,8.5,4.8L8.7,5z M9.7,4.3c0.1,0,0.2,0,0.3-0.1s0.2-0.2,0.4-0.4s0.2-0.3,0.3-0.5s0.1-0.4,0.2-0.6
			C11,2.5,11,2.3,11,2.1c0-0.2,0-0.3-0.1-0.4c-0.1-0.1-0.2-0.1-0.4-0.1c-0.1,0-0.2,0-0.3,0c-0.1,0-0.2,0.1-0.3,0.2
			C9.9,1.9,9.8,2,9.7,2.1C9.6,2.2,9.6,2.3,9.5,2.5S9.4,2.9,9.3,3.1c0,0.2-0.1,0.4-0.1,0.6c0,0.2,0,0.4,0.1,0.5
			C9.5,4.3,9.6,4.3,9.7,4.3z"/>
	</g>
</g>
</svg>
