<?xml version="1.0" encoding="utf-8"?>
<!-- Generator: Adobe Illustrator 19.0.0, SVG Export Plug-In . SVG Version: 6.00 Build 0)  -->
<svg version="1.1" id="Layer_1" xmlns="http://www.w3.org/2000/svg" xmlns:xlink="http://www.w3.org/1999/xlink" x="0px" y="0px"
	 viewBox="0 0 90.1 42.2" style="enable-background:new 0 0 90.1 42.2;" xml:space="preserve">
<style type="text/css">
	.st0{fill:#FFFFFF;}
	.st1{fill:#F7971D;}
</style>
<g>
	<path class="st0" d="M6.4,16.1c0,0.5,0,0.8,0,1.1s0.1,0.5,0.1,0.6c0.1,0.2,0.2,0.3,0.3,0.4c0.1,0.1,0.2,0.2,0.4,0.3
		c0.2,0.1,0.4,0.1,0.8,0.2v0.9H0.7v-0.9c0.3-0.1,0.6-0.2,0.8-0.3c0.2-0.1,0.3-0.3,0.4-0.4c0.1-0.2,0.2-0.4,0.2-0.7
		c0-0.3,0-0.7,0-1.1V4.3c0-0.4,0-0.8,0-1.1C2.1,3,2.1,2.7,2,2.6C1.9,2.4,1.8,2.2,1.6,2.1C1.4,2,1.1,1.9,0.7,1.8V0.9h13.2v4.3h-1.9
		c-0.3-0.9-0.6-1.4-0.8-1.8c-0.2-0.3-0.5-0.5-0.7-0.7c-0.3-0.2-0.8-0.3-1.5-0.3H6.4v6.9h1.7c0.4,0,0.8-0.1,1-0.2s0.4-0.4,0.6-0.7
		c0.1-0.3,0.3-0.7,0.4-1.3h1.5v5.9h-1.5c-0.1-0.6-0.2-1-0.4-1.3c-0.2-0.3-0.3-0.5-0.6-0.7c-0.2-0.1-0.5-0.2-1-0.2H6.4V16.1z"/>
	<path class="st0" d="M14.6,18.6c0.4-0.1,0.8-0.3,0.9-0.5s0.3-0.4,0.3-0.8c0.1-0.3,0.1-0.9,0.1-1.8V9.2c0-0.4,0-0.8-0.1-1.1
		c0-0.3-0.1-0.5-0.2-0.7c-0.1-0.2-0.3-0.3-0.5-0.4C15,7.1,14.7,7,14.4,6.9V6l3.7-0.1h1.7v9.7c0,0.5,0,0.9,0,1.2c0,0.3,0,0.5,0.1,0.6
		c0,0.1,0.1,0.3,0.1,0.4c0,0.1,0.1,0.2,0.2,0.3c0.1,0.1,0.2,0.2,0.4,0.3c0.2,0.1,0.4,0.2,0.6,0.2v0.9h-6.6V18.6z M19.8,0.6v3.3H16
		V0.6H19.8z"/>
	<path class="st0" d="M31.3,17.9c-0.8,0.7-1.5,1.2-2.2,1.4c-0.7,0.3-1.3,0.4-2.1,0.4c-1.4,0-2.4-0.4-3-1.1c-0.7-0.7-1-1.8-1-3.3V7.7
		h-1.7V6.8c0.6-0.1,1-0.2,1.2-0.4c0.3-0.2,0.5-0.4,0.6-0.7c0.1-0.3,0.3-0.7,0.3-1.2c0.1-0.5,0.2-1.1,0.2-1.8h3.3V6h3.9v1.7h-3.9v6.1
		c0,1,0,1.8,0.1,2.3c0.1,0.5,0.3,0.9,0.5,1.1c0.2,0.2,0.5,0.3,0.8,0.3c0.3,0,0.5,0,0.7-0.1c0.2,0,0.4-0.1,0.6-0.2
		c0.2-0.1,0.5-0.3,0.7-0.5L31.3,17.9z"/>
	<path class="st0" d="M38,0.9c1.5,0,2.8,0.1,3.8,0.4c1,0.2,1.9,0.6,2.7,1.1c0.8,0.5,1.4,1.1,1.9,1.8c0.5,0.7,0.8,1.5,1.1,2.5
		c0.2,0.9,0.4,2,0.4,3.2c0,1.4-0.2,2.7-0.5,3.8c-0.3,1.1-0.8,2.1-1.5,2.9c-0.6,0.7-1.3,1.3-2.2,1.8c-0.9,0.5-1.8,0.8-3,1
		c-1,0.2-2.2,0.2-3.6,0.2h-6.2v-0.9c0.3-0.1,0.6-0.2,0.8-0.3c0.2-0.1,0.3-0.2,0.4-0.4c0.1-0.2,0.2-0.4,0.2-0.7c0-0.3,0-0.6,0-1.1
		V4.3c0-0.4,0-0.8,0-1.1c0-0.3-0.1-0.5-0.2-0.7c-0.1-0.2-0.2-0.3-0.4-0.4c-0.2-0.1-0.5-0.2-0.8-0.3V0.9H38z M36.6,17.9
		c0.2,0,0.6,0,1.2,0c1,0,1.8-0.1,2.5-0.4c0.5-0.2,0.9-0.5,1.3-0.9c0.6-0.6,1-1.4,1.3-2.4c0.3-1.1,0.5-2.4,0.5-4
		c0-1.7-0.2-3.2-0.7-4.3c-0.5-1.1-1.1-2-2-2.5c-0.8-0.5-1.8-0.8-3-0.8c-0.6,0-1,0-1.2,0V17.9z"/>
	<path class="st0" d="M57.1,17.7l-0.2-0.1c-0.7,0.7-1.5,1.3-2.2,1.6c-0.7,0.3-1.5,0.5-2.2,0.5c-0.8,0-1.5-0.1-2-0.4
		c-0.6-0.3-1-0.7-1.3-1.2c-0.3-0.5-0.4-1.1-0.4-1.8c0-1.3,0.7-2.4,2-3.2c1.3-0.8,3.3-1.3,6-1.5v-1.3c0-0.8-0.1-1.5-0.3-2
		c-0.2-0.5-0.4-0.8-0.7-1c-0.3-0.2-0.7-0.3-1.1-0.3c-0.4,0-0.8,0.1-1.1,0.2c-0.3,0.1-0.6,0.4-0.8,0.8c-0.2,0.4-0.4,1-0.5,1.7h-2.6
		V7.5c0.8-0.4,1.5-0.7,2.1-0.9c0.6-0.2,1.1-0.4,1.6-0.5c0.5-0.1,1-0.2,1.5-0.3c0.4-0.1,0.9-0.1,1.3-0.1c1.1,0,2,0.1,2.6,0.4
		c0.7,0.3,1.2,0.8,1.5,1.4c0.3,0.7,0.5,1.6,0.5,2.7v5.3c0,0.6,0,1.1,0,1.4c0,0.3,0.1,0.6,0.1,0.7s0.1,0.3,0.2,0.4
		c0.1,0.1,0.2,0.2,0.3,0.2c0.1,0.1,0.4,0.1,0.7,0.2v0.9H57L57.1,17.7z M56.6,13.1c-1.4,0-2.4,0.3-3.1,0.8c-0.7,0.5-1,1.2-1,2.2
		c0,0.6,0.2,1,0.5,1.3c0.3,0.3,0.7,0.4,1.3,0.4c0.4,0,0.8-0.1,1.2-0.3c0.4-0.2,0.7-0.5,0.9-0.9c0.2-0.4,0.3-0.8,0.3-1.2V13.1z"/>
	<path class="st0" d="M62.6,18.6c0.4-0.1,0.8-0.3,0.9-0.5c0.2-0.2,0.3-0.4,0.3-0.8c0.1-0.3,0.1-0.9,0.1-1.8V9.2c0-0.4,0-0.8-0.1-1.1
		c0-0.3-0.1-0.5-0.2-0.7c-0.1-0.2-0.3-0.3-0.5-0.4c-0.2-0.1-0.4-0.2-0.8-0.2V6l3.7-0.1h1.7v9.7c0,0.5,0,0.9,0,1.2
		c0,0.3,0,0.5,0.1,0.6c0,0.1,0.1,0.3,0.1,0.4c0,0.1,0.1,0.2,0.2,0.3c0.1,0.1,0.2,0.2,0.4,0.3c0.2,0.1,0.4,0.2,0.6,0.2v0.9h-6.6V18.6
		z M67.7,0.6v3.3H64V0.6H67.7z"/>
	<path class="st0" d="M75,15.6c0,0.9,0,1.5,0.1,1.8c0.1,0.3,0.2,0.6,0.3,0.8c0.2,0.2,0.5,0.4,0.9,0.5v0.9h-6.7v-0.9
		c0.3-0.1,0.5-0.1,0.6-0.2c0.2-0.1,0.3-0.2,0.4-0.3c0.1-0.1,0.2-0.3,0.2-0.4c0.1-0.2,0.1-0.4,0.1-0.7c0-0.3,0-0.8,0-1.3V4.9
		c0-0.8,0-1.4,0-1.7c0-0.4,0-0.7-0.1-0.9c0-0.2-0.1-0.4-0.2-0.6c-0.1-0.1-0.2-0.3-0.4-0.4c-0.2-0.1-0.4-0.2-0.8-0.2V0.2L73.3,0H75
		V15.6z"/>
	<path class="st0" d="M83.3,20.1c-0.6,1.3-1.1,2.3-1.7,3.1c-0.5,0.7-1.1,1.3-1.7,1.7c-0.6,0.4-1.4,0.6-2.3,0.6
		c-0.7,0-1.3-0.1-1.9-0.3v-3.1h1.5c0.1,0.4,0.3,0.7,0.4,0.9c0.2,0.2,0.4,0.2,0.7,0.2c0.3,0,0.7-0.1,0.9-0.3c0.3-0.2,0.6-0.5,0.9-1.1
		c0.3-0.5,0.8-1.3,1.3-2.3h-0.8L77.3,9.3c-0.3-0.7-0.5-1.2-0.6-1.5c-0.1-0.3-0.3-0.5-0.5-0.6C76,7,75.8,6.9,75.5,6.9V6h6.8v0.9
		c-0.4,0.1-0.7,0.2-0.9,0.4c-0.2,0.2-0.3,0.4-0.3,0.7c0,0.4,0.1,1,0.4,1.7l2,6l2.2-5.2c0.2-0.4,0.3-0.8,0.4-1.2
		c0.1-0.3,0.1-0.7,0.1-1c0-0.4-0.1-0.7-0.3-0.9c-0.2-0.2-0.5-0.4-0.9-0.5V6h5.3v0.9c-0.3,0.1-0.5,0.2-0.6,0.3
		c-0.2,0.1-0.3,0.3-0.4,0.5c-0.1,0.2-0.3,0.5-0.5,0.9c-0.2,0.4-0.5,0.9-0.8,1.7L83.3,20.1z"/>
</g>
<g>
	<g>
		<path class="st1" d="M57.9,35.1c0,0.7,0.2,1.2,0.5,1.5c0.3,0.3,0.8,0.5,1.5,0.5c0.5,0,0.9-0.1,1.3-0.3c0.4-0.2,0.6-0.5,0.8-0.8
			c0.2-0.3,0.3-0.8,0.3-1.2c0-0.3-0.1-0.6-0.2-0.9c-0.1-0.3-0.3-0.5-0.5-0.7c-0.2-0.2-0.6-0.5-1-0.8c-0.4-0.3-0.8-0.6-1-0.8
			c-0.3-0.3-0.5-0.6-0.6-0.9s-0.2-0.7-0.2-1.1c0-0.7,0.2-1.2,0.5-1.7s0.8-0.9,1.3-1.2c0.6-0.3,1.2-0.4,2-0.4c0.5,0,1,0,1.4,0.1
			c0.4,0.1,0.9,0.2,1.4,0.4l-0.5,2.1h-0.8c0-0.5-0.1-0.8-0.2-1.1c-0.1-0.3-0.3-0.5-0.5-0.6c-0.2-0.1-0.5-0.2-0.9-0.2
			c-0.5,0-0.9,0.1-1.2,0.3c-0.3,0.2-0.6,0.4-0.8,0.8C60.1,28.3,60,28.6,60,29c0,0.3,0,0.5,0.1,0.8c0.1,0.2,0.3,0.5,0.5,0.7
			c0.2,0.2,0.5,0.5,1,0.8c0.5,0.4,1,0.7,1.2,1c0.3,0.3,0.5,0.6,0.6,0.9c0.1,0.3,0.2,0.7,0.2,1.2c0,0.7-0.2,1.3-0.5,1.8
			c-0.3,0.5-0.8,0.9-1.4,1.2c-0.6,0.3-1.3,0.4-2,0.4c-0.5,0-1.1,0-1.6-0.1s-1.1-0.2-1.6-0.3l0.5-2.3H57.9z"/>
		<path class="st1" d="M71.6,37.6H69l1-4.2c0.1-0.3,0.1-0.6,0.2-0.9c0.1-0.3,0.1-0.6,0.1-0.9c0-0.4-0.1-0.7-0.2-0.9
			c-0.1-0.2-0.4-0.3-0.7-0.3c-0.2,0-0.5,0.1-0.8,0.3c-0.3,0.2-0.6,0.5-0.9,0.9c-0.3,0.4-0.5,0.8-0.7,1.1c-0.2,0.4-0.3,0.8-0.4,1.3
			L66,37.6h-1.4l2.1-9.5c0.1-0.3,0.1-0.5,0.1-0.6c0-0.1,0-0.2,0.1-0.3c0-0.1,0-0.2,0-0.3c0-0.2-0.1-0.4-0.2-0.5s-0.4-0.1-0.8-0.2
			l0.1-0.4l2.1-0.1h0.5l-1.4,5.8l0.1,0c0.5-0.7,1-1.2,1.5-1.5c0.5-0.3,1-0.5,1.4-0.5c0.5,0,0.9,0.1,1.2,0.4c0.3,0.3,0.4,0.7,0.4,1.3
			c0,0.4-0.1,0.8-0.2,1.3l-0.7,3c-0.1,0.2-0.1,0.4-0.1,0.6c0,0.1,0,0.3,0,0.4c0,0.2,0,0.3,0.1,0.4c0.1,0.1,0.1,0.2,0.3,0.2
			c0.1,0,0.3,0.1,0.6,0.1L71.6,37.6z"/>
		<path class="st1" d="M75.5,37.8c-0.9,0-1.5-0.2-2-0.7c-0.5-0.5-0.7-1.2-0.7-2.1c0-0.3,0-0.7,0.1-1.2c0.1-0.6,0.3-1.1,0.4-1.5
			c0.2-0.6,0.6-1,1-1.5c0.4-0.4,0.8-0.7,1.3-0.9c0.5-0.2,1.1-0.3,1.6-0.3c0.6,0,1.2,0.1,1.6,0.4c0.4,0.2,0.7,0.6,0.9,1
			c0.2,0.4,0.3,0.9,0.3,1.5c0,0.5-0.1,1-0.2,1.6c-0.2,0.8-0.5,1.5-0.9,2.1c-0.4,0.6-0.9,1-1.4,1.3C76.9,37.6,76.2,37.8,75.5,37.8z
			 M74.2,35.3c0,0.6,0.1,1.1,0.4,1.4c0.3,0.3,0.6,0.4,1.1,0.4c0.5,0,1-0.2,1.4-0.7c0.4-0.5,0.8-1.2,1-2c0.2-0.9,0.4-1.6,0.4-2.3
			c0-0.6-0.1-1-0.3-1.4c-0.2-0.3-0.6-0.5-1.1-0.5c-0.6,0-1.1,0.2-1.5,0.7c-0.4,0.5-0.8,1.2-1,2.1C74.3,33.9,74.2,34.7,74.2,35.3z"/>
		<path class="st1" d="M81.6,39.1c-0.1,0.3-0.1,0.5-0.1,0.6c0,0.1,0,0.3,0,0.4c0,0.2,0,0.3,0.1,0.4c0.1,0.1,0.1,0.2,0.3,0.2
			c0.1,0,0.3,0.1,0.6,0.1l-0.1,0.4h-2.6l2.1-9.2c0.1-0.5,0.2-0.9,0.2-1.2c0-0.2,0-0.3-0.1-0.4c0-0.1-0.1-0.1-0.2-0.2
			c-0.1,0-0.3-0.1-0.6-0.1l0.1-0.4l1.9-0.1h0.5L83,31.8l0.1,0c1-1.5,2-2.3,3.1-2.3c0.6,0,1.1,0.2,1.4,0.7c0.3,0.5,0.5,1.1,0.5,1.9
			c0,0.6-0.1,1.2-0.2,1.8c-0.2,0.6-0.4,1.1-0.7,1.6c-0.3,0.5-0.6,0.9-1,1.2c-0.4,0.3-0.7,0.5-1.1,0.7c-0.4,0.2-0.8,0.2-1.3,0.2
			c-0.7,0-1.3-0.2-1.8-0.5L81.6,39.1z M82.6,34.7c-0.1,0.3-0.1,0.5-0.1,0.7s0,0.3,0,0.5c0,0.4,0.1,0.7,0.3,0.9
			c0.2,0.2,0.5,0.3,1,0.3c0.3,0,0.5-0.1,0.8-0.2c0.2-0.1,0.5-0.3,0.7-0.5s0.4-0.5,0.6-0.8c0.2-0.3,0.3-0.6,0.5-1
			c0.1-0.4,0.2-0.8,0.3-1.2c0.1-0.4,0.1-0.8,0.1-1.2c0-0.6-0.1-1-0.2-1.3c-0.2-0.3-0.4-0.4-0.8-0.4c-0.3,0-0.6,0.1-0.8,0.3
			c-0.3,0.2-0.6,0.5-0.9,0.9c-0.3,0.4-0.6,0.8-0.8,1.2c-0.2,0.4-0.3,0.9-0.4,1.4L82.6,34.7z"/>
	</g>
</g>
</svg>
