<?xml version="1.0" encoding="utf-8"?>
<!-- Generator: Adobe Illustrator 19.0.0, SVG Export Plug-In . SVG Version: 6.00 Build 0)  -->
<svg version="1.1" id="Layer_1" xmlns="http://www.w3.org/2000/svg" xmlns:xlink="http://www.w3.org/1999/xlink" x="0px" y="0px"
	 viewBox="0 0 31.2 7.6" style="enable-background:new 0 0 31.2 7.6;" xml:space="preserve">
<style type="text/css">
	.st0{display:none;}
	.st1{display:inline;fill:#FFFFFF;}
	.st2{display:inline;}
	.st3{fill:#F7971D;}
	.st4{fill:#FFFFFF;}
</style>
<g class="st0">
	<path class="st1" d="M-51.9-7.6c0,0.5,0,0.8,0,1.1c0,0.2,0.1,0.5,0.1,0.6c0.1,0.2,0.2,0.3,0.3,0.4c0.1,0.1,0.2,0.2,0.4,0.3
		c0.2,0.1,0.4,0.1,0.8,0.2v0.9h-7.3V-5c0.3-0.1,0.6-0.2,0.8-0.3c0.2-0.1,0.3-0.3,0.4-0.4c0.1-0.2,0.2-0.4,0.2-0.7c0-0.3,0-0.7,0-1.1
		v-11.7c0-0.4,0-0.8,0-1.1c0-0.3-0.1-0.5-0.2-0.7c-0.1-0.2-0.2-0.3-0.4-0.4c-0.2-0.1-0.5-0.2-0.8-0.3v-0.9h13.2v4.3h-1.9
		c-0.3-0.9-0.6-1.4-0.8-1.8c-0.2-0.3-0.5-0.5-0.7-0.7c-0.3-0.2-0.8-0.3-1.5-0.3h-2.6v6.9h1.7c0.4,0,0.8-0.1,1-0.2s0.4-0.4,0.6-0.7
		c0.1-0.3,0.3-0.7,0.4-1.3h1.5v5.9h-1.5c-0.1-0.6-0.2-1-0.4-1.3c-0.2-0.3-0.3-0.5-0.6-0.7c-0.2-0.1-0.5-0.2-1-0.2h-1.7V-7.6z"/>
	<path class="st1" d="M-43.7-5c0.4-0.1,0.8-0.3,0.9-0.5c0.2-0.2,0.3-0.4,0.3-0.8c0.1-0.3,0.1-0.9,0.1-1.8v-6.3c0-0.4,0-0.8-0.1-1.1
		c0-0.3-0.1-0.5-0.2-0.7c-0.1-0.2-0.3-0.3-0.5-0.4c-0.2-0.1-0.4-0.2-0.8-0.2v-0.9l3.7-0.1h1.7v9.7c0,0.5,0,0.9,0,1.2
		c0,0.3,0,0.5,0.1,0.6c0,0.1,0.1,0.3,0.1,0.4c0,0.1,0.1,0.2,0.2,0.3c0.1,0.1,0.2,0.2,0.4,0.3c0.2,0.1,0.4,0.2,0.6,0.2v0.9h-6.6V-5z
		 M-38.5-23.1v3.3h-3.7v-3.3H-38.5z"/>
	<path class="st1" d="M-27-5.8c-0.8,0.7-1.5,1.2-2.2,1.4c-0.7,0.3-1.3,0.4-2.1,0.4c-1.4,0-2.4-0.4-3-1.1c-0.7-0.7-1-1.8-1-3.3V-16
		H-37v-0.9c0.6-0.1,1-0.2,1.2-0.4c0.3-0.2,0.5-0.4,0.6-0.7c0.1-0.3,0.3-0.7,0.3-1.2c0.1-0.5,0.2-1.1,0.2-1.8h3.3v3.4h3.9v1.7h-3.9
		v6.1c0,1,0,1.8,0.1,2.3c0.1,0.5,0.3,0.9,0.5,1.1c0.2,0.2,0.5,0.3,0.8,0.3c0.3,0,0.5,0,0.7-0.1c0.2,0,0.4-0.1,0.6-0.2
		c0.2-0.1,0.5-0.3,0.7-0.5L-27-5.8z"/>
	<path class="st1" d="M-20.3-22.7c1.5,0,2.8,0.1,3.8,0.4c1,0.2,1.9,0.6,2.7,1.1c0.8,0.5,1.4,1.1,1.9,1.8c0.5,0.7,0.8,1.5,1.1,2.5
		c0.2,0.9,0.4,2,0.4,3.2c0,1.4-0.2,2.7-0.5,3.8c-0.3,1.1-0.8,2.1-1.5,2.9c-0.6,0.7-1.3,1.3-2.2,1.8c-0.9,0.5-1.8,0.8-3,1
		c-1,0.2-2.2,0.2-3.6,0.2h-6.2V-5c0.3-0.1,0.6-0.2,0.8-0.3c0.2-0.1,0.3-0.2,0.4-0.4C-26.1-6-26-6.2-26-6.5c0-0.3,0-0.6,0-1.1v-11.7
		c0-0.4,0-0.8,0-1.1s-0.1-0.5-0.2-0.7c-0.1-0.2-0.2-0.3-0.4-0.4c-0.2-0.1-0.5-0.2-0.8-0.3v-0.9H-20.3z M-21.7-5.8c0.2,0,0.6,0,1.2,0
		c1,0,1.8-0.1,2.5-0.4c0.5-0.2,0.9-0.5,1.3-0.9c0.6-0.6,1-1.4,1.3-2.4c0.3-1.1,0.5-2.4,0.5-4c0-1.7-0.2-3.2-0.7-4.3
		c-0.5-1.1-1.1-2-2-2.5c-0.8-0.5-1.8-0.8-3-0.8c-0.6,0-1,0-1.2,0V-5.8z"/>
	<path class="st1" d="M-1.2-5.9L-1.4-6c-0.7,0.7-1.5,1.3-2.2,1.6C-4.3-4.1-5-3.9-5.8-3.9c-0.8,0-1.5-0.1-2-0.4
		c-0.6-0.3-1-0.7-1.3-1.2c-0.3-0.5-0.4-1.1-0.4-1.8c0-1.3,0.7-2.4,2-3.2c1.3-0.8,3.3-1.3,6-1.5v-1.3c0-0.8-0.1-1.5-0.3-2
		c-0.2-0.5-0.4-0.8-0.7-1c-0.3-0.2-0.7-0.3-1.1-0.3c-0.4,0-0.8,0.1-1.1,0.2c-0.3,0.1-0.6,0.4-0.8,0.8c-0.2,0.4-0.4,1-0.5,1.7h-2.6
		v-2.5c0.8-0.4,1.5-0.7,2.1-0.9c0.6-0.2,1.1-0.4,1.6-0.5s1-0.2,1.5-0.3c0.4-0.1,0.9-0.1,1.3-0.1c1.1,0,2,0.1,2.6,0.4
		s1.2,0.8,1.5,1.4c0.3,0.7,0.5,1.6,0.5,2.7V-8c0,0.6,0,1.1,0,1.4c0,0.3,0.1,0.6,0.1,0.7s0.1,0.3,0.2,0.4C2.7-5.4,2.9-5.3,3-5.3
		C3.1-5.2,3.4-5.1,3.7-5v0.9h-5.1L-1.2-5.9z M-1.7-10.6c-1.4,0-2.4,0.3-3.1,0.8c-0.7,0.5-1,1.2-1,2.2c0,0.6,0.2,1,0.5,1.3
		C-5-6.1-4.6-5.9-4.1-5.9c0.4,0,0.8-0.1,1.2-0.3C-2.5-6.5-2.2-6.8-2-7.1c0.2-0.4,0.3-0.8,0.3-1.2V-10.6z"/>
	<path class="st1" d="M4.3-5C4.7-5.2,5-5.3,5.2-5.5C5.3-5.7,5.5-6,5.5-6.3c0.1-0.3,0.1-0.9,0.1-1.8v-6.3c0-0.4,0-0.8-0.1-1.1
		c0-0.3-0.1-0.5-0.2-0.7c-0.1-0.2-0.3-0.3-0.5-0.4c-0.2-0.1-0.4-0.2-0.8-0.2v-0.9l3.7-0.1h1.7v9.7c0,0.5,0,0.9,0,1.2
		c0,0.3,0,0.5,0.1,0.6S9.7-6,9.7-5.9s0.1,0.2,0.2,0.3c0.1,0.1,0.2,0.2,0.4,0.3c0.2,0.1,0.4,0.2,0.6,0.2v0.9H4.3V-5z M9.4-23.1v3.3
		H5.7v-3.3H9.4z"/>
	<path class="st1" d="M16.7-8.1c0,0.9,0,1.5,0.1,1.8C16.9-6,17-5.7,17.2-5.5c0.2,0.2,0.5,0.4,0.9,0.5v0.9h-6.7V-5
		c0.3-0.1,0.5-0.1,0.6-0.2c0.2-0.1,0.3-0.2,0.4-0.3c0.1-0.1,0.2-0.3,0.2-0.4c0.1-0.2,0.1-0.4,0.1-0.7c0-0.3,0-0.8,0-1.3v-10.6
		c0-0.8,0-1.4,0-1.7c0-0.4,0-0.7-0.1-0.9c0-0.2-0.1-0.4-0.2-0.6c-0.1-0.1-0.2-0.3-0.4-0.4c-0.2-0.1-0.4-0.2-0.8-0.2v-0.9l3.8-0.2
		h1.7V-8.1z"/>
	<path class="st1" d="M25-3.5c-0.6,1.3-1.1,2.3-1.7,3.1c-0.5,0.7-1.1,1.3-1.7,1.7c-0.6,0.4-1.4,0.6-2.3,0.6c-0.7,0-1.3-0.1-1.9-0.3
		v-3.1H19c0.1,0.4,0.3,0.7,0.4,0.9c0.2,0.2,0.4,0.2,0.7,0.2c0.3,0,0.7-0.1,0.9-0.3c0.3-0.2,0.6-0.5,0.9-1.1c0.3-0.5,0.8-1.3,1.3-2.3
		h-0.8L19-14.4c-0.3-0.7-0.5-1.2-0.6-1.5s-0.3-0.5-0.5-0.6c-0.2-0.1-0.4-0.2-0.7-0.3v-0.9H24v0.9c-0.4,0.1-0.7,0.2-0.9,0.4
		c-0.2,0.2-0.3,0.4-0.3,0.7c0,0.4,0.1,1,0.4,1.7l2,6l2.2-5.2c0.2-0.4,0.3-0.8,0.4-1.2c0.1-0.3,0.1-0.7,0.1-1c0-0.4-0.1-0.7-0.3-0.9
		c-0.2-0.2-0.5-0.4-0.9-0.5v-0.9h5.3v0.9c-0.3,0.1-0.5,0.2-0.6,0.3c-0.2,0.1-0.3,0.3-0.4,0.5c-0.1,0.2-0.3,0.5-0.5,0.9
		c-0.2,0.4-0.5,0.9-0.8,1.7L25-3.5z"/>
</g>
<g class="st0">
	<g class="st2">
		<path class="st3" d="M-0.4,11.4c0,0.7,0.2,1.2,0.5,1.5c0.3,0.3,0.8,0.5,1.5,0.5c0.5,0,0.9-0.1,1.3-0.3s0.6-0.5,0.8-0.8
			c0.2-0.3,0.3-0.8,0.3-1.2c0-0.3-0.1-0.6-0.2-0.9C3.6,9.9,3.4,9.7,3.2,9.4c-0.2-0.2-0.6-0.5-1-0.8c-0.4-0.3-0.8-0.6-1-0.8
			C0.9,7.5,0.6,7.2,0.5,6.9S0.2,6.2,0.2,5.8c0-0.7,0.2-1.2,0.5-1.7S1.5,3.2,2,2.9s1.2-0.4,2-0.4c0.5,0,1,0,1.4,0.1
			C5.9,2.7,6.4,2.8,6.9,3L6.4,5.1H5.6c0-0.5-0.1-0.8-0.2-1.1C5.3,3.7,5.1,3.5,4.9,3.4C4.7,3.3,4.4,3.2,4,3.2c-0.5,0-0.9,0.1-1.2,0.3
			C2.4,3.7,2.2,4,2,4.3C1.8,4.6,1.7,5,1.7,5.4c0,0.3,0,0.5,0.1,0.8C2,6.4,2.1,6.6,2.3,6.8c0.2,0.2,0.5,0.5,1,0.8
			c0.5,0.4,1,0.7,1.2,1C4.8,8.9,5,9.2,5.2,9.5c0.1,0.3,0.2,0.7,0.2,1.2c0,0.7-0.2,1.3-0.5,1.8c-0.3,0.5-0.8,0.9-1.4,1.2
			c-0.6,0.3-1.3,0.4-2,0.4c-0.5,0-1.1,0-1.6-0.1s-1.1-0.2-1.6-0.3l0.5-2.3H-0.4z"/>
		<path class="st3" d="M13.3,14h-2.6l1-4.2c0.1-0.3,0.1-0.6,0.2-0.9C12,8.5,12.1,8.2,12.1,8c0-0.4-0.1-0.7-0.2-0.9
			c-0.1-0.2-0.4-0.3-0.7-0.3c-0.2,0-0.5,0.1-0.8,0.3C10.2,7.3,9.9,7.6,9.6,8C9.3,8.4,9,8.8,8.8,9.1c-0.2,0.4-0.3,0.8-0.4,1.3L7.7,14
			H6.2l2.1-9.5C8.4,4.2,8.5,4,8.5,3.9c0-0.1,0-0.2,0.1-0.3c0-0.1,0-0.2,0-0.3c0-0.2-0.1-0.4-0.2-0.5S8,2.6,7.6,2.6l0.1-0.4l2.1-0.1
			h0.5L8.8,7.9l0.1,0c0.5-0.7,1-1.2,1.5-1.5c0.5-0.3,1-0.5,1.4-0.5c0.5,0,0.9,0.1,1.2,0.4c0.3,0.3,0.4,0.7,0.4,1.3
			c0,0.4-0.1,0.8-0.2,1.3l-0.7,3c-0.1,0.2-0.1,0.4-0.1,0.6c0,0.1,0,0.3,0,0.4c0,0.2,0,0.3,0.1,0.4c0.1,0.1,0.1,0.2,0.3,0.2
			c0.1,0,0.3,0.1,0.6,0.1L13.3,14z"/>
		<path class="st3" d="M17.2,14.1c-0.9,0-1.5-0.2-2-0.7c-0.5-0.5-0.7-1.2-0.7-2.1c0-0.3,0-0.7,0.1-1.2c0.1-0.6,0.3-1.1,0.4-1.5
			c0.2-0.6,0.6-1,1-1.5c0.4-0.4,0.8-0.7,1.3-0.9C17.8,6,18.4,5.9,19,5.9c0.6,0,1.2,0.1,1.6,0.4c0.4,0.2,0.7,0.6,0.9,1
			c0.2,0.4,0.3,0.9,0.3,1.5c0,0.5-0.1,1-0.2,1.6c-0.2,0.8-0.5,1.5-0.9,2.1c-0.4,0.6-0.9,1-1.4,1.3C18.6,14,17.9,14.1,17.2,14.1z
			 M15.9,11.7c0,0.6,0.1,1.1,0.4,1.4c0.3,0.3,0.6,0.4,1.1,0.4c0.5,0,1-0.2,1.4-0.7c0.4-0.5,0.8-1.2,1-2c0.2-0.9,0.4-1.6,0.4-2.3
			c0-0.6-0.1-1-0.3-1.4s-0.6-0.5-1.1-0.5c-0.6,0-1.1,0.2-1.5,0.7c-0.4,0.5-0.8,1.2-1,2.1C16,10.3,15.9,11,15.9,11.7z"/>
		<path class="st3" d="M23.3,15.5c-0.1,0.3-0.1,0.5-0.1,0.6c0,0.1,0,0.3,0,0.4c0,0.2,0,0.3,0.1,0.4c0.1,0.1,0.1,0.2,0.3,0.2
			c0.1,0,0.3,0.1,0.6,0.1L24,17.6h-2.6l2.1-9.2c0.1-0.5,0.2-0.9,0.2-1.2c0-0.2,0-0.3-0.1-0.4c0-0.1-0.1-0.1-0.2-0.2
			c-0.1,0-0.3-0.1-0.6-0.1L22.9,6L24.8,6h0.5l-0.6,2.2l0.1,0c1-1.5,2-2.3,3.1-2.3c0.6,0,1.1,0.2,1.4,0.7c0.3,0.5,0.5,1.1,0.5,1.9
			c0,0.6-0.1,1.2-0.2,1.8c-0.2,0.6-0.4,1.1-0.7,1.6c-0.3,0.5-0.6,0.9-1,1.2c-0.4,0.3-0.7,0.5-1.1,0.7c-0.4,0.2-0.8,0.2-1.3,0.2
			c-0.7,0-1.3-0.2-1.8-0.5L23.3,15.5z M24.3,11.1c-0.1,0.3-0.1,0.5-0.1,0.7c0,0.2,0,0.3,0,0.5c0,0.4,0.1,0.7,0.3,0.9
			c0.2,0.2,0.5,0.3,1,0.3c0.3,0,0.5-0.1,0.8-0.2c0.2-0.1,0.5-0.3,0.7-0.5c0.2-0.2,0.4-0.5,0.6-0.8c0.2-0.3,0.3-0.6,0.5-1
			c0.1-0.4,0.2-0.8,0.3-1.2c0.1-0.4,0.1-0.8,0.1-1.2c0-0.6-0.1-1-0.2-1.3c-0.2-0.3-0.4-0.4-0.8-0.4c-0.3,0-0.6,0.1-0.8,0.3
			c-0.3,0.2-0.6,0.5-0.9,0.9c-0.3,0.4-0.6,0.8-0.8,1.2c-0.2,0.4-0.3,0.9-0.4,1.4L24.3,11.1z"/>
	</g>
</g>
<g>
	<path class="st4" d="M-51.6-7.8c0,0.5,0,0.8,0,1.1c0,0.2,0.1,0.4,0.1,0.6c0.1,0.2,0.2,0.3,0.3,0.4c0.1,0.1,0.2,0.2,0.4,0.3
		c0.2,0.1,0.4,0.1,0.7,0.2v0.9h-7.2v-0.9c0.3-0.1,0.6-0.2,0.8-0.3c0.2-0.1,0.3-0.3,0.4-0.4c0.1-0.2,0.2-0.4,0.2-0.7
		c0-0.3,0-0.6,0-1.1v-11.6c0-0.4,0-0.8,0-1.1c0-0.3-0.1-0.5-0.2-0.7c-0.1-0.2-0.2-0.3-0.4-0.4c-0.2-0.1-0.5-0.2-0.8-0.3v-0.9h13v4.3
		h-1.8c-0.3-0.9-0.5-1.4-0.8-1.7c-0.2-0.3-0.5-0.5-0.7-0.7c-0.3-0.2-0.8-0.3-1.5-0.3h-2.6v6.9h1.7c0.4,0,0.7-0.1,1-0.2
		c0.2-0.1,0.4-0.3,0.6-0.7c0.1-0.3,0.3-0.7,0.4-1.3h1.5v5.9H-48c-0.1-0.6-0.2-1-0.4-1.3c-0.2-0.3-0.3-0.5-0.6-0.7
		c-0.2-0.1-0.5-0.2-1-0.2h-1.7V-7.8z"/>
	<path class="st4" d="M-43.6-5.3c0.4-0.1,0.7-0.3,0.9-0.5s0.3-0.4,0.3-0.8c0.1-0.3,0.1-0.9,0.1-1.8v-6.3c0-0.4,0-0.8-0.1-1.1
		c0-0.3-0.1-0.5-0.2-0.6c-0.1-0.2-0.3-0.3-0.5-0.4c-0.2-0.1-0.4-0.2-0.7-0.2v-0.9l3.7-0.1h1.7v9.6c0,0.5,0,0.9,0,1.2
		c0,0.3,0,0.5,0.1,0.6c0,0.1,0.1,0.3,0.1,0.4c0,0.1,0.1,0.2,0.2,0.3c0.1,0.1,0.2,0.2,0.4,0.3c0.2,0.1,0.4,0.2,0.6,0.2v0.9h-6.6V-5.3
		z M-38.5-23.2v3.3h-3.7v-3.3H-38.5z"/>
	<path class="st4" d="M-27.1-6.1c-0.8,0.7-1.5,1.1-2.2,1.4c-0.6,0.3-1.3,0.4-2,0.4c-1.3,0-2.3-0.4-3-1.1c-0.7-0.7-1-1.8-1-3.3v-7.5
		h-1.7V-17c0.5-0.1,1-0.2,1.2-0.4c0.3-0.2,0.5-0.4,0.6-0.7c0.1-0.3,0.3-0.7,0.3-1.2c0.1-0.5,0.2-1.1,0.2-1.8h3.2v3.4h3.8v1.7h-3.8
		v6.1c0,1,0,1.8,0.1,2.2c0.1,0.5,0.3,0.8,0.5,1.1c0.2,0.2,0.5,0.3,0.8,0.3c0.3,0,0.5,0,0.7-0.1c0.2,0,0.4-0.1,0.6-0.2
		c0.2-0.1,0.5-0.3,0.7-0.5L-27.1-6.1z"/>
	<path class="st4" d="M-20.4-22.8c1.5,0,2.8,0.1,3.8,0.4c1,0.2,1.9,0.6,2.7,1.1c0.8,0.5,1.4,1.1,1.9,1.8c0.5,0.7,0.8,1.5,1.1,2.4
		c0.2,0.9,0.3,2,0.3,3.1c0,1.4-0.2,2.7-0.5,3.8c-0.3,1.1-0.8,2.1-1.5,2.9c-0.6,0.7-1.3,1.3-2.1,1.8c-0.8,0.5-1.8,0.8-2.9,1
		c-1,0.2-2.1,0.2-3.6,0.2h-6.1v-0.9c0.3-0.1,0.6-0.2,0.8-0.3c0.2-0.1,0.3-0.2,0.4-0.4c0.1-0.2,0.2-0.4,0.2-0.7c0-0.3,0-0.6,0-1.1
		v-11.6c0-0.4,0-0.8,0-1.1c0-0.3-0.1-0.5-0.2-0.7s-0.2-0.3-0.4-0.4c-0.2-0.1-0.5-0.2-0.8-0.3v-0.9H-20.4z M-21.8-6.1
		c0.2,0,0.6,0,1.2,0c1,0,1.8-0.1,2.5-0.4c0.5-0.2,0.9-0.5,1.3-0.9c0.6-0.6,1-1.4,1.3-2.4c0.3-1.1,0.5-2.4,0.5-3.9
		c0-1.7-0.2-3.1-0.7-4.2c-0.5-1.1-1.1-2-1.9-2.5c-0.8-0.5-1.8-0.8-3-0.8c-0.6,0-1,0-1.2,0V-6.1z"/>
	<path class="st4" d="M-1.6-6.2l-0.2-0.1C-2.5-5.6-3.2-5-3.9-4.7c-0.7,0.3-1.4,0.5-2.2,0.5c-0.8,0-1.4-0.1-2-0.4
		c-0.6-0.3-1-0.7-1.3-1.2c-0.3-0.5-0.4-1.1-0.4-1.7c0-1.3,0.6-2.4,1.9-3.1s3.3-1.2,5.9-1.4v-1.3c0-0.8-0.1-1.5-0.3-1.9
		c-0.2-0.5-0.4-0.8-0.7-1c-0.3-0.2-0.7-0.3-1.1-0.3c-0.4,0-0.8,0.1-1.1,0.2c-0.3,0.1-0.6,0.4-0.8,0.8c-0.2,0.4-0.4,1-0.5,1.7h-2.5
		v-2.5c0.8-0.4,1.5-0.7,2.1-0.8c0.5-0.2,1.1-0.4,1.6-0.5s1-0.2,1.4-0.3C-3.5-18-3.1-18-2.7-18c1.1,0,2,0.1,2.6,0.4s1.1,0.8,1.5,1.4
		c0.3,0.6,0.5,1.5,0.5,2.7v5.3c0,0.6,0,1,0,1.4C1.9-6.6,2-6.3,2-6.2C2.1-6,2.2-5.9,2.3-5.8c0.1,0.1,0.2,0.2,0.3,0.2
		C2.7-5.5,3-5.4,3.3-5.3v0.9h-5L-1.6-6.2z M-2-10.8c-1.4,0-2.4,0.3-3.1,0.8c-0.7,0.5-1,1.2-1,2.1c0,0.6,0.2,1,0.5,1.3
		c0.3,0.3,0.7,0.4,1.3,0.4c0.4,0,0.8-0.1,1.2-0.3C-2.8-6.7-2.6-7-2.3-7.4C-2.1-7.8-2-8.2-2-8.6V-10.8z"/>
	<path class="st4" d="M3.8-5.3c0.4-0.1,0.7-0.3,0.9-0.5C4.9-6,5-6.2,5.1-6.6c0.1-0.3,0.1-0.9,0.1-1.8v-6.3c0-0.4,0-0.8-0.1-1.1
		c0-0.3-0.1-0.5-0.2-0.6c-0.1-0.2-0.3-0.3-0.5-0.4c-0.2-0.1-0.4-0.2-0.7-0.2v-0.9l3.7-0.1h1.7v9.6c0,0.5,0,0.9,0,1.2
		c0,0.3,0,0.5,0.1,0.6c0,0.1,0.1,0.3,0.1,0.4c0,0.1,0.1,0.2,0.2,0.3c0.1,0.1,0.2,0.2,0.4,0.3c0.2,0.1,0.4,0.2,0.6,0.2v0.9H3.8V-5.3z
		 M9-23.2v3.3H5.3v-3.3H9z"/>
	<path class="st4" d="M16.2-8.3c0,0.9,0,1.4,0.1,1.8c0.1,0.3,0.2,0.6,0.3,0.8c0.2,0.2,0.5,0.3,0.9,0.5v0.9h-6.6v-0.9
		c0.3-0.1,0.5-0.1,0.6-0.2c0.2-0.1,0.3-0.2,0.4-0.3C12-6,12.1-6.1,12.1-6.3c0.1-0.2,0.1-0.4,0.1-0.7c0-0.3,0-0.8,0-1.3v-10.5
		c0-0.8,0-1.3,0-1.7c0-0.4,0-0.7-0.1-0.9c0-0.2-0.1-0.4-0.2-0.6c-0.1-0.1-0.2-0.3-0.4-0.4c-0.2-0.1-0.4-0.2-0.8-0.2v-0.9l3.7-0.2
		h1.7V-8.3z"/>
	<path class="st4" d="M24.3-3.8c-0.6,1.3-1.1,2.3-1.6,3.1C22.2,0,21.6,0.5,21,0.9c-0.6,0.4-1.3,0.6-2.2,0.6c-0.7,0-1.3-0.1-1.9-0.3
		v-3.1h1.5c0.1,0.4,0.3,0.7,0.4,0.9c0.2,0.2,0.4,0.2,0.7,0.2c0.3,0,0.6-0.1,0.9-0.3c0.3-0.2,0.6-0.5,0.9-1.1
		c0.3-0.5,0.8-1.3,1.3-2.3h-0.8l-3.5-10.1c-0.3-0.7-0.5-1.2-0.6-1.5c-0.1-0.3-0.3-0.5-0.5-0.6c-0.2-0.1-0.4-0.2-0.7-0.3v-0.9h6.7
		v0.9c-0.4,0.1-0.7,0.2-0.9,0.4c-0.2,0.2-0.3,0.4-0.3,0.7c0,0.4,0.1,1,0.4,1.7l1.9,5.9l2.1-5.2c0.2-0.4,0.3-0.8,0.4-1.1
		c0.1-0.3,0.1-0.6,0.1-1c0-0.4-0.1-0.7-0.3-0.9c-0.2-0.2-0.5-0.4-0.9-0.5v-0.9h5.2v0.9c-0.3,0.1-0.5,0.2-0.6,0.3
		c-0.2,0.1-0.3,0.3-0.4,0.5c-0.1,0.2-0.3,0.5-0.5,0.8c-0.2,0.4-0.5,0.9-0.8,1.7L24.3-3.8z"/>
</g>
<g>
	<path class="st4" d="M4.7,7.5v-4c0-0.6,0-1.3,0-2H4.7l-2.9,6H0.9L0.7,1.5c0-0.3,0-0.5-0.1-0.7c0-0.2-0.1-0.3-0.2-0.4
		C0.3,0.3,0.2,0.3,0,0.3L0.1,0h2.3L2.3,0.3C2.1,0.3,2,0.3,1.9,0.4C1.8,0.5,1.7,0.6,1.7,0.8c0,0.1-0.1,0.4-0.1,0.6v0.2
		c0,0.1,0,0.1,0,0.2l0,2.1c0,0.2,0,0.4,0,0.7v0.4l0,1.1h0.1l3-6.2h0.8v3.7c0,0.4,0,0.9,0,1.3l0,1.3h0.1l2.2-4.3
		C7.9,1.8,8,1.6,8.1,1.4C8.2,1.2,8.2,1,8.2,0.8c0-0.1,0-0.3-0.1-0.4C8,0.4,7.9,0.3,7.7,0.3L7.8,0H10L9.9,0.3c-0.2,0-0.3,0.1-0.5,0.3
		C9.3,0.7,9.1,1,8.8,1.5L5.5,7.5H4.7z"/>
	<path class="st4" d="M10.1,7.6c-0.6,0-1-0.2-1.3-0.5C8.5,6.8,8.3,6.3,8.3,5.7c0-0.2,0-0.5,0.1-0.8c0.1-0.4,0.2-0.7,0.3-1
		C8.8,3.6,9,3.2,9.3,3c0.3-0.3,0.6-0.5,0.9-0.6c0.3-0.1,0.7-0.2,1.1-0.2c0.4,0,0.8,0.1,1,0.2c0.3,0.2,0.5,0.4,0.6,0.7s0.2,0.6,0.2,1
		c0,0.3,0,0.7-0.1,1c-0.1,0.5-0.3,1-0.6,1.4c-0.3,0.4-0.6,0.7-0.9,0.9C11,7.5,10.6,7.6,10.1,7.6z M9.3,6c0,0.4,0.1,0.7,0.2,0.9
		C9.7,7,9.9,7.1,10.3,7.1c0.4,0,0.7-0.2,1-0.5c0.3-0.3,0.5-0.8,0.7-1.4c0.2-0.6,0.2-1.1,0.2-1.5c0-0.4-0.1-0.7-0.2-0.9
		c-0.2-0.2-0.4-0.3-0.7-0.3c-0.4,0-0.7,0.2-1,0.5C9.9,3.4,9.7,3.8,9.5,4.4C9.3,5,9.3,5.5,9.3,6z"/>
	<path class="st4" d="M18.2,3.3L18.2,3.3c0,0.1,0,0.1,0,0.2c0.3-0.4,0.6-0.8,0.9-1c0.3-0.2,0.6-0.3,1-0.3c0.3,0,0.6,0.1,0.8,0.3
		c0.2,0.2,0.3,0.5,0.3,0.9c0,0.2,0,0.5-0.1,0.8l-0.5,1.9c-0.1,0.3-0.1,0.5-0.1,0.6c0,0.1,0,0.2,0.1,0.3c0,0.1,0.1,0.1,0.2,0.1
		c0.1,0,0.2,0.1,0.4,0.1l0,0.3h-1.7l0.7-2.8c0.1-0.2,0.1-0.4,0.1-0.6c0-0.2,0.1-0.4,0.1-0.6c0-0.3,0-0.4-0.1-0.6
		c-0.1-0.1-0.2-0.2-0.4-0.2c-0.1,0-0.3,0.1-0.5,0.2c-0.2,0.1-0.4,0.3-0.6,0.5c-0.2,0.2-0.4,0.5-0.5,0.7c-0.1,0.2-0.2,0.5-0.3,0.9
		l-0.5,2.4h-0.9l0.6-2.8c0.1-0.3,0.1-0.6,0.2-0.8c0-0.2,0-0.3,0-0.4c0-0.3,0-0.4-0.1-0.6c-0.1-0.1-0.2-0.2-0.4-0.2
		c-0.1,0-0.3,0.1-0.5,0.2s-0.4,0.3-0.6,0.6c-0.2,0.2-0.4,0.5-0.5,0.7C15,4.5,15,4.8,14.9,5.1l-0.5,2.4h-0.9l0.8-3.7
		c0-0.1,0-0.2,0.1-0.4c0-0.2,0-0.3,0-0.4c0-0.1,0-0.2,0-0.2c0-0.1-0.1-0.1-0.2-0.1c-0.1,0-0.2,0-0.4-0.1l0.1-0.3l1.2,0h0.3l-0.4,1.4
		l0.1,0c0.3-0.5,0.7-0.9,1-1.1c0.3-0.2,0.7-0.4,1-0.4c0.4,0,0.6,0.1,0.8,0.3C18.1,2.7,18.2,2.9,18.2,3.3z"/>
	<path class="st4" d="M25.8,6.4c-0.3,0.3-0.5,0.5-0.8,0.7c-0.2,0.2-0.5,0.3-0.7,0.4c-0.2,0.1-0.5,0.1-0.8,0.1c-0.3,0-0.5,0-0.7-0.1
		S22.4,7.2,22.2,7S22,6.7,21.9,6.5c-0.1-0.2-0.1-0.5-0.1-0.7c0-0.4,0.1-0.8,0.2-1.3c0.1-0.4,0.4-0.8,0.6-1.2c0.3-0.4,0.6-0.6,1-0.8
		c0.4-0.2,0.8-0.3,1.3-0.3c0.4,0,0.8,0.1,1,0.3c0.2,0.2,0.3,0.5,0.3,0.8c0,0.6-0.3,1.1-0.9,1.4C24.8,5,24,5.1,22.8,5.1
		c0,0.2-0.1,0.5-0.1,0.7c0,0.4,0.1,0.7,0.2,0.8c0.1,0.2,0.4,0.3,0.7,0.3c0.3,0,0.6-0.1,0.9-0.2c0.3-0.1,0.6-0.4,0.9-0.7L25.8,6.4z
		 M22.9,4.7c0.3,0,0.6,0,0.9-0.1c0.3,0,0.5-0.1,0.7-0.1s0.3-0.1,0.5-0.2C25,4.1,25.1,4.1,25.2,4c0.1-0.1,0.1-0.2,0.1-0.3
		c0-0.1,0-0.2,0-0.3c0-0.2-0.1-0.4-0.2-0.5c-0.1-0.1-0.3-0.2-0.5-0.2c-0.3,0-0.5,0.1-0.8,0.3c-0.2,0.2-0.5,0.4-0.7,0.7
		C23.2,3.9,23,4.3,22.9,4.7z"/>
	<path class="st4" d="M31.1,7.5h-1.7l0.7-2.8c0-0.2,0.1-0.4,0.1-0.6c0-0.2,0.1-0.4,0.1-0.6c0-0.3,0-0.4-0.1-0.6
		c-0.1-0.1-0.2-0.2-0.4-0.2c-0.2,0-0.3,0.1-0.5,0.2c-0.2,0.1-0.4,0.3-0.6,0.5c-0.2,0.2-0.4,0.5-0.5,0.7c-0.1,0.2-0.2,0.5-0.3,0.9
		l-0.5,2.4h-0.9l0.8-3.7c0-0.1,0-0.2,0.1-0.4c0-0.2,0-0.3,0-0.4c0-0.1,0-0.2,0-0.2c0-0.1-0.1-0.1-0.2-0.1c-0.1,0-0.2,0-0.4-0.1
		l0.1-0.3l1.2,0h0.3L28,3.6l0.1,0c0.4-0.5,0.7-0.9,1-1.1c0.3-0.2,0.7-0.4,1-0.4c0.4,0,0.6,0.1,0.8,0.3c0.2,0.2,0.3,0.5,0.3,0.9
		c0,0.1,0,0.3,0,0.4c0,0.2-0.1,0.3-0.1,0.4l-0.5,1.9c-0.1,0.3-0.1,0.5-0.1,0.6c0,0.1,0,0.2,0.1,0.3s0.1,0.1,0.2,0.1
		c0.1,0,0.2,0.1,0.4,0.1L31.1,7.5z"/>
</g>
</svg>
