<?xml version="1.0" encoding="utf-8"?>
<!-- Generator: Adobe Illustrator 19.0.0, SVG Export Plug-In . SVG Version: 6.00 Build 0)  -->
<svg version="1.1" id="Layer_1" xmlns="http://www.w3.org/2000/svg" xmlns:xlink="http://www.w3.org/1999/xlink" x="0px" y="0px"
	 viewBox="0 0 46.7 16.8" style="enable-background:new 0 0 46.7 16.8;" xml:space="preserve">
<style type="text/css">
	.st0{fill:#FFFFFF;}
</style>
<g>
	<path class="st0" d="M3.9,8.8c0,0.2,0,0.4,0,0.6s0,0.2,0.1,0.3S4,9.8,4.1,9.8S4.2,9.9,4.3,10S4.5,10,4.7,10v0.5H1V10
		c0.2,0,0.3-0.1,0.4-0.1s0.2-0.1,0.2-0.2s0.1-0.2,0.1-0.4s0-0.3,0-0.5V2.9c0-0.2,0-0.4,0-0.5s0-0.3-0.1-0.4c0-0.1-0.1-0.2-0.2-0.2
		S1.2,1.7,1,1.6V1.2h6.6v2.2H6.7C6.5,2.9,6.4,2.6,6.3,2.5S6.1,2.2,5.9,2.1S5.5,2,5.2,2H3.9v3.5h0.9c0.2,0,0.4,0,0.5-0.1
		S5.4,5.2,5.5,5s0.1-0.4,0.2-0.7h0.8v3H5.7C5.6,7.1,5.6,6.8,5.5,6.7S5.3,6.4,5.2,6.3S4.9,6.2,4.7,6.2H3.9V8.8z"/>
	<path class="st0" d="M7.9,10C8.2,10,8.3,9.9,8.4,9.8s0.1-0.2,0.2-0.4s0-0.5,0-0.9V5.4c0-0.2,0-0.4,0-0.5S8.5,4.6,8.5,4.5
		S8.3,4.3,8.2,4.3S8,4.2,7.9,4.2V3.7l1.9-0.1h0.9v4.9c0,0.3,0,0.5,0,0.6s0,0.2,0,0.3s0,0.1,0.1,0.2s0.1,0.1,0.1,0.2s0.1,0.1,0.2,0.1
		s0.2,0.1,0.3,0.1v0.5H7.9V10z M10.5,1v1.7H8.7V1H10.5z"/>
	<path class="st0" d="M16.3,9.7c-0.4,0.3-0.8,0.6-1.1,0.7s-0.7,0.2-1,0.2c-0.7,0-1.2-0.2-1.5-0.6s-0.5-0.9-0.5-1.7V4.6h-0.9V4.1
		c0.3,0,0.5-0.1,0.6-0.2s0.2-0.2,0.3-0.4s0.1-0.4,0.2-0.6s0.1-0.6,0.1-0.9h1.6v1.7h1.9v0.9h-1.9v3.1c0,0.5,0,0.9,0.1,1.1
		s0.1,0.4,0.2,0.5s0.3,0.2,0.4,0.2c0.1,0,0.2,0,0.3,0s0.2-0.1,0.3-0.1s0.2-0.1,0.4-0.3L16.3,9.7z"/>
	<path class="st0" d="M19.7,1.2c0.8,0,1.4,0.1,1.9,0.2s1,0.3,1.4,0.6s0.7,0.6,1,0.9s0.4,0.8,0.5,1.2s0.2,1,0.2,1.6
		c0,0.7-0.1,1.3-0.2,1.9S24,8.6,23.6,9c-0.3,0.4-0.7,0.7-1.1,0.9s-0.9,0.4-1.5,0.5c-0.5,0.1-1.1,0.1-1.8,0.1h-3.1V10
		c0.2,0,0.3-0.1,0.4-0.1s0.2-0.1,0.2-0.2s0.1-0.2,0.1-0.4s0-0.3,0-0.5V2.9c0-0.2,0-0.4,0-0.5s0-0.3-0.1-0.4c0-0.1-0.1-0.2-0.2-0.2
		s-0.2-0.1-0.4-0.2V1.2H19.7z M19,9.7c0.1,0,0.3,0,0.6,0c0.5,0,0.9-0.1,1.3-0.2c0.3-0.1,0.5-0.3,0.6-0.5c0.3-0.3,0.5-0.7,0.7-1.2
		c0.2-0.5,0.2-1.2,0.2-2c0-0.9-0.1-1.6-0.3-2.2s-0.6-1-1-1.3S20.2,2,19.6,2c-0.3,0-0.5,0-0.6,0V9.7z"/>
	<path class="st0" d="M29.3,9.6l-0.1,0c-0.4,0.4-0.7,0.6-1.1,0.8s-0.7,0.2-1.1,0.2c-0.4,0-0.7-0.1-1-0.2s-0.5-0.3-0.7-0.6
		s-0.2-0.5-0.2-0.9c0-0.7,0.3-1.2,1-1.6s1.7-0.6,3-0.7V6c0-0.4,0-0.8-0.1-1s-0.2-0.4-0.4-0.5S28.2,4.3,28,4.3s-0.4,0-0.5,0.1
		S27.2,4.7,27,4.9s-0.2,0.5-0.3,0.8h-1.3V4.5c0.4-0.2,0.8-0.3,1-0.4c0.3-0.1,0.6-0.2,0.8-0.2s0.5-0.1,0.7-0.1s0.4,0,0.6,0
		c0.6,0,1,0.1,1.3,0.2s0.6,0.4,0.7,0.7S31,5.3,31,5.9v2.7c0,0.3,0,0.5,0,0.7s0,0.3,0.1,0.4s0.1,0.1,0.1,0.2s0.1,0.1,0.2,0.1
		s0.2,0.1,0.4,0.1v0.5h-2.5L29.3,9.6z M29,7.3c-0.7,0-1.2,0.2-1.6,0.4S27,8.3,27,8.7C27,9,27,9.2,27.2,9.4s0.4,0.2,0.6,0.2
		c0.2,0,0.4-0.1,0.6-0.2s0.3-0.3,0.4-0.4S29,8.6,29,8.4V7.3z"/>
	<path class="st0" d="M32,10c0.2-0.1,0.4-0.1,0.5-0.2s0.1-0.2,0.2-0.4s0-0.5,0-0.9V5.4c0-0.2,0-0.4,0-0.5s-0.1-0.2-0.1-0.3
		s-0.1-0.1-0.2-0.2s-0.2-0.1-0.4-0.1V3.7l1.9-0.1h0.9v4.9c0,0.3,0,0.5,0,0.6s0,0.2,0,0.3s0,0.1,0.1,0.2s0.1,0.1,0.1,0.2
		S35,9.9,35,9.9s0.2,0.1,0.3,0.1v0.5H32V10z M34.6,1v1.7h-1.9V1H34.6z"/>
	<path class="st0" d="M38.3,8.5c0,0.4,0,0.7,0,0.9s0.1,0.3,0.2,0.4S38.7,10,39,10v0.5h-3.3V10c0.1,0,0.2-0.1,0.3-0.1
		s0.1-0.1,0.2-0.2s0.1-0.1,0.1-0.2s0.1-0.2,0.1-0.4s0-0.4,0-0.7V3.2c0-0.4,0-0.7,0-0.9s0-0.3,0-0.5s-0.1-0.2-0.1-0.3
		S36,1.4,35.9,1.4s-0.2-0.1-0.4-0.1V0.8l1.9-0.1h0.9V8.5z"/>
	<path class="st0" d="M42.4,10.8c-0.3,0.7-0.6,1.2-0.8,1.6S41,13,40.7,13.2s-0.7,0.3-1.1,0.3c-0.3,0-0.7,0-1-0.1v-1.6h0.8
		c0.1,0.2,0.1,0.4,0.2,0.4s0.2,0.1,0.4,0.1c0.2,0,0.3,0,0.5-0.1s0.3-0.3,0.5-0.5s0.4-0.7,0.6-1.2h-0.4l-1.8-5.1
		c-0.1-0.4-0.2-0.6-0.3-0.7s-0.2-0.2-0.3-0.3s-0.2-0.1-0.3-0.1V3.7h3.4v0.5c-0.2,0-0.4,0.1-0.5,0.2s-0.2,0.2-0.2,0.4
		c0,0.2,0.1,0.5,0.2,0.9l1,3l1.1-2.6c0.1-0.2,0.2-0.4,0.2-0.6s0.1-0.3,0.1-0.5c0-0.2-0.1-0.3-0.2-0.5s-0.3-0.2-0.5-0.2V3.7h2.7v0.5
		c-0.1,0-0.2,0.1-0.3,0.2s-0.2,0.1-0.2,0.2S45.2,4.8,45.1,5s-0.2,0.5-0.4,0.9L42.4,10.8z"/>
</g>
<g>
	<path class="st0" d="M34.2,16v-1.8c0-0.3,0-0.6,0-0.9h0L32.9,16h-0.4l-0.1-2.7c0-0.1,0-0.2,0-0.3c0-0.1-0.1-0.1-0.1-0.2
		c0,0-0.1-0.1-0.2-0.1l0-0.1h1l0,0.1c-0.1,0-0.1,0-0.2,0.1c0,0-0.1,0.1-0.1,0.2c0,0.1,0,0.2,0,0.3v0.1c0,0,0,0.1,0,0.1l0,1
		c0,0.1,0,0.2,0,0.3v0.2l0,0.5h0l1.4-2.8h0.4v1.6c0,0.2,0,0.4,0,0.6l0,0.6h0l1-1.9c0-0.1,0.1-0.2,0.1-0.3c0-0.1,0.1-0.2,0.1-0.3
		c0-0.1,0-0.1-0.1-0.2c0,0-0.1-0.1-0.2-0.1l0-0.1h1l0,0.1c-0.1,0-0.1,0.1-0.2,0.1c-0.1,0.1-0.2,0.2-0.3,0.4L34.6,16H34.2z"/>
	<path class="st0" d="M36.6,16c-0.3,0-0.4-0.1-0.6-0.2c-0.1-0.1-0.2-0.3-0.2-0.6c0-0.1,0-0.2,0-0.3c0-0.2,0.1-0.3,0.1-0.5
		c0.1-0.2,0.2-0.3,0.3-0.4c0.1-0.1,0.2-0.2,0.4-0.3c0.1-0.1,0.3-0.1,0.5-0.1c0.2,0,0.3,0,0.5,0.1c0.1,0.1,0.2,0.2,0.3,0.3
		c0.1,0.1,0.1,0.3,0.1,0.4c0,0.1,0,0.3-0.1,0.5c-0.1,0.2-0.1,0.4-0.3,0.6s-0.3,0.3-0.4,0.4C37,16,36.8,16,36.6,16z M36.2,15.3
		c0,0.2,0,0.3,0.1,0.4c0.1,0.1,0.2,0.1,0.3,0.1c0.2,0,0.3-0.1,0.4-0.2c0.1-0.1,0.2-0.3,0.3-0.6c0.1-0.3,0.1-0.5,0.1-0.7
		c0-0.2,0-0.3-0.1-0.4c-0.1-0.1-0.2-0.1-0.3-0.1c-0.2,0-0.3,0.1-0.4,0.2s-0.2,0.3-0.3,0.6S36.2,15.1,36.2,15.3z"/>
	<path class="st0" d="M40.2,14.1L40.2,14.1C40.2,14.2,40.2,14.2,40.2,14.1c0.1-0.1,0.3-0.3,0.4-0.4c0.1-0.1,0.3-0.1,0.4-0.1
		c0.2,0,0.3,0,0.4,0.1c0.1,0.1,0.1,0.2,0.1,0.4c0,0.1,0,0.2,0,0.4l-0.2,0.9c0,0.1,0,0.2,0,0.3c0,0,0,0.1,0,0.1s0,0,0.1,0.1
		c0,0,0.1,0,0.2,0l0,0.1h-0.8l0.3-1.2c0-0.1,0-0.2,0.1-0.3c0-0.1,0-0.2,0-0.3c0-0.1,0-0.2-0.1-0.3c0,0-0.1-0.1-0.2-0.1
		c-0.1,0-0.1,0-0.2,0.1s-0.2,0.1-0.2,0.2c-0.1,0.1-0.2,0.2-0.2,0.3c-0.1,0.1-0.1,0.2-0.1,0.4L39.8,16h-0.4l0.3-1.2
		c0-0.2,0.1-0.3,0.1-0.3c0-0.1,0-0.1,0-0.2c0-0.1,0-0.2-0.1-0.3c0,0-0.1-0.1-0.2-0.1c-0.1,0-0.1,0-0.2,0.1c-0.1,0.1-0.2,0.1-0.3,0.2
		s-0.2,0.2-0.2,0.3c-0.1,0.1-0.1,0.2-0.1,0.4L38.5,16h-0.4l0.4-1.7c0,0,0-0.1,0-0.2s0-0.1,0-0.2c0,0,0-0.1,0-0.1c0,0,0,0-0.1-0.1
		c0,0-0.1,0-0.2,0l0-0.1l0.6,0H39l-0.2,0.6l0,0c0.1-0.2,0.3-0.4,0.4-0.5c0.1-0.1,0.3-0.2,0.4-0.2c0.2,0,0.3,0,0.4,0.1
		C40.2,13.8,40.2,14,40.2,14.1z"/>
	<path class="st0" d="M43.6,15.5c-0.1,0.1-0.2,0.2-0.3,0.3S43,15.9,42.9,16c-0.1,0-0.2,0-0.4,0c-0.1,0-0.2,0-0.3-0.1
		c-0.1,0-0.2-0.1-0.2-0.2c-0.1-0.1-0.1-0.2-0.1-0.3c0-0.1,0-0.2,0-0.3c0-0.2,0-0.4,0.1-0.6c0.1-0.2,0.2-0.4,0.3-0.5
		c0.1-0.2,0.3-0.3,0.5-0.4c0.2-0.1,0.4-0.1,0.6-0.1c0.2,0,0.3,0,0.4,0.1s0.1,0.2,0.1,0.4c0,0.3-0.1,0.5-0.4,0.6s-0.6,0.2-1.2,0.2
		c0,0.1,0,0.2,0,0.3c0,0.2,0,0.3,0.1,0.4c0.1,0.1,0.2,0.1,0.3,0.1c0.1,0,0.3,0,0.4-0.1c0.1-0.1,0.2-0.2,0.4-0.3L43.6,15.5z
		 M42.3,14.7c0.1,0,0.3,0,0.4,0c0.1,0,0.2,0,0.3-0.1c0.1,0,0.1-0.1,0.2-0.1s0.1-0.1,0.1-0.1c0,0,0.1-0.1,0.1-0.1c0,0,0-0.1,0-0.2
		c0-0.1,0-0.2-0.1-0.2c0-0.1-0.1-0.1-0.2-0.1c-0.1,0-0.2,0-0.3,0.1c-0.1,0.1-0.2,0.2-0.3,0.3C42.4,14.4,42.3,14.6,42.3,14.7z"/>
	<path class="st0" d="M45.9,16h-0.8l0.3-1.2c0-0.1,0-0.2,0.1-0.3s0-0.2,0-0.3c0-0.1,0-0.2-0.1-0.2s-0.1-0.1-0.2-0.1
		c-0.1,0-0.1,0-0.2,0.1c-0.1,0.1-0.2,0.1-0.2,0.2c-0.1,0.1-0.2,0.2-0.2,0.3c-0.1,0.1-0.1,0.2-0.1,0.4L44.3,16h-0.4l0.4-1.7
		c0,0,0-0.1,0-0.2s0-0.1,0-0.2c0,0,0-0.1,0-0.1c0,0,0,0-0.1-0.1c0,0-0.1,0-0.2,0l0-0.1l0.6,0h0.1l-0.2,0.6l0,0
		c0.2-0.2,0.3-0.4,0.5-0.5c0.1-0.1,0.3-0.2,0.4-0.2c0.2,0,0.3,0,0.4,0.1C46,13.8,46,14,46,14.1c0,0.1,0,0.1,0,0.2c0,0.1,0,0.1,0,0.2
		l-0.2,0.9c0,0.1,0,0.2,0,0.3c0,0,0,0.1,0,0.1c0,0,0,0,0.1,0.1s0.1,0,0.2,0L45.9,16z"/>
</g>
</svg>
