<?xml version="1.0" encoding="utf-8"?>
<!-- Generator: Adobe Illustrator 19.0.0, SVG Export Plug-In . SVG Version: 6.00 Build 0)  -->
<svg version="1.1" id="Layer_1" xmlns="http://www.w3.org/2000/svg" xmlns:xlink="http://www.w3.org/1999/xlink" x="0px" y="0px"
	 viewBox="0 0 80.8592606 13.6845474" style="enable-background:new 0 0 80.8592606 13.6845474;" xml:space="preserve">
<style type="text/css">
	.st0{fill:#FF0036;}
</style>
<g>
	<path class="st0" d="M3.8157132,2.4980874v8.8574219h4.9970703c0.3984375,0,0.7041016,0.0966797,0.9174805,0.2910156
		c0.2128906,0.1933594,0.3193359,0.4365234,0.3193359,0.7304688c0,0.2988281-0.1049805,0.5400391-0.3154297,0.7255859
		s-0.5175781,0.2783203-0.9213867,0.2783203H2.8611233c-0.5366211,0-0.9228516-0.1191406-1.1582031-0.3574219
		c-0.2348633-0.2373047-0.3525391-0.6220703-0.3525391-1.1533203V2.4980874c0-0.4980469,0.1123047-0.8710939,0.3359375-1.1201173
		C1.910928,1.1289467,2.2053616,1.0039467,2.570596,1.0039467c0.3706055,0,0.6708984,0.1240234,0.9008789,0.3701172
		C3.7009671,1.6201576,3.8157132,1.9951576,3.8157132,2.4980874z"/>
	<path class="st0" d="M17.9866123,3.1133218h-5.5532236V6.101603h5.1132822c0.3764648,0,0.6572266,0.0839844,0.8422852,0.2529297
		c0.1855469,0.1689453,0.2783203,0.3916016,0.2783203,0.6679688s-0.0913086,0.5019531-0.2739258,0.6767578
		c-0.1826172,0.1738281-0.4648438,0.2617188-0.8466797,0.2617188h-5.1132822v3.460937h5.7441416
		c0.387207,0,0.6791992,0.0898438,0.8754883,0.2695313c0.1967773,0.1796875,0.2949219,0.4199219,0.2949219,0.71875
		c0,0.2871094-0.0981445,0.5214844-0.2949219,0.7011719c-0.1962891,0.1796875-0.4882813,0.2695313-0.8754883,0.2695313h-6.6987314
		c-0.5366211,0-0.9228516-0.1191406-1.1582031-0.3574219c-0.2348633-0.2373047-0.3525391-0.6220703-0.3525391-1.1533203V2.7226968
		c0-0.3544922,0.0527344-0.6435547,0.1577148-0.8671876c0.1049805-0.2246094,0.2700195-0.3876953,0.4936523-0.4902344
		c0.2246094-0.1025391,0.5107422-0.1533203,0.859375-0.1533203h6.5078135c0.3930664,0,0.6845703,0.0869141,0.8759766,0.2617188
		c0.1904297,0.1738281,0.2861328,0.4023438,0.2861328,0.6845704c0,0.2880859-0.0957031,0.5185547-0.2861328,0.6933594
		C18.6711826,3.0254312,18.3796787,3.1133218,17.9866123,3.1133218z"/>
	<path class="st0" d="M26.2654209,11.5469151l-1.9501953-7.7539058v8.4003906c0,0.4648438-0.1035156,0.8144531-0.3115234,1.046875
		c-0.2070313,0.2324219-0.4824219,0.3476563-0.8256836,0.3476563c-0.3320313,0-0.6030273-0.1142578-0.8134766-0.34375
		s-0.3154297-0.5800781-0.3154297-1.0507813V2.5644937c0-0.53125,0.1381836-0.888672,0.4150391-1.0742189
		s0.6503906-0.2783203,1.1206055-0.2783203h0.7636719c0.4594727,0,0.7929688,0.0419922,1,0.1240234
		c0.2080078,0.0839844,0.3613281,0.2324219,0.4609375,0.4492188c0.0996094,0.2148439,0.2128906,0.5664064,0.340332,1.0537111
		l1.7680664,6.6650386l1.7685547-6.6650386c0.1269531-0.4873047,0.2402344-0.8388672,0.3398438-1.0537111
		c0.0996094-0.2167969,0.2529297-0.3652344,0.4609375-0.4492188c0.2070313-0.0820313,0.5410156-0.1240234,1-0.1240234h0.76367
		c0.4707031,0,0.84375,0.0927734,1.1210938,0.2783203c0.2763672,0.1855469,0.4140625,0.5429689,0.4140625,1.0742189v9.6289063
		c0,0.4648438-0.1035156,0.8144531-0.3105469,1.046875c-0.2080078,0.2324219-0.4863281,0.3476563-0.8339844,0.3476563
		c-0.3271484,0-0.5957031-0.1152344-0.8056622-0.3476563c-0.2099609-0.2324219-0.3154297-0.5820313-0.3154297-1.046875V3.7930093
		l-1.9511719,7.7539058c-0.1269531,0.5029297-0.2304688,0.8720703-0.3105469,1.1074219s-0.2285156,0.4501953-0.4443359,0.6435547
		s-0.5146484,0.2900391-0.8964844,0.2900391c-0.2880859,0-0.53125-0.0615234-0.7304688-0.1865234
		c-0.1992188-0.1240234-0.3544922-0.2832031-0.4648438-0.4775391c-0.1113281-0.1933594-0.1972656-0.4072266-0.2617188-0.6425781
		C26.3972569,12.0459385,26.3318272,11.8008213,26.2654209,11.5469151z"/>
	<path class="st0" d="M34.6345596,8.350626V2.4980874c0-0.4980469,0.1123047-0.8710939,0.3359375-1.1201173
		c0.2246094-0.2490234,0.5185547-0.3740234,0.8837891-0.3740234c0.3828125,0,0.6855469,0.125,0.9091797,0.3740234
		c0.2246094,0.2490234,0.3369141,0.6220704,0.3369141,1.1201173v5.9853511c0,0.6806641,0.0751953,1.2490234,0.2275391,1.7060547
		c0.1523438,0.4560547,0.421875,0.8105469,0.8095703,1.0625s0.9296875,0.3769531,1.6269531,0.3769531
		c0.9628906,0,1.6435547-0.2558594,2.0419922-0.7675781s0.5976563-1.2880859,0.5976563-2.328125V2.4980874
		c0-0.5029298,0.1103516-0.8779298,0.3320313-1.1240236s0.5175781-0.3701172,0.8876953-0.3701172
		c0.3710938,0,0.671875,0.1240234,0.9013672,0.3701172s0.3447266,0.6210938,0.3447266,1.1240236V8.350626
		c0,0.9521484-0.0927734,1.7460938-0.2783203,2.3818359c-0.1855469,0.6367188-0.5361328,1.1953125-1.0498047,1.6777344
		c-0.4433594,0.4091797-0.9580078,0.7080078-1.5449219,0.8964844c-0.5859375,0.1875-1.2724609,0.28125-2.0585938,0.28125
		c-0.9345703,0-1.7402344-0.1005859-2.4150391-0.3027344s-1.2255859-0.5146484-1.6513672-0.9375
		c-0.4267578-0.4238281-0.7392578-0.9658203-0.9384766-1.6269531S34.6345596,9.2695713,34.6345596,8.350626z"/>
	<path class="st0" d="M53.1047745,3.1133218h-4.8554688v3.1123047h4.0585938c0.3759766,0,0.6572266,0.0839844,0.8427734,0.2529297
		s0.2783203,0.3945313,0.2783203,0.6767578s-0.0947266,0.5068359-0.2832031,0.6728516
		c-0.1875,0.1660156-0.4667969,0.2480464-0.8378906,0.2480464h-4.0585938v4.0097656
		c0,0.5087891-0.1152344,0.8867188-0.3447266,1.1328125s-0.5244141,0.3691406-0.8837891,0.3691406
		c-0.3652344,0-0.6630859-0.1240234-0.8925781-0.3730469s-0.3447266-0.625-0.3447266-1.1289063V2.7226968
		c0-0.3544922,0.0527344-0.6435547,0.1572266-0.8671876c0.1054688-0.2246094,0.2705078-0.3876953,0.4941406-0.4902344
		c0.2246094-0.1025391,0.5107422-0.1533203,0.859375-0.1533203h5.8105469c0.3925781,0,0.6845703,0.0869141,0.8759766,0.2617188
		c0.1904297,0.1738281,0.2861328,0.4023438,0.2861328,0.6845704c0,0.2880859-0.0957031,0.5185547-0.2861328,0.6933594
		C53.7893448,3.0254312,53.4973526,3.1133218,53.1047745,3.1133218z"/>
	<path class="st0" d="M61.6721573,3.1133218h-4.8554688v3.1123047h4.0585938c0.3759766,0,0.6572266,0.0839844,0.8427734,0.2529297
		S61.996376,6.8730874,61.996376,7.155314s-0.0947266,0.5068359-0.2832031,0.6728516
		c-0.1875,0.1660156-0.4667969,0.2480464-0.8378906,0.2480464h-4.0585938v4.0097656
		c0,0.5087891-0.1152344,0.8867188-0.3447266,1.1328125s-0.5244141,0.3691406-0.8837891,0.3691406
		c-0.3652344,0-0.6630859-0.1240234-0.8925781-0.3730469s-0.3447266-0.625-0.3447266-1.1289063V2.7226968
		c0-0.3544922,0.0527344-0.6435547,0.1572266-0.8671876c0.1054688-0.2246094,0.2705078-0.3876953,0.4941406-0.4902344
		c0.2246094-0.1025391,0.5107422-0.1533203,0.859375-0.1533203h5.8105469c0.3925781,0,0.6845703,0.0869141,0.8759766,0.2617188
		c0.1904297,0.1738281,0.2861328,0.4023438,0.2861328,0.6845704c0,0.2880859-0.0957031,0.5185547-0.2861328,0.6933594
		C62.3567276,3.0254312,62.0647354,3.1133218,61.6721573,3.1133218z"/>
	<path class="st0" d="M63.0676651,12.0859776V2.4980874c0-0.4980469,0.1132813-0.8710939,0.3398438-1.1201173
		c0.2275391-0.2490234,0.5205078-0.3740234,0.8808594-0.3740234c0.3701172,0,0.6708984,0.1240234,0.9003906,0.3701172
		s0.34375,0.6210938,0.34375,1.1240236v9.5878906c0,0.5039063-0.1142578,0.8798828-0.34375,1.1289063
		s-0.5302734,0.3730469-0.9003906,0.3730469c-0.3544922,0-0.6464844-0.125-0.8759766-0.3769531
		S63.0676651,12.5840244,63.0676651,12.0859776z"/>
	<path class="st0" d="M69.8020401,2.4824624l4.7392578,7.1718745V2.4160562c0-0.4707032,0.1005859-0.8232423,0.3027344-1.0585939
		s0.4746094-0.3535156,0.8173828-0.3535156c0.3544922,0,0.6337891,0.1181641,0.8388672,0.3535156
		s0.3076172,0.5878906,0.3076172,1.0585939v9.5703125c0,1.0683594-0.4433594,1.6015625-1.328125,1.6015625
		c-0.2216797,0-0.4208984-0.03125-0.5976563-0.0947266c-0.1777344-0.0634766-0.34375-0.1650391-0.4980469-0.3037109
		c-0.1552734-0.1376953-0.2988281-0.2998047-0.4316406-0.4853516s-0.265625-0.375-0.3984375-0.5683594l-4.6240234-7.0888667
		v7.1308589c0,0.4648438-0.1083984,0.8154297-0.3232422,1.0537109c-0.2167969,0.2382813-0.4931641,0.3564453-0.8300781,0.3564453
		c-0.3496094,0-0.6289063-0.1201172-0.8388672-0.3603516c-0.2099609-0.2412109-0.3154297-0.5908203-0.3154297-1.0498047V2.789103
		c0-0.3984375,0.0439453-0.7109375,0.1328125-0.9375001c0.1054688-0.25,0.2792969-0.453125,0.5234375-0.6103516
		c0.2431641-0.1582031,0.5058594-0.2373047,0.7880859-0.2373047c0.2216797,0,0.4111328,0.0361328,0.5683594,0.1083984
		c0.1582031,0.0722656,0.2958984,0.1689453,0.4150391,0.2900391c0.1191406,0.1220703,0.2412109,0.2802734,0.3652344,0.4736328
		C69.5403214,2.0693765,69.6692276,2.2715249,69.8020401,2.4824624z"/>
	<path class="st0" d="M78.7258682,13.5879307c-0.3427734,0-0.6396484-0.1103516-0.8876953-0.3320313
		c-0.25-0.2207031-0.3740234-0.53125-0.3740234-0.9296875c0-0.3369141,0.1191406-0.6279297,0.3564453-0.8710938
		c0.2382813-0.2431641,0.53125-0.3652344,0.8808594-0.3652344c0.3476563,0,0.6455078,0.1201172,0.8916016,0.3613281
		c0.2460938,0.2402344,0.3701172,0.5322266,0.3701172,0.875c0,0.3935547-0.1240234,0.7021484-0.3701172,0.9257813
		C79.346962,13.4766026,79.0578995,13.5879307,78.7258682,13.5879307z"/>
</g>
</svg>
