<?xml version="1.0" encoding="utf-8"?>
<!-- Generator: Adobe Illustrator 19.0.0, SVG Export Plug-In . SVG Version: 6.00 Build 0)  -->
<svg version="1.1" id="Layer_1" xmlns="http://www.w3.org/2000/svg" xmlns:xlink="http://www.w3.org/1999/xlink" x="0px" y="0px"
	 viewBox="0 0 86.3747787 9.0533209" style="enable-background:new 0 0 86.3747787 9.0533209;" xml:space="preserve">
<style type="text/css">
	.st0{fill:#B2B2B2;}
	.st1{fill:#F1FF18;}
</style>
<g>
	<path class="st0" d="M0,0.1492962h3.7162395c0.8093801,0,1.4154754,0.2329021,1.8187551,0.6987062
		c0.4028101,0.4658042,0.6044502,1.1286793,0.6044502,1.9886253c0,0.8838334-0.219501,1.5745771-0.6589727,2.0722311
		c-0.439002,0.497654-1.1094899,0.7464809-2.0109949,0.7464809H2.2455366v3.2486854H0V0.1492962z M2.2455366,3.881701h0.5478122
		c0.4310112,0,0.7337062-0.0904307,0.9080849-0.2715769C3.8758125,3.428978,3.9630017,3.1969292,3.9630017,2.9142616
		c0-0.2747049-0.0756738-0.507607-0.2270212-0.6987062C3.5846329,2.0244563,3.3000338,1.9289068,2.8821831,1.9289068H2.2455366
		V3.881701z"/>
	<path class="st0" d="M6.926734,4.5326324c0-1.4292622,0.3290162-2.5420165,0.9870491-3.3382628S9.4881258,0,10.662714,0
		c1.2041998,0,2.1320257,0.3910138,2.7834787,1.1736102c0.6514521,0.7820277,0.9771786,1.8780038,0.9771786,3.2873602
		c0,1.0231762-0.142417,1.8623633-0.4267817,2.5172758c-0.2848339,0.6549125-0.696104,1.1642261-1.2338114,1.5287929
		c-0.5381765,0.3639984-1.2084293,0.5462818-2.0112295,0.5462818c-0.8159609,0-1.4913845-0.157258-2.0258007-0.471776
		c-0.5348864-0.314517-0.9682479-0.812171-1.3005543-1.4929619C7.0928869,6.4077926,6.926734,5.555809,6.926734,4.5326324z
		 M9.1624002,4.5445762c0,0.8838334,0.1358366,1.5188398,0.4070396,1.9050193
		c0.2716732,0.3861794,0.6408768,0.5792694,1.1080799,0.5792694c0.4803638,0,0.8521528-0.1891088,1.115366-0.5673256
		C12.0560989,6.083322,12.187705,5.4045219,12.187705,4.425139c0-0.8241148-0.1374817-1.4261339-0.4119759-1.8063416
		c-0.2749634-0.3802075-0.6474571-0.5704536-1.1179504-0.5704536c-0.4507523,0-0.8126698,0.1930897-1.0857534,0.5792694
		S9.1624002,3.6527801,9.1624002,4.5445762z"/>
	<path class="st0" d="M14.6085606,0.1492962h2.1235657l0.764492,4.9011807l1.1188908-4.9011807h2.1158104l1.1217098,4.89464
		l0.7651978-4.89464h2.1125202l-1.5947895,8.7547293h-2.1924229l-1.2688274-5.5120153l-1.2641277,5.5120153h-2.1924248
		L14.6085606,0.1492962z"/>
	<path class="st0" d="M25.3551731,0.1492962h5.9913883v1.8691884h-3.7507858V3.409925h3.4793472v1.7855825h-3.4793472v1.7258639
		h3.8593616v1.9826536h-6.0999641V0.1492962z"/>
	<path class="st0" d="M32.5878944,8.9040251V0.1492962h3.7263451c0.6909332,0,1.2187691,0.0716622,1.5839767,0.2149865
		s0.6594429,0.4089294,0.8836441,0.7973838c0.2232628,0.3878858,0.335598,0.8607992,0.335598,1.4181718
		c0,0.4857101-0.0860138,0.9045928-0.257103,1.257216c-0.1710892,0.3520546-0.4065704,0.6378503-0.7059746,0.8568182
		c-0.1908302,0.1393428-0.4526329,0.2547984-0.7854118,0.3463669c0.2665062,0.1077776,0.4606247,0.215271,0.5823593,0.3227644
		c0.0817833,0.0716619,0.2011719,0.225224,0.3572197,0.4604011c0.156517,0.235177,0.2608604,0.4163227,0.3135033,0.5437222
		l1.0824661,2.5368981h-2.5263748l-1.1948013-2.6753879c-0.1513481-0.3463674-0.2862434-0.5713067-0.4046898-0.674819
		c-0.1612167-0.1353617-0.344059-0.2030425-0.5475769-0.2030425h-0.1974106v3.5532494H32.5878944z M34.8336639,3.6965737h0.9423981
		c0.1019936,0,0.2994041-0.0398123,0.5922279-0.119437c0.148056-0.035831,0.2688522-0.1273994,0.3628578-0.2747049
		c0.0935364-0.1473057,0.1405373-0.3165081,0.1405373-0.5076072c0-0.2826674-0.0742645-0.4996445-0.2218513-0.6509314
		c-0.1485252-0.1512867-0.4263115-0.2269301-0.8342896-0.2269301h-0.9818802V3.6965737z"/>
	<path class="st0" d="M40.3291779,0.1492962h5.5274734v1.881132h-3.2817039v1.5287931h2.8032188v1.7676668h-2.8032188v3.577137
		h-2.2457695V0.1492962z"/>
	<path class="st0" d="M51.6677856,0.1492962h2.230732v5.2159824c0,0.5172758-0.0667458,1.0055451-0.1997604,1.4650931
		c-0.1334877,0.459548-0.3421783,0.8613677-0.6270142,1.2054605c-0.2843628,0.3440914-0.5832977,0.5858097-0.8953934,0.725152
		c-0.4342995,0.1947966-0.956028,0.2923365-1.5647087,0.2923365c-0.352047,0-0.7360535-0.0298595-1.1524963-0.0895777
		c-0.4159698-0.0597181-0.7642555-0.1780176-1.0439224-0.3551826c-0.2796631-0.1768808-0.5353546-0.4285507-0.7673111-0.7547278
		c-0.232193-0.3261766-0.3910599-0.6623063-0.4766045-1.0086737c-0.1381874-0.5568037-0.20681-1.0501919-0.20681-1.4798803
		V0.1492962h2.2309647v5.3402534c0,0.4771795,0.1090469,0.8502774,0.3280754,1.1187263
		c0.2185631,0.2684488,0.5221977,0.4026732,0.9104385,0.4026732c0.3849487,0,0.6867027-0.1322336,0.905735-0.3967013
		c0.2185593-0.2644677,0.3280754-0.6395564,0.3280754-1.1246982V0.1492962z"/>
	<path class="st0" d="M55.2785034,0.1492962h2.2359009V6.748188h3.4889832v2.1558371h-5.724884V0.1492962z"/>
	<path class="st1" d="M65.0479355,0.1492962h1.8110046V6.748188h2.8262482v2.1558371h-4.6372528V0.1492962z"/>
	<path class="st1" d="M70.4988022,0.1492962h1.8147583v8.7547293h-1.8147583V0.1492962z"/>
	<path class="st1" d="M73.5389099,0.1492962h4.4769745v1.881132h-2.6579819v1.5287931h2.2702103v1.7676668h-2.2702103v3.577137
		h-1.8189926V0.1492962z"/>
	<path class="st1" d="M78.9051666,0.1492962h4.8529892v1.8691884h-3.0377579V3.409925h2.8182602v1.7855825h-2.8182602v1.7258639
		h3.1256561v1.9826536h-4.9408875V0.1492962z"/>
	<path class="st1" d="M84.6361618,6.4675112h1.7386169v2.4365139h-1.7386169V6.4675112z"/>
</g>
</svg>
