<?xml version="1.0" encoding="utf-8"?>
<!-- Generator: Adobe Illustrator 19.0.0, SVG Export Plug-In . SVG Version: 6.00 Build 0)  -->
<svg version="1.1" id="Layer_1" xmlns="http://www.w3.org/2000/svg" xmlns:xlink="http://www.w3.org/1999/xlink" x="0px" y="0px"
	 viewBox="0 0 103 42.2" style="enable-background:new 0 0 103 42.2;" xml:space="preserve">
<style type="text/css">
	.st0{display:none;}
	.st1{display:inline;}
	.st2{fill:#53B95D;}
	.st3{display:none;fill:#F69988;}
	.st4{display:inline;fill:#FFFFFF;}
	.st5{fill:#EA1B8B;}
	.st6{fill:#FFFFFF;}
</style>
<g class="st0">
	<g class="st1">
		<path class="st2" d="M7.1,18.8c0,0.5,0,1,0,1.2c0,0.3,0.1,0.5,0.2,0.7c0.1,0.2,0.2,0.3,0.3,0.4c0.1,0.1,0.3,0.2,0.5,0.3
			c0.2,0.1,0.5,0.2,0.9,0.2v1H0.7v-1c0.4-0.1,0.7-0.2,0.9-0.3c0.2-0.1,0.4-0.3,0.5-0.5c0.1-0.2,0.2-0.5,0.2-0.8c0-0.3,0-0.7,0-1.2
			V5.6c0-0.5,0-0.9,0-1.2c0-0.3-0.1-0.6-0.2-0.8C2,3.4,1.8,3.2,1.6,3.1C1.4,2.9,1.1,2.8,0.7,2.7v-1h14.9v4.9h-2.1
			c-0.3-1-0.6-1.6-0.9-2c-0.2-0.3-0.5-0.6-0.8-0.8c-0.3-0.2-0.9-0.3-1.7-0.3h-3v7.8h2c0.5,0,0.9-0.1,1.1-0.2
			c0.3-0.1,0.5-0.4,0.6-0.7c0.2-0.3,0.3-0.8,0.4-1.5H13v6.7h-1.7c-0.1-0.6-0.3-1.1-0.4-1.5c-0.2-0.4-0.4-0.6-0.6-0.7
			c-0.3-0.1-0.6-0.2-1.1-0.2h-2V18.8z"/>
		<path class="st2" d="M16.4,21.7c0.5-0.1,0.8-0.3,1-0.5c0.2-0.2,0.3-0.5,0.4-0.9s0.1-1,0.1-2v-7.1c0-0.5,0-0.9-0.1-1.2
			c0-0.3-0.1-0.6-0.3-0.7c-0.1-0.2-0.3-0.3-0.5-0.4c-0.2-0.1-0.5-0.2-0.9-0.3v-1l4.2-0.1h1.9v10.9c0,0.6,0,1,0,1.3
			c0,0.3,0,0.6,0.1,0.7c0,0.2,0.1,0.3,0.1,0.5c0.1,0.1,0.1,0.3,0.2,0.4c0.1,0.1,0.2,0.2,0.4,0.3c0.2,0.1,0.4,0.2,0.7,0.2v1h-7.5
			V21.7z M22.3,1.3v3.8H18V1.3H22.3z"/>
		<path class="st2" d="M35.4,20.8c-0.9,0.8-1.7,1.3-2.5,1.6c-0.7,0.3-1.5,0.5-2.3,0.5c-1.5,0-2.7-0.4-3.4-1.2
			c-0.8-0.8-1.1-2.1-1.1-3.7V9.4h-1.9V8.3c0.6-0.1,1.1-0.3,1.4-0.5C25.8,7.6,26,7.4,26.2,7c0.2-0.3,0.3-0.8,0.4-1.3
			c0.1-0.6,0.2-1.2,0.2-2.1h3.7v3.8h4.4v1.9h-4.4v6.9c0,1.2,0.1,2,0.2,2.6c0.1,0.6,0.3,1,0.5,1.2c0.3,0.3,0.6,0.4,1,0.4
			c0.3,0,0.5,0,0.8-0.1c0.2-0.1,0.5-0.1,0.7-0.3c0.3-0.1,0.5-0.3,0.8-0.6L35.4,20.8z"/>
		<path class="st2" d="M43.1,1.7c1.7,0,3.1,0.1,4.3,0.4c1.1,0.3,2.2,0.7,3.1,1.3c0.9,0.6,1.6,1.3,2.2,2.1c0.5,0.8,1,1.7,1.2,2.8
			c0.3,1.1,0.4,2.2,0.4,3.6c0,1.6-0.2,3-0.6,4.3c-0.4,1.3-0.9,2.4-1.7,3.3c-0.7,0.8-1.5,1.5-2.5,2c-1,0.5-2.1,0.9-3.3,1.1
			c-1.1,0.2-2.5,0.3-4.1,0.3h-7v-1c0.4-0.1,0.7-0.2,0.9-0.3c0.2-0.1,0.4-0.3,0.5-0.5s0.2-0.5,0.2-0.8c0-0.3,0-0.7,0-1.2V5.6
			c0-0.5,0-0.9,0-1.2c0-0.3-0.1-0.6-0.2-0.8c-0.1-0.2-0.3-0.4-0.5-0.5c-0.2-0.1-0.5-0.2-0.9-0.3v-1H43.1z M41.5,20.8
			c0.2,0,0.7,0,1.4,0c1.1,0,2.1-0.2,2.8-0.5c0.6-0.2,1.1-0.6,1.5-1c0.7-0.7,1.2-1.6,1.5-2.8c0.4-1.2,0.6-2.7,0.6-4.5
			c0-1.9-0.3-3.6-0.8-4.8C47.9,6,47.2,5,46.3,4.4s-2.1-0.9-3.4-0.9c-0.6,0-1.1,0-1.4,0V20.8z"/>
		<path class="st2" d="M64.7,20.7l-0.2-0.1c-0.8,0.8-1.7,1.4-2.5,1.8c-0.8,0.4-1.6,0.6-2.5,0.6c-0.9,0-1.6-0.2-2.3-0.5
			c-0.7-0.3-1.1-0.8-1.5-1.3c-0.3-0.6-0.5-1.2-0.5-2c0-1.5,0.7-2.7,2.2-3.6c1.5-0.9,3.7-1.4,6.7-1.6v-1.5c0-1-0.1-1.7-0.3-2.2
			c-0.2-0.5-0.5-0.9-0.8-1.1c-0.3-0.2-0.7-0.3-1.2-0.3c-0.5,0-0.9,0.1-1.2,0.2C60.3,9.3,60,9.6,59.7,10c-0.3,0.5-0.5,1.1-0.6,1.9
			h-2.9V9.1c0.9-0.4,1.7-0.7,2.4-1c0.6-0.2,1.2-0.4,1.9-0.6C61,7.4,61.5,7.3,62,7.3c0.5-0.1,1-0.1,1.4-0.1c1.2,0,2.2,0.2,3,0.5
			c0.7,0.3,1.3,0.9,1.7,1.6c0.4,0.7,0.6,1.8,0.6,3.1v6c0,0.7,0,1.2,0,1.6c0,0.4,0.1,0.6,0.1,0.8c0.1,0.2,0.2,0.3,0.3,0.4
			c0.1,0.1,0.2,0.2,0.4,0.3c0.1,0.1,0.4,0.2,0.8,0.3v1h-5.7L64.7,20.7z M64.2,15.4c-1.6,0-2.8,0.3-3.5,0.9c-0.8,0.6-1.1,1.4-1.1,2.4
			c0,0.6,0.2,1.1,0.5,1.5c0.3,0.3,0.8,0.5,1.4,0.5c0.5,0,0.9-0.1,1.3-0.4c0.4-0.3,0.8-0.6,1-1c0.2-0.4,0.4-0.9,0.4-1.3V15.4z"/>
		<path class="st2" d="M71,21.7c0.5-0.1,0.8-0.3,1-0.5c0.2-0.2,0.3-0.5,0.4-0.9c0.1-0.4,0.1-1,0.1-2v-7.1c0-0.5,0-0.9-0.1-1.2
			c0-0.3-0.1-0.6-0.3-0.7c-0.1-0.2-0.3-0.3-0.5-0.4c-0.2-0.1-0.5-0.2-0.9-0.3v-1l4.2-0.1H77v10.9c0,0.6,0,1,0,1.3
			c0,0.3,0,0.6,0.1,0.7c0,0.2,0.1,0.3,0.1,0.5c0.1,0.1,0.1,0.3,0.2,0.4c0.1,0.1,0.2,0.2,0.4,0.3c0.2,0.1,0.4,0.2,0.7,0.2v1H71V21.7z
			 M76.9,1.3v3.8h-4.2V1.3H76.9z"/>
		<path class="st2" d="M85.2,18.2c0,1,0,1.6,0.1,2c0.1,0.4,0.2,0.7,0.4,0.9c0.2,0.2,0.5,0.4,1.1,0.5v1h-7.5v-1
			c0.3-0.1,0.5-0.2,0.7-0.3c0.2-0.1,0.3-0.2,0.4-0.3c0.1-0.1,0.2-0.3,0.3-0.5c0.1-0.2,0.1-0.5,0.1-0.8c0-0.4,0-0.9,0-1.5v-12
			c0-0.9,0-1.5,0-1.9c0-0.4,0-0.8-0.1-1c0-0.3-0.1-0.5-0.2-0.7c-0.1-0.2-0.3-0.3-0.5-0.4c-0.2-0.1-0.5-0.2-0.9-0.3v-1l4.3-0.2h1.9
			V18.2z"/>
		<path class="st2" d="M94.7,23.4c-0.7,1.5-1.3,2.7-1.9,3.5c-0.6,0.8-1.2,1.5-1.9,1.9c-0.7,0.4-1.5,0.6-2.5,0.6
			c-0.8,0-1.5-0.1-2.2-0.3v-3.5h1.7c0.1,0.5,0.3,0.8,0.5,1c0.2,0.2,0.5,0.3,0.8,0.3c0.4,0,0.7-0.1,1.1-0.3c0.3-0.2,0.7-0.6,1.1-1.2
			c0.4-0.6,0.9-1.5,1.5-2.6h-0.9l-4-11.5c-0.3-0.8-0.5-1.4-0.7-1.7c-0.2-0.3-0.4-0.5-0.6-0.7s-0.5-0.3-0.8-0.3v-1h7.7v1
			c-0.5,0.1-0.8,0.2-1.1,0.4c-0.2,0.2-0.3,0.5-0.3,0.8c0,0.5,0.1,1.1,0.4,1.9l2.2,6.7l2.4-5.9c0.2-0.5,0.4-0.9,0.5-1.3
			c0.1-0.4,0.2-0.7,0.2-1.1c0-0.4-0.1-0.8-0.4-1.1c-0.2-0.3-0.6-0.5-1-0.5v-1h6v1c-0.3,0.1-0.5,0.2-0.7,0.3
			c-0.2,0.1-0.3,0.3-0.5,0.5c-0.2,0.2-0.4,0.5-0.6,1c-0.2,0.4-0.5,1.1-0.9,1.9L94.7,23.4z"/>
	</g>
</g>
<g class="st0">
	<g class="st1">
		<path class="st2" d="M72.5,28.8h2.9l-0.1,0.5c-0.2,0-0.4,0.1-0.5,0.2c-0.1,0.1-0.2,0.2-0.3,0.3c-0.1,0.1-0.2,0.3-0.2,0.6
			c-0.1,0.3-0.2,0.7-0.3,1.3l-1.6,7.2c-0.1,0.4-0.1,0.7-0.2,0.9c0,0.2,0,0.4,0,0.6c0,0.3,0.1,0.5,0.2,0.6c0.1,0.1,0.4,0.2,0.7,0.2
			L73,41.3h-3.7l0.1-0.5c0.2,0,0.4-0.1,0.5-0.2c0.1-0.1,0.2-0.2,0.3-0.3s0.2-0.3,0.2-0.5c0.1-0.2,0.2-0.6,0.3-1.2L72,33
			c0.2-0.7,0.4-1.5,0.6-2.4h-0.1c-0.2,0.3-0.4,0.6-0.5,1c-0.2,0.3-0.4,0.7-0.8,1.3l-4.2,6.9h-1L65,33l-0.2-2.5h-0.2
			c-0.2,1.5-0.5,2.8-0.7,3.9l-0.9,4c-0.1,0.5-0.2,0.8-0.2,1c0,0.2,0,0.4,0,0.6c0,0.3,0.1,0.5,0.2,0.6c0.1,0.1,0.4,0.2,0.7,0.2
			l-0.1,0.5h-3.2l0.1-0.5c0.2,0,0.4-0.1,0.5-0.2c0.1-0.1,0.2-0.2,0.3-0.3s0.2-0.3,0.2-0.5c0.1-0.2,0.2-0.6,0.3-1.2l1.6-7.1
			c0.1-0.3,0.1-0.5,0.1-0.8c0-0.2,0.1-0.5,0.1-0.7c0-0.3-0.1-0.5-0.2-0.6c-0.1-0.1-0.4-0.2-0.7-0.2l0.1-0.5h3.3l1.1,8.9L72.5,28.8z"
			/>
		<path class="st2" d="M75.4,32.5h2.9l-1.2,4.7c-0.1,0.3-0.2,0.7-0.2,1c-0.1,0.3-0.1,0.7-0.1,0.9c0,0.4,0.1,0.7,0.2,0.9
			c0.2,0.2,0.4,0.3,0.7,0.3c0.3,0,0.5-0.1,0.9-0.3s0.6-0.5,1-1c0.3-0.4,0.6-0.8,0.8-1.2c0.2-0.4,0.4-0.8,0.5-1.4l0.8-4h1.6l-1.4,6.3
			c0,0.2-0.1,0.4-0.1,0.7c0,0.3-0.1,0.5-0.1,0.7c0,0.3,0.1,0.4,0.2,0.5c0.1,0.1,0.4,0.2,0.8,0.2l-0.1,0.5H80l0.6-2.3l-0.1,0
			c-0.6,0.8-1.2,1.5-1.7,1.9c-0.6,0.4-1.1,0.6-1.7,0.6c-0.6,0-1-0.2-1.4-0.5c-0.3-0.3-0.5-0.8-0.5-1.5c0-0.2,0-0.4,0.1-0.7
			c0-0.2,0.1-0.5,0.1-0.8l0.8-3.3c0.1-0.3,0.1-0.5,0.1-0.6c0-0.2,0-0.3,0-0.4c0-0.3-0.1-0.5-0.2-0.6C76,33.1,75.7,33,75.3,33
			L75.4,32.5z"/>
		<path class="st2" d="M89.2,34.7c-0.1-0.6-0.2-1-0.5-1.2c-0.2-0.2-0.6-0.4-1.2-0.4c-0.3,0-0.5,0.1-0.8,0.2
			c-0.2,0.1-0.4,0.3-0.6,0.5c-0.1,0.2-0.2,0.4-0.2,0.7c0,0.2,0,0.4,0.1,0.6c0.1,0.2,0.2,0.4,0.5,0.6c0.2,0.2,0.5,0.4,0.9,0.7
			c0.6,0.4,1,0.8,1.3,1.2c0.2,0.4,0.4,0.8,0.4,1.3c0,0.6-0.1,1.1-0.4,1.5c-0.3,0.4-0.7,0.7-1.1,0.9c-0.5,0.2-1,0.3-1.6,0.3
			c-0.5,0-1,0-1.5-0.1c-0.5-0.1-0.9-0.2-1.4-0.3l0.4-2h0.7c0,0.6,0.2,1,0.5,1.3c0.3,0.3,0.7,0.4,1.2,0.4c0.5,0,1-0.1,1.3-0.4
			c0.3-0.3,0.5-0.6,0.5-1.1c0-0.3,0-0.5-0.1-0.7c-0.1-0.2-0.2-0.4-0.4-0.6c-0.2-0.2-0.5-0.4-0.8-0.7c-0.4-0.3-0.7-0.5-0.9-0.7
			c-0.2-0.2-0.4-0.5-0.6-0.8s-0.2-0.6-0.2-0.9c0-0.5,0.1-1,0.4-1.3c0.3-0.4,0.6-0.7,1.1-0.9c0.5-0.2,1-0.3,1.6-0.3
			c1,0,1.9,0.1,2.7,0.4L90,34.7H89.2z"/>
		<path class="st2" d="M92.3,39c-0.1,0.3-0.1,0.5-0.1,0.7c0,0.1,0,0.3,0,0.4c0,0.2,0,0.3,0.1,0.4c0.1,0.1,0.2,0.2,0.3,0.2
			c0.1,0.1,0.3,0.1,0.6,0.1l-0.1,0.5h-2.9l1.4-6.2c0.1-0.4,0.1-0.6,0.2-0.9c0-0.2,0-0.4,0-0.5c0-0.2,0-0.3-0.1-0.4
			c-0.1-0.1-0.1-0.2-0.3-0.2c-0.1,0-0.3-0.1-0.6-0.1l0.1-0.5l2.2-0.1h0.5L92.3,39z M94.6,28.9l-0.4,1.8h-1.6l0.4-1.8H94.6z"/>
		<path class="st2" d="M100.4,34.7c0-0.5-0.1-0.8-0.1-1c-0.1-0.2-0.2-0.4-0.3-0.5c-0.1-0.1-0.3-0.2-0.6-0.2c-0.6,0-1.2,0.2-1.7,0.7
			c-0.5,0.5-0.9,1.2-1.2,2.1S96,37.7,96,38.6c0,0.3,0,0.5,0.1,0.7c0,0.2,0.1,0.4,0.2,0.6c0.1,0.2,0.3,0.3,0.5,0.4
			c0.2,0.1,0.4,0.1,0.7,0.1c0.6,0,1-0.1,1.5-0.3c0.4-0.2,0.8-0.5,1.3-1l0.6,0.6c-0.6,0.6-1.2,1.1-1.7,1.4c-0.6,0.3-1.2,0.4-1.9,0.4
			c-0.9,0-1.6-0.3-2-0.8c-0.5-0.5-0.7-1.3-0.7-2.3c0-0.7,0.1-1.4,0.4-2.2c0.2-0.8,0.6-1.5,1.1-2.1c0.5-0.6,1-1,1.7-1.3
			c0.6-0.3,1.3-0.4,2-0.4c0.5,0,0.9,0,1.3,0.1c0.4,0.1,0.7,0.1,1,0.2l-0.5,2.1H100.4z"/>
	</g>
</g>
<rect id="XMLID_65_" x="-0.1" class="st3" width="103.6" height="42.2"/>
<g class="st0">
	<path class="st4" d="M29.5,22.9c-0.6,1.4-1.2,2.5-1.8,3.3c-0.6,0.8-1.2,1.5-1.9,1.9c-0.7,0.4-1.5,0.6-2.4,0.6c-0.6,0-1.3-0.1-2-0.2
		v-3.2h1.5c0.1,0.4,0.3,0.8,0.5,0.9c0.2,0.2,0.5,0.3,0.9,0.3c0.3,0,0.6-0.1,0.9-0.2c0.3-0.1,0.5-0.3,0.8-0.6c0.3-0.3,0.6-0.8,1-1.4
		c0.4-0.6,0.8-1.4,1.3-2.4L23.5,9.4c-0.3-0.8-0.5-1.4-0.7-1.7c-0.2-0.3-0.4-0.6-0.6-0.7c-0.2-0.2-0.5-0.3-1-0.4V5.8h6.7v0.8
		c-0.5,0.1-0.9,0.2-1.1,0.4c-0.2,0.1-0.4,0.3-0.5,0.4s-0.1,0.4-0.1,0.7c0,0.3,0,0.6,0.1,0.9c0.1,0.3,0.2,0.7,0.3,1.1l2.9,8.2
		l3.3-7.9c0.2-0.4,0.3-0.8,0.4-1.2c0.1-0.4,0.2-0.7,0.2-1c0-0.5-0.1-0.8-0.4-1.1c-0.3-0.2-0.7-0.4-1.3-0.6V5.8h6.1v0.8
		c-0.4,0.1-0.8,0.2-1,0.4s-0.5,0.5-0.7,0.9c-0.2,0.4-0.5,0.9-0.8,1.6L29.5,22.9z"/>
	<path class="st4" d="M44.2,21.8c-2.3,0-4-0.7-5.2-2c-1.2-1.3-1.8-3.3-1.8-5.9c0-1.8,0.3-3.3,0.9-4.6c0.6-1.2,1.5-2.2,2.6-2.8
		c1.1-0.6,2.3-0.9,3.7-0.9c2.3,0,4.1,0.7,5.3,2c1.2,1.4,1.8,3.3,1.8,5.9c0,1.8-0.3,3.3-0.9,4.6c-0.6,1.2-1.5,2.2-2.6,2.8
		C47,21.5,45.7,21.8,44.2,21.8z M40.3,13.5c0,2.3,0.4,4,1.1,5.2c0.7,1.2,1.7,1.8,3.1,1.8c0.7,0,1.4-0.2,1.9-0.5
		c0.5-0.4,0.9-0.8,1.3-1.4c0.3-0.6,0.6-1.3,0.7-2.1c0.1-0.8,0.2-1.6,0.2-2.5c0-1.6-0.2-2.9-0.5-4c-0.4-1.1-0.8-1.8-1.4-2.3
		c-0.6-0.5-1.3-0.7-2.1-0.7c-1.3,0-2.3,0.6-3,1.7S40.3,11.4,40.3,13.5z"/>
	<path class="st4" d="M67.9,7.5l-3-0.1l-0.1,0.2c0.3,0.3,0.6,0.8,0.8,1.4c0.2,0.6,0.3,1.2,0.3,1.9c0,1.8-0.5,3.2-1.6,4.1
		c-1.1,1-2.7,1.4-4.7,1.4c-0.9,0-1.7-0.1-2.3-0.3c-0.8,0.6-1.2,1.3-1.2,1.9c0,0.4,0.1,0.7,0.2,0.9c0.2,0.2,0.4,0.4,0.8,0.4
		c0.4,0.1,0.9,0.1,1.7,0.1h3.9c1.2,0,2.1,0.2,2.8,0.5c0.7,0.4,1.3,0.8,1.6,1.4c0.3,0.6,0.5,1.3,0.5,2.1c0,1-0.3,1.9-0.9,2.7
		c-0.6,0.8-1.4,1.4-2.6,1.9c-1.1,0.4-2.4,0.7-3.9,0.7c-1.1,0-2.1-0.1-3-0.2c-0.9-0.1-1.7-0.4-2.3-0.7c-0.7-0.3-1.2-0.7-1.5-1.2
		c-0.4-0.5-0.5-1.1-0.5-1.9c0-0.7,0.2-1.3,0.7-1.9c0.5-0.6,1.1-1.1,1.9-1.5c-0.5-0.2-0.9-0.5-1.2-0.9c-0.3-0.4-0.4-0.9-0.4-1.4
		c0-0.6,0.2-1.2,0.5-1.7c0.3-0.5,1-1.1,1.9-1.8c-0.8-0.5-1.4-1.1-1.8-1.9c-0.4-0.8-0.6-1.7-0.6-2.7c0-0.9,0.2-1.8,0.5-2.4
		c0.3-0.7,0.7-1.3,1.3-1.7c0.6-0.5,1.2-0.8,2-1c0.8-0.2,1.6-0.3,2.4-0.3c0.8,0,1.6,0.1,2.3,0.3h5.8V7.5z M57,21.8
		c-0.6,0.4-1,0.9-1.3,1.3c-0.3,0.5-0.4,1-0.4,1.6c0,1,0.4,1.7,1.2,2.2c0.8,0.5,2,0.7,3.6,0.7c1,0,1.8-0.1,2.5-0.4
		c0.7-0.3,1.2-0.6,1.6-1.1c0.4-0.5,0.6-1.1,0.6-1.7c0-0.3,0-0.6-0.1-0.9c-0.1-0.3-0.2-0.5-0.4-0.8c-0.2-0.2-0.5-0.4-0.9-0.5
		c-0.4-0.1-0.9-0.2-1.5-0.2h-2.4C58.4,21.9,57.6,21.8,57,21.8z M56.6,10.8c0,1.4,0.3,2.4,0.8,3.2c0.6,0.7,1.4,1.1,2.4,1.1
		c0.6,0,1-0.1,1.4-0.3c0.4-0.2,0.7-0.5,1-0.9c0.2-0.4,0.4-0.8,0.5-1.3c0.1-0.5,0.2-1,0.2-1.5c0-1-0.1-1.8-0.4-2.4
		c-0.3-0.6-0.6-1.1-1.1-1.4c-0.5-0.3-1-0.5-1.6-0.5c-1,0-1.8,0.3-2.4,1C56.8,8.5,56.6,9.5,56.6,10.8z"/>
	<path class="st4" d="M77.3,19.2l-0.2-0.1c-1,1-1.8,1.7-2.7,2.1s-1.7,0.6-2.7,0.6c-0.8,0-1.6-0.2-2.2-0.5c-0.6-0.3-1.1-0.8-1.5-1.4
		c-0.3-0.6-0.5-1.3-0.5-2c0-1.6,0.8-2.8,2.4-3.7c1.6-0.9,3.9-1.4,7.1-1.5v-1.1c0-1.1-0.1-2-0.3-2.7c-0.2-0.7-0.6-1.1-1-1.4
		C75.2,7.2,74.6,7,73.8,7c-0.9,0-1.5,0.2-2.1,0.7c-0.5,0.4-0.9,1.1-1.2,2h-2.1V7.6c1-0.5,1.9-0.9,2.6-1.2c0.7-0.3,1.4-0.5,2.1-0.6
		c0.7-0.1,1.4-0.2,2.1-0.2c1.1,0,1.9,0.2,2.6,0.5C78.5,6.4,79,7,79.4,7.7c0.3,0.7,0.5,1.8,0.5,3.2v5.7c0,0.8,0,1.4,0,1.7
		c0,0.3,0,0.6,0.1,0.9c0.1,0.3,0.1,0.5,0.2,0.7c0.1,0.2,0.3,0.3,0.5,0.4c0.2,0.1,0.6,0.2,1,0.4v0.8h-4.5L77.3,19.2z M77,14
		c-2.2,0-3.9,0.3-5,0.9c-1.1,0.6-1.7,1.4-1.7,2.6c0,0.6,0.1,1.1,0.4,1.5c0.3,0.4,0.6,0.6,1,0.7c0.4,0.1,0.8,0.2,1.4,0.2
		c0.7,0,1.4-0.2,2-0.5c0.6-0.4,1.1-0.8,1.4-1.4c0.3-0.6,0.5-1.1,0.5-1.7V14z"/>
</g>
<g class="st0">
	<path class="st4" d="M61.6,30.6v1.2h-0.4c-0.1-0.2-0.1-0.3-0.2-0.4c-0.1-0.1-0.1-0.2-0.2-0.2C60.9,31,60.8,31,60.7,31
		c-0.1,0-0.2,0-0.3,0h-1.1V33h0.8c0.1,0,0.2,0,0.3-0.1c0.1,0,0.1-0.1,0.2-0.2c0-0.1,0.1-0.2,0.1-0.4H61V34h-0.4
		c0-0.2-0.1-0.3-0.1-0.4c0-0.1-0.1-0.2-0.2-0.2c-0.1,0-0.1-0.1-0.3-0.1h-0.8v1.5c0,0.2,0,0.3,0,0.4c0,0.1,0,0.2,0.1,0.2
		s0.1,0.1,0.2,0.1c0.1,0,0.2,0.1,0.3,0.1v0.2h-1.7v-0.2c0.2,0,0.3-0.1,0.3-0.1c0.1,0,0.1-0.1,0.1-0.2c0-0.1,0-0.2,0-0.4v-3.3
		c0-0.2,0-0.3,0-0.4c0-0.1,0-0.1-0.1-0.2c0,0-0.1-0.1-0.1-0.1c0,0-0.1-0.1-0.2-0.1v-0.2H61.6z"/>
	<path class="st4" d="M61.9,35.7c0.1,0,0.2-0.1,0.2-0.1c0,0,0.1-0.1,0.1-0.1c0,0,0.1-0.1,0.1-0.2c0-0.1,0-0.2,0-0.4v-1.7
		c0-0.2,0-0.3,0-0.4c0-0.1,0-0.2-0.1-0.2c0-0.1-0.1-0.1-0.1-0.1c-0.1,0-0.2-0.1-0.3-0.1v-0.2l0.9,0h0.2v2.7c0,0.2,0,0.4,0,0.5
		c0,0.1,0.1,0.2,0.1,0.2c0.1,0,0.2,0.1,0.3,0.1v0.2h-1.5V35.7z M63,30.7v0.7h-0.7v-0.7H63z"/>
	<path class="st4" d="M63.4,32.4c0.1,0,0.2-0.1,0.3-0.1s0.1-0.1,0.2-0.2c0-0.1,0.1-0.2,0.1-0.3c0-0.1,0.1-0.3,0.1-0.5h0.5v0.9h1.2
		v0.4h-1.2v1.7c0,0.2,0,0.4,0,0.6c0,0.1,0.1,0.3,0.1,0.3c0.1,0.1,0.1,0.1,0.2,0.2c0.1,0,0.2,0.1,0.3,0.1c0.1,0,0.2,0,0.3-0.1
		c0.1,0,0.2-0.1,0.3-0.2l0.2,0.2c-0.2,0.2-0.4,0.3-0.5,0.4c-0.2,0.1-0.3,0.1-0.5,0.1c-0.3,0-0.6-0.1-0.7-0.3
		c-0.2-0.2-0.2-0.5-0.2-0.9v-2.1h-0.6V32.4z"/>
	<path class="st4" d="M66,35.8v-0.2c0.1,0,0.2-0.1,0.3-0.1c0.1,0,0.1-0.1,0.1-0.1c0,0,0-0.1,0.1-0.2c0-0.1,0-0.2,0-0.4v-3.3
		c0-0.2,0-0.3,0-0.4c0-0.1,0-0.1-0.1-0.2c0,0-0.1-0.1-0.1-0.1c0,0-0.1-0.1-0.3-0.1v-0.2h1.7c0.5,0,0.9,0.1,1.2,0.2
		c0.3,0.1,0.6,0.3,0.8,0.5s0.4,0.5,0.5,0.8c0.1,0.3,0.2,0.7,0.2,1.1c0,0.4,0,0.8-0.1,1.1c-0.1,0.3-0.2,0.6-0.4,0.8
		c-0.2,0.2-0.4,0.4-0.6,0.5c-0.2,0.1-0.4,0.2-0.7,0.2s-0.6,0.1-1,0.1H66z M67.2,35.5c0.1,0,0.3,0,0.5,0c0.2,0,0.4,0,0.6-0.1
		c0.2,0,0.3-0.1,0.5-0.2c0.1-0.1,0.3-0.2,0.4-0.3c0.1-0.1,0.2-0.3,0.3-0.5c0.1-0.2,0.1-0.4,0.2-0.6c0-0.2,0-0.5,0-0.7
		c0-0.5-0.1-0.9-0.2-1.3c-0.1-0.3-0.4-0.6-0.6-0.7c-0.3-0.2-0.6-0.2-1-0.2c-0.2,0-0.3,0-0.5,0V35.5z"/>
	<path class="st4" d="M72.9,35.3L72.9,35.3c-0.3,0.2-0.5,0.4-0.7,0.5c-0.2,0.1-0.4,0.1-0.6,0.1c-0.2,0-0.4,0-0.5-0.1
		c-0.1-0.1-0.3-0.2-0.3-0.3c-0.1-0.1-0.1-0.3-0.1-0.5c0-0.4,0.2-0.7,0.6-0.9c0.4-0.2,0.9-0.3,1.7-0.4v-0.2c0-0.3,0-0.5-0.1-0.6
		s-0.1-0.3-0.2-0.3c-0.1-0.1-0.3-0.1-0.4-0.1c-0.2,0-0.4,0.1-0.5,0.2c-0.1,0.1-0.2,0.3-0.3,0.5h-0.5v-0.5c0.2-0.1,0.5-0.2,0.6-0.3
		c0.2-0.1,0.3-0.1,0.5-0.1c0.2,0,0.3-0.1,0.5-0.1c0.3,0,0.5,0,0.6,0.1c0.2,0.1,0.3,0.2,0.3,0.4c0.1,0.2,0.1,0.4,0.1,0.8v1.3
		c0,0.2,0,0.3,0,0.4c0,0.1,0,0.2,0,0.2c0,0.1,0,0.1,0.1,0.2c0,0,0.1,0.1,0.1,0.1c0,0,0.1,0.1,0.2,0.1v0.2h-1.1L72.9,35.3z
		 M72.9,34.1c-0.5,0-0.9,0.1-1.2,0.2c-0.3,0.1-0.4,0.3-0.4,0.6c0,0.1,0,0.3,0.1,0.3c0.1,0.1,0.1,0.1,0.2,0.2c0.1,0,0.2,0,0.3,0
		c0.2,0,0.3,0,0.5-0.1c0.1-0.1,0.3-0.2,0.3-0.3c0.1-0.1,0.1-0.3,0.1-0.4V34.1z"/>
	<path class="st4" d="M74.2,35.7c0.1,0,0.2-0.1,0.2-0.1c0,0,0.1-0.1,0.1-0.1c0,0,0.1-0.1,0.1-0.2c0-0.1,0-0.2,0-0.4v-1.7
		c0-0.2,0-0.3,0-0.4c0-0.1,0-0.2-0.1-0.2c0-0.1-0.1-0.1-0.1-0.1c-0.1,0-0.2-0.1-0.3-0.1v-0.2l0.9,0h0.2v2.7c0,0.2,0,0.4,0,0.5
		c0,0.1,0.1,0.2,0.1,0.2c0.1,0,0.2,0.1,0.3,0.1v0.2h-1.5V35.7z M75.3,30.7v0.7h-0.7v-0.7H75.3z"/>
	<path class="st4" d="M77,34.9c0,0.2,0,0.4,0,0.5c0,0.1,0.1,0.2,0.1,0.2c0.1,0,0.2,0.1,0.3,0.1v0.2h-1.5v-0.2c0.1,0,0.2-0.1,0.3-0.1
		c0,0,0.1-0.1,0.1-0.1c0-0.1,0-0.1,0-0.2c0-0.1,0-0.2,0-0.3v-3.2c0-0.2,0-0.4,0-0.5c0-0.1,0-0.2,0-0.2c0-0.1,0-0.1-0.1-0.2
		c0,0-0.1-0.1-0.1-0.1c0,0-0.1,0-0.3-0.1v-0.2l0.9,0H77V34.9z"/>
	<path class="st4" d="M79.2,36.2c-0.1,0.3-0.3,0.6-0.4,0.8c-0.1,0.2-0.3,0.3-0.4,0.4c-0.2,0.1-0.4,0.1-0.6,0.1c-0.1,0-0.3,0-0.5,0
		v-0.8h0.3c0,0.1,0.1,0.2,0.1,0.2c0,0,0.1,0.1,0.2,0.1c0.1,0,0.1,0,0.2,0c0.1,0,0.1-0.1,0.2-0.2c0.1-0.1,0.1-0.2,0.2-0.3
		c0.1-0.1,0.2-0.3,0.3-0.6L77.8,33c-0.1-0.2-0.1-0.3-0.2-0.4c0-0.1-0.1-0.1-0.1-0.2s-0.1-0.1-0.2-0.1v-0.2h1.6v0.2
		c-0.1,0-0.2,0.1-0.3,0.1c0,0-0.1,0.1-0.1,0.1c0,0,0,0.1,0,0.2c0,0.1,0,0.1,0,0.2c0,0.1,0,0.2,0.1,0.3l0.7,1.9l0.8-1.8
		c0-0.1,0.1-0.2,0.1-0.3c0-0.1,0-0.2,0-0.2c0-0.1,0-0.2-0.1-0.2c-0.1-0.1-0.2-0.1-0.3-0.1v-0.2h1.4v0.2c-0.1,0-0.2,0.1-0.2,0.1
		c-0.1,0-0.1,0.1-0.2,0.2c-0.1,0.1-0.1,0.2-0.2,0.4L79.2,36.2z"/>
</g>
<rect id="XMLID_10_" class="st5" width="103" height="42.2"/>
<g>
	<path class="st6" d="M12.9,17.5c0,0.4,0,0.7,0,0.9c0,0.2,0.1,0.3,0.2,0.4c0.1,0.1,0.2,0.2,0.3,0.3c0.1,0.1,0.3,0.1,0.6,0.2v0.6H8.9
		v-0.6c0.2-0.1,0.4-0.1,0.6-0.2c0.1-0.1,0.2-0.2,0.3-0.3c0.1-0.1,0.1-0.3,0.1-0.5c0-0.2,0-0.5,0-0.8V9.2c0-0.3,0-0.6,0-0.8
		c0-0.2-0.1-0.4-0.1-0.5C9.7,7.8,9.6,7.7,9.5,7.7C9.3,7.6,9.2,7.5,8.9,7.4V6.8h5.6c1.6,0,2.8,0.3,3.6,0.9c0.8,0.6,1.2,1.5,1.2,2.7
		c0,0.8-0.2,1.6-0.6,2.2c-0.4,0.6-0.9,1.1-1.6,1.4c-0.7,0.3-1.6,0.5-2.7,0.5c-0.6,0-1.1,0-1.5,0V17.5z M12.9,13.3h0.8
		c0.6,0,1.1-0.1,1.5-0.3c0.4-0.2,0.7-0.5,0.8-0.9c0.2-0.4,0.3-0.9,0.3-1.6c0-0.7-0.1-1.2-0.3-1.6c-0.2-0.4-0.4-0.7-0.8-0.8
		c-0.4-0.2-0.8-0.2-1.3-0.2c-0.4,0-0.8,0-1,0V13.3z"/>
	<path class="st6" d="M23.4,11.7l0.1,0c0.5-0.5,0.9-0.9,1.4-1.2c0.5-0.2,1-0.4,1.6-0.4c0.4,0,0.8,0,1.2,0.1V13h-1.7
		c-0.1-0.4-0.3-0.7-0.4-0.9c-0.2-0.2-0.4-0.3-0.7-0.3c-0.1,0-0.3,0-0.5,0.1c-0.2,0.1-0.3,0.2-0.5,0.4c-0.1,0.2-0.2,0.3-0.3,0.5
		c-0.1,0.2-0.1,0.3-0.1,0.5c0,0.2,0,0.4,0,0.7v3.1c0,0.6,0,1,0.1,1.3c0,0.2,0.1,0.4,0.3,0.6c0.1,0.1,0.4,0.2,0.7,0.3v0.6h-4.7v-0.6
		c0.3-0.1,0.5-0.2,0.6-0.3c0.1-0.1,0.2-0.3,0.2-0.5c0-0.2,0.1-0.6,0.1-1.3v-3.9c0-0.5,0-0.8,0-1c0-0.2-0.1-0.4-0.1-0.5
		c-0.1-0.1-0.2-0.2-0.3-0.3c-0.1-0.1-0.3-0.2-0.6-0.2v-0.7l2.6-0.1h1.2L23.4,11.7z"/>
	<path class="st6" d="M36.3,18.1c-0.7,0.7-1.3,1.2-1.9,1.5C33.7,19.9,33,20,32.2,20c-1.5,0-2.6-0.4-3.4-1.2c-0.7-0.8-1.1-2-1.1-3.6
		c0-1,0.2-1.9,0.6-2.7c0.4-0.7,0.9-1.3,1.6-1.7c0.7-0.4,1.5-0.6,2.5-0.6c0.6,0,1.1,0.1,1.5,0.2c0.4,0.1,0.8,0.3,1.1,0.6
		c0.3,0.2,0.6,0.5,0.8,0.9c0.2,0.4,0.4,0.9,0.5,1.4c0.1,0.5,0.2,1.2,0.2,1.9h-6.1c0,1.2,0.2,2,0.6,2.5c0.4,0.5,1,0.8,1.9,0.8
		c0.5,0,0.9-0.1,1.3-0.3c0.4-0.2,0.8-0.5,1.3-1L36.3,18.1z M33.7,14.1c0-1-0.2-1.7-0.4-2.2c-0.2-0.5-0.6-0.7-1.1-0.7
		c-0.5,0-0.9,0.2-1.2,0.7c-0.3,0.5-0.5,1.2-0.5,2.2H33.7z"/>
	<path class="st6" d="M46.3,11.7l-1.6-0.2l0,0.1c0.2,0.2,0.3,0.4,0.4,0.7c0.1,0.3,0.2,0.7,0.2,1.1c0,1.1-0.3,2-1,2.5
		c-0.7,0.6-1.7,0.9-3,0.9c-0.6,0-1.1-0.1-1.5-0.2c-0.3,0.3-0.5,0.6-0.5,0.9c0,0.2,0,0.3,0.1,0.4c0.1,0.1,0.2,0.2,0.4,0.2
		c0.2,0.1,0.5,0.1,0.8,0.1H43c1.1,0,1.9,0.2,2.4,0.6c0.5,0.4,0.8,1.1,0.8,1.9c0,0.7-0.2,1.3-0.6,1.8c-0.4,0.5-0.9,0.9-1.7,1.1
		c-0.7,0.3-1.6,0.4-2.6,0.4c-0.7,0-1.4,0-2-0.1c-0.6-0.1-1.1-0.2-1.5-0.3c-0.4-0.2-0.7-0.4-1-0.7c-0.2-0.3-0.3-0.7-0.3-1.1
		c0-0.4,0.1-0.7,0.3-1s0.6-0.6,1-0.8c-0.3-0.2-0.5-0.4-0.6-0.7c-0.1-0.2-0.2-0.6-0.2-0.9c0-0.3,0.1-0.6,0.2-0.8
		c0.1-0.3,0.3-0.5,0.5-0.7c0.2-0.2,0.5-0.4,0.8-0.7c-0.5-0.3-0.9-0.6-1.1-1.1c-0.3-0.5-0.4-1-0.4-1.6c0-0.6,0.1-1.1,0.3-1.5
		c0.2-0.4,0.5-0.8,0.9-1c0.4-0.3,0.8-0.5,1.3-0.6c0.5-0.1,1.1-0.2,1.6-0.2c0.3,0,0.6,0,0.9,0c0.2,0,0.5,0.1,0.7,0.1h3.5V11.7z
		 M39.5,20.5c-0.2,0.2-0.4,0.4-0.5,0.6c-0.1,0.2-0.2,0.5-0.2,0.7c0,0.5,0.2,0.8,0.6,1c0.4,0.2,1,0.3,1.9,0.3c0.8,0,1.4-0.1,1.8-0.4
		c0.4-0.3,0.6-0.6,0.6-1.1c0-0.2,0-0.4-0.1-0.6c-0.1-0.2-0.2-0.3-0.4-0.4c-0.2-0.1-0.5-0.2-0.9-0.2h-1.6
		C40.1,20.5,39.8,20.5,39.5,20.5z M39.9,13.5c0,0.8,0.1,1.4,0.3,1.8c0.2,0.4,0.6,0.6,1.1,0.6c0.4,0,0.8-0.2,1-0.5
		c0.2-0.4,0.3-0.9,0.3-1.7c0-0.8-0.1-1.4-0.3-1.8c-0.2-0.4-0.6-0.6-1-0.6c-0.5,0-0.8,0.2-1,0.6C40,12.1,39.9,12.7,39.9,13.5z"/>
	<path class="st6" d="M56.7,19.9H52v-0.6c0.3-0.1,0.5-0.2,0.6-0.3c0.1-0.1,0.2-0.3,0.2-0.6c0-0.2,0.1-0.7,0.1-1.3v-2.6
		c0-0.5,0-0.8,0-1.1c0-0.3,0-0.5-0.1-0.7c0-0.2-0.1-0.3-0.2-0.5c-0.1-0.1-0.2-0.2-0.2-0.3c-0.1-0.1-0.2-0.1-0.3-0.2
		c-0.1,0-0.3-0.1-0.4-0.1c-0.2,0-0.5,0.1-0.8,0.2c-0.3,0.1-0.5,0.4-0.7,0.6c-0.2,0.3-0.3,0.5-0.3,0.8v3.7c0,0.6,0,1,0.1,1.3
		c0,0.2,0.1,0.4,0.2,0.6c0.1,0.1,0.3,0.2,0.6,0.3v0.6h-4.6v-0.6c0.3-0.1,0.5-0.2,0.6-0.3s0.2-0.3,0.2-0.5c0-0.2,0.1-0.6,0.1-1.3
		v-3.9c0-0.5,0-0.8,0-1c0-0.2-0.1-0.4-0.1-0.5c-0.1-0.1-0.2-0.2-0.3-0.3c-0.1-0.1-0.3-0.2-0.6-0.2v-0.7l2.6-0.1H50l-0.1,1.4l0.1,0
		c0.4-0.4,0.7-0.6,1-0.8c0.3-0.2,0.6-0.4,0.9-0.5c0.3-0.1,0.7-0.2,1-0.2c0.5,0,1,0.1,1.3,0.2c0.3,0.1,0.6,0.4,0.8,0.7
		s0.4,0.6,0.5,1.1c0.1,0.4,0.1,0.9,0.1,1.4v3.5c0,0.3,0,0.5,0,0.8c0,0.2,0,0.4,0.1,0.6c0,0.1,0.1,0.3,0.2,0.4
		c0.1,0.1,0.2,0.2,0.3,0.2c0.1,0.1,0.3,0.1,0.4,0.2V19.9z"/>
	<path class="st6" d="M62.8,18.6l-0.1,0c-0.5,0.5-1,0.9-1.5,1.1c-0.5,0.2-1,0.3-1.6,0.3c-0.5,0-1-0.1-1.4-0.3
		c-0.4-0.2-0.7-0.5-0.9-0.8c-0.2-0.4-0.3-0.8-0.3-1.2c0-0.9,0.5-1.7,1.4-2.2c0.9-0.5,2.3-0.9,4.2-1v-0.9c0-0.6-0.1-1.1-0.2-1.4
		c-0.1-0.3-0.3-0.5-0.5-0.7c-0.2-0.1-0.5-0.2-0.8-0.2s-0.5,0.1-0.8,0.2c-0.2,0.1-0.4,0.3-0.6,0.6c-0.2,0.3-0.3,0.7-0.4,1.2h-1.8
		v-1.7c0.6-0.3,1.1-0.5,1.5-0.6c0.4-0.1,0.8-0.3,1.2-0.3c0.4-0.1,0.7-0.2,1-0.2c0.3,0,0.6-0.1,0.9-0.1c0.8,0,1.4,0.1,1.9,0.3
		c0.5,0.2,0.8,0.5,1,1c0.2,0.5,0.3,1.1,0.3,1.9v3.7c0,0.4,0,0.7,0,1c0,0.2,0,0.4,0.1,0.5c0,0.1,0.1,0.2,0.2,0.3
		c0.1,0.1,0.1,0.1,0.2,0.2c0.1,0,0.3,0.1,0.5,0.2v0.6h-3.6L62.8,18.6z M62.4,15.4c-1,0-1.7,0.2-2.2,0.6c-0.5,0.3-0.7,0.8-0.7,1.5
		c0,0.4,0.1,0.7,0.3,0.9c0.2,0.2,0.5,0.3,0.9,0.3c0.3,0,0.6-0.1,0.8-0.2c0.3-0.2,0.5-0.4,0.6-0.6c0.2-0.3,0.2-0.5,0.2-0.8V15.4z"/>
	<path class="st6" d="M77,19.9h-4.6v-0.6c0.3-0.1,0.5-0.2,0.6-0.3c0.1-0.1,0.2-0.3,0.2-0.6c0-0.2,0.1-0.7,0.1-1.3v-2.6
		c0-0.5,0-0.8,0-1.1c0-0.3,0-0.5-0.1-0.7c0-0.2-0.1-0.3-0.2-0.5c-0.1-0.1-0.2-0.2-0.2-0.3c-0.1-0.1-0.2-0.1-0.3-0.2
		c-0.1,0-0.3-0.1-0.4-0.1c-0.2,0-0.5,0.1-0.8,0.2c-0.3,0.1-0.5,0.4-0.7,0.6c-0.2,0.3-0.3,0.5-0.3,0.8v3.7c0,0.6,0,1,0.1,1.3
		c0,0.2,0.1,0.4,0.2,0.6c0.1,0.1,0.3,0.2,0.6,0.3v0.6h-4.6v-0.6c0.3-0.1,0.5-0.2,0.6-0.3s0.2-0.3,0.2-0.5c0-0.2,0.1-0.6,0.1-1.3
		v-3.9c0-0.5,0-0.8,0-1c0-0.2-0.1-0.4-0.1-0.5c-0.1-0.1-0.2-0.2-0.3-0.3c-0.1-0.1-0.3-0.2-0.6-0.2v-0.7l2.6-0.1h1.2l-0.1,1.4l0.1,0
		c0.4-0.4,0.7-0.6,1-0.8s0.6-0.4,0.9-0.5c0.3-0.1,0.7-0.2,1-0.2c0.5,0,1,0.1,1.3,0.2c0.3,0.1,0.6,0.4,0.8,0.7
		c0.2,0.3,0.4,0.6,0.5,1.1c0.1,0.4,0.1,0.9,0.1,1.4v3.5c0,0.3,0,0.5,0,0.8c0,0.2,0,0.4,0.1,0.6c0,0.1,0.1,0.3,0.2,0.4
		c0.1,0.1,0.2,0.2,0.3,0.2c0.1,0.1,0.3,0.1,0.4,0.2V19.9z"/>
	<path class="st6" d="M84.7,17.4l0.7,0.9c-0.6,0.6-1.2,1.1-1.8,1.3S82.5,20,81.8,20c-1.4,0-2.4-0.4-3.2-1.2s-1.1-2-1.1-3.5
		c0-1,0.2-1.9,0.6-2.7c0.4-0.8,1-1.3,1.7-1.7c0.7-0.4,1.6-0.6,2.6-0.6c0.5,0,1,0,1.5,0.1c0.5,0.1,1,0.2,1.4,0.3v2.3h-1.9
		c-0.1-0.6-0.2-1-0.4-1.3c-0.2-0.3-0.5-0.4-0.8-0.4c-0.2,0-0.5,0.1-0.7,0.2c-0.2,0.1-0.4,0.3-0.6,0.6c-0.2,0.3-0.3,0.7-0.4,1.2
		c-0.1,0.5-0.1,1.1-0.1,1.9s0.1,1.4,0.2,1.9c0.1,0.5,0.4,0.9,0.7,1.2c0.3,0.3,0.7,0.4,1.2,0.4c0.4,0,0.7-0.1,1-0.2
		C83.9,18.1,84.3,17.8,84.7,17.4z"/>
	<path class="st6" d="M90.5,20.3c-0.4,0.9-0.8,1.7-1.2,2.2c-0.4,0.5-0.8,0.9-1.2,1.2c-0.4,0.3-1,0.4-1.6,0.4c-0.5,0-0.9-0.1-1.3-0.2
		v-2.2h1.1c0.1,0.3,0.2,0.5,0.3,0.6c0.1,0.1,0.3,0.2,0.5,0.2c0.2,0,0.5-0.1,0.7-0.2c0.2-0.1,0.4-0.4,0.7-0.8
		c0.2-0.4,0.5-0.9,0.9-1.6h-0.5l-2.5-7.2c-0.2-0.5-0.3-0.8-0.4-1c-0.1-0.2-0.2-0.3-0.4-0.4C85.4,11.1,85.2,11,85,11v-0.6h4.8V11
		c-0.3,0.1-0.5,0.1-0.7,0.3s-0.2,0.3-0.2,0.5c0,0.3,0.1,0.7,0.2,1.2l1.4,4.2l1.5-3.7c0.1-0.3,0.2-0.6,0.3-0.8
		c0.1-0.2,0.1-0.5,0.1-0.7c0-0.3-0.1-0.5-0.2-0.7c-0.2-0.2-0.4-0.3-0.7-0.3v-0.6h3.7V11c-0.2,0.1-0.3,0.1-0.4,0.2
		c-0.1,0.1-0.2,0.2-0.3,0.3c-0.1,0.1-0.2,0.3-0.4,0.6c-0.1,0.3-0.3,0.7-0.6,1.2L90.5,20.3z"/>
</g>
<g>
	<path class="st6" d="M67.3,26.6v1.7h-0.5c-0.1-0.2-0.2-0.5-0.2-0.6s-0.2-0.3-0.2-0.4c-0.1-0.1-0.2-0.1-0.3-0.2c-0.1,0-0.3,0-0.4,0
		h-1.6v3h1.1c0.2,0,0.3,0,0.4-0.1c0.1-0.1,0.2-0.1,0.2-0.3c0.1-0.1,0.1-0.3,0.2-0.6h0.5v2.3h-0.5c-0.1-0.2-0.1-0.4-0.2-0.6
		c-0.1-0.1-0.1-0.2-0.2-0.3c-0.1-0.1-0.2-0.1-0.4-0.1h-1.1v2.2c0,0.2,0,0.4,0,0.5c0,0.1,0.1,0.2,0.1,0.3c0.1,0.1,0.1,0.1,0.2,0.2
		c0.1,0,0.2,0.1,0.4,0.1v0.3h-2.4v-0.3c0.2-0.1,0.4-0.1,0.5-0.2c0.1-0.1,0.1-0.2,0.2-0.3c0-0.1,0-0.3,0-0.6V28c0-0.3,0-0.4,0-0.6
		c0-0.1,0-0.2-0.1-0.3c0-0.1-0.1-0.1-0.2-0.2c-0.1,0-0.2-0.1-0.4-0.1v-0.3H67.3z"/>
	<path class="st6" d="M67.6,33.8c0.1,0,0.2-0.1,0.3-0.1c0.1,0,0.1-0.1,0.2-0.1s0.1-0.1,0.1-0.3c0-0.1,0-0.3,0-0.6v-2.4
		c0-0.2,0-0.4,0-0.6c0-0.1,0-0.3-0.1-0.3c0-0.1-0.1-0.2-0.2-0.2c-0.1,0-0.2-0.1-0.4-0.1v-0.3l1.3,0h0.3v3.9c0,0.3,0,0.5,0,0.7
		c0,0.1,0.1,0.2,0.2,0.3c0.1,0.1,0.2,0.1,0.4,0.2v0.3h-2.2V33.8z M69.2,26.7v1.1h-1v-1.1H69.2z"/>
	<path class="st6" d="M69.9,29.1c0.2,0,0.3-0.1,0.4-0.2c0.1-0.1,0.2-0.2,0.3-0.3c0.1-0.1,0.1-0.3,0.2-0.4c0-0.2,0.1-0.4,0.1-0.8h0.8
		v1.4h1.8v0.6h-1.8v2.4c0,0.4,0,0.6,0,0.8c0,0.2,0.1,0.4,0.2,0.5c0.1,0.1,0.2,0.2,0.3,0.3c0.1,0.1,0.2,0.1,0.4,0.1
		c0.1,0,0.3,0,0.4-0.1c0.1-0.1,0.3-0.1,0.4-0.3l0.2,0.3c-0.3,0.3-0.5,0.4-0.7,0.6c-0.2,0.1-0.5,0.2-0.7,0.2c-0.5,0-0.8-0.1-1.1-0.4
		c-0.2-0.3-0.3-0.7-0.3-1.3v-3.1h-0.8V29.1z"/>
	<path class="st6" d="M73.6,34.1v-0.3c0.2,0,0.3-0.1,0.4-0.1s0.1-0.1,0.2-0.2c0-0.1,0.1-0.2,0.1-0.3c0-0.1,0-0.3,0-0.6V28
		c0-0.3,0-0.4,0-0.6c0-0.1,0-0.2-0.1-0.3c0-0.1-0.1-0.1-0.2-0.2c-0.1,0-0.2-0.1-0.4-0.1v-0.3H76c0.7,0,1.3,0.1,1.7,0.2
		c0.4,0.2,0.8,0.4,1.1,0.7c0.3,0.3,0.5,0.7,0.7,1.1c0.2,0.4,0.2,1,0.2,1.6c0,0.6-0.1,1.2-0.2,1.6c-0.1,0.5-0.3,0.9-0.6,1.2
		c-0.2,0.3-0.5,0.5-0.9,0.7c-0.3,0.1-0.6,0.3-1,0.3c-0.4,0.1-0.9,0.1-1.5,0.1H73.6z M75.2,33.6c0.1,0,0.4,0,0.6,0
		c0.3,0,0.6,0,0.8-0.1c0.2-0.1,0.5-0.1,0.7-0.2c0.2-0.1,0.4-0.3,0.5-0.5c0.2-0.2,0.3-0.4,0.4-0.7c0.1-0.3,0.2-0.5,0.2-0.8
		c0-0.3,0.1-0.7,0.1-1c0-0.7-0.1-1.4-0.3-1.8c-0.2-0.5-0.5-0.8-0.9-1c-0.4-0.2-0.9-0.3-1.4-0.3c-0.2,0-0.5,0-0.7,0V33.6z"/>
	<path class="st6" d="M83.5,33.3L83.5,33.3c-0.4,0.3-0.7,0.5-1,0.7c-0.3,0.1-0.6,0.2-0.9,0.2c-0.3,0-0.5-0.1-0.7-0.2
		c-0.2-0.1-0.4-0.3-0.5-0.5c-0.1-0.2-0.2-0.4-0.2-0.7c0-0.5,0.3-0.9,0.8-1.2c0.5-0.3,1.3-0.5,2.4-0.5v-0.4c0-0.4,0-0.7-0.1-0.9
		s-0.2-0.4-0.3-0.5c-0.2-0.1-0.4-0.2-0.6-0.2c-0.3,0-0.5,0.1-0.7,0.2c-0.2,0.2-0.3,0.4-0.4,0.7h-0.7v-0.7c0.4-0.2,0.6-0.3,0.9-0.4
		c0.2-0.1,0.5-0.2,0.7-0.2c0.2,0,0.5-0.1,0.7-0.1c0.4,0,0.7,0.1,0.9,0.2c0.2,0.1,0.4,0.3,0.5,0.5s0.2,0.6,0.2,1.1v1.9
		c0,0.3,0,0.5,0,0.6c0,0.1,0,0.2,0,0.3c0,0.1,0,0.2,0.1,0.2c0,0.1,0.1,0.1,0.2,0.1c0.1,0,0.2,0.1,0.3,0.1v0.3h-1.5L83.5,33.3z
		 M83.4,31.6c-0.7,0-1.3,0.1-1.7,0.3s-0.6,0.5-0.6,0.9c0,0.2,0,0.4,0.1,0.5c0.1,0.1,0.2,0.2,0.3,0.3c0.1,0,0.3,0.1,0.5,0.1
		c0.2,0,0.5-0.1,0.7-0.2c0.2-0.1,0.4-0.3,0.5-0.5c0.1-0.2,0.2-0.4,0.2-0.6V31.6z"/>
	<path class="st6" d="M85.3,33.8c0.1,0,0.2-0.1,0.3-0.1c0.1,0,0.1-0.1,0.2-0.1s0.1-0.1,0.1-0.3c0-0.1,0-0.3,0-0.6v-2.4
		c0-0.2,0-0.4,0-0.6c0-0.1,0-0.3-0.1-0.3c0-0.1-0.1-0.2-0.2-0.2c-0.1,0-0.2-0.1-0.4-0.1v-0.3l1.3,0h0.3v3.9c0,0.3,0,0.5,0,0.7
		c0,0.1,0.1,0.2,0.2,0.3c0.1,0.1,0.2,0.1,0.4,0.2v0.3h-2.2V33.8z M86.8,26.7v1.1h-1v-1.1H86.8z"/>
	<path class="st6" d="M89.3,32.7c0,0.3,0,0.5,0,0.7c0,0.1,0.1,0.2,0.2,0.3c0.1,0.1,0.2,0.1,0.4,0.2v0.3h-2.2v-0.3
		c0.2,0,0.3-0.1,0.4-0.1c0.1-0.1,0.1-0.1,0.2-0.2c0-0.1,0.1-0.2,0.1-0.3c0-0.1,0-0.3,0-0.5v-4.6c0-0.4,0-0.6,0-0.7
		c0-0.1,0-0.3,0-0.4c0-0.1-0.1-0.2-0.1-0.2c0-0.1-0.1-0.1-0.2-0.1c-0.1,0-0.2-0.1-0.4-0.1v-0.3l1.3-0.1h0.3V32.7z"/>
	<path class="st6" d="M92.4,34.6c-0.2,0.5-0.4,0.8-0.6,1.1c-0.2,0.3-0.4,0.5-0.6,0.6c-0.2,0.1-0.5,0.2-0.8,0.2c-0.2,0-0.4,0-0.7-0.1
		v-1.1h0.5c0,0.2,0.1,0.3,0.2,0.3s0.2,0.1,0.3,0.1c0.1,0,0.2,0,0.3-0.1c0.1,0,0.2-0.1,0.3-0.2c0.1-0.1,0.2-0.3,0.3-0.5
		c0.1-0.2,0.3-0.5,0.4-0.8l-1.5-4.1c-0.1-0.3-0.2-0.5-0.2-0.6c-0.1-0.1-0.1-0.2-0.2-0.2c-0.1-0.1-0.2-0.1-0.3-0.1v-0.3h2.2v0.3
		c-0.2,0-0.3,0.1-0.4,0.1c-0.1,0-0.1,0.1-0.2,0.1c0,0.1,0,0.1,0,0.2c0,0.1,0,0.2,0,0.3c0,0.1,0.1,0.2,0.1,0.4l1,2.8l1.1-2.6
		c0.1-0.1,0.1-0.3,0.1-0.4c0-0.1,0.1-0.2,0.1-0.3c0-0.2,0-0.3-0.1-0.4c-0.1-0.1-0.2-0.1-0.4-0.2v-0.3h2.1v0.3
		c-0.1,0-0.3,0.1-0.3,0.1c-0.1,0.1-0.2,0.2-0.2,0.3c-0.1,0.1-0.2,0.3-0.3,0.5L92.4,34.6z"/>
</g>
</svg>
