<?xml version="1.0" encoding="utf-8"?>
<!-- Generator: Adobe Illustrator 19.0.0, SVG Export Plug-In . SVG Version: 6.00 Build 0)  -->
<svg version="1.1" id="Layer_1" xmlns="http://www.w3.org/2000/svg" xmlns:xlink="http://www.w3.org/1999/xlink" x="0px" y="0px"
	 viewBox="0 0 80.8592606 27.3690948" style="enable-background:new 0 0 80.8592606 27.3690948;" xml:space="preserve">
<style type="text/css">
	.st0{fill:#EC2024;}
	.st1{fill:#595A5A;}
</style>
<g>
	<path class="st0" d="M2.9241116,14.9404478c0.4921875-0.0996094,0.84375-0.2050781,1.0546875-0.3164063
		c0.2109373-0.1113281,0.316406-0.2167969,0.316406-0.3164063V5.5625181H2.0627835
		c-0.1171875,0-0.2255859,0.0571289-0.3251953,0.1713867s-0.206543,0.2958984-0.3208008,0.5449219
		S1.148721,6.9013853,0.9553616,7.3994322L0.31376,7.1621275C0.3430569,6.810565,0.3943264,6.3564634,0.4675686,5.7998228
		s0.1391602-0.9873047,0.1977539-1.2919922h9.4042969l0.3339844,0.28125
		c-0.0058594,0.28125-0.0439453,0.6708984-0.1142578,1.1689453s-0.1435547,0.9521484-0.2197266,1.3623047H9.4104395
		C9.387002,7.2148619,9.367959,7.1181822,9.3533106,7.0302916S9.3225489,6.8603697,9.3049707,6.7841978
		C9.246377,6.4677916,9.1965723,6.2304869,9.1555567,6.0722837S9.0544825,5.7895689,8.9753809,5.6987486
		S8.7922754,5.5625181,8.6633692,5.5625181H6.4924707v8.7451172c0,0.09375,0.1083984,0.1977539,0.3251953,0.3120117
		s0.5683594,0.2211914,1.0546875,0.3208008v0.6416016H2.9241116V14.9404478z"/>
	<path class="st0" d="M13.0295801,11.4687681c0.0175781,0.5683594,0.1157227,1.0708008,0.2944336,1.5073242
		s0.4306641,0.777832,0.7558594,1.0239258s0.7104492,0.3691406,1.1557617,0.3691406
		c0.2753906,0,0.5273438-0.0249023,0.7558594-0.074707c0.2285166-0.0498047,0.4951181-0.1508789,0.7998056-0.3032227
		s0.6767578-0.3808594,1.1162109-0.6855469c0.0644531,0.0351563,0.1435547,0.1157227,0.2373047,0.2416992
		s0.1669922,0.2329102,0.2197266,0.3208008c-0.5390625,0.5449219-1.0092773,0.9580078-1.4106445,1.2392578
		s-0.7880859,0.4746094-1.1601572,0.5800781c-0.3720703,0.1054688-0.8041992,0.1582031-1.2963867,0.1582031
		c-0.6621094,0-1.2714844-0.1743164-1.828125-0.5229492s-0.9990234-0.8393555-1.3271484-1.472168
		s-0.4921875-1.3505859-0.4921875-2.1533203c0-0.7910156,0.1523438-1.5014648,0.4570313-2.1313477
		s0.7558594-1.1616211,1.3535156-1.5952148c0.3222656-0.2402344,0.7001953-0.4379883,1.1337891-0.5932617
		s0.8642578-0.2329102,1.2919922-0.2329102c0.7382813,0,1.3564463,0.1640625,1.8544931,0.4921875
		s0.8686523,0.7646484,1.1118164,1.3095703s0.3647461,1.1455078,0.3647461,1.8017578
		c-0.0996094,0.1113281-0.2753906,0.2373047-0.5273438,0.3779297s-0.4863281,0.2548828-0.703125,0.3427734H13.0295801z
		 M15.9827051,10.4843931c0.1289072,0,0.2167978-0.0219727,0.2636728-0.065918s0.0703125-0.1274414,0.0703125-0.2504883
		c0-0.2753906-0.0498047-0.5639648-0.1494141-0.8657227s-0.2651377-0.5610352-0.496583-0.777832
		s-0.5317383-0.3251953-0.9008789-0.3251953c-0.5273438,0-0.9272461,0.1962891-1.199707,0.5888672
		s-0.4438477,0.9580078-0.5141602,1.6962891H15.9827051z"/>
	<path class="st0" d="M20.9558506,15.3403502c-0.5566406-0.3369141-1.003418-0.8217773-1.340332-1.4545898
		s-0.5053711-1.3681641-0.5053711-2.2060547s0.2021484-1.6025391,0.6064453-2.2939453s0.9682617-1.237793,1.6918945-1.6391602
		s1.5395508-0.6020508,2.4477539-0.6020508c0.421875,0,0.890625,0.0673828,1.40625,0.2021484
		s0.8671875,0.2988281,1.0546875,0.4921875c0.0175781,0.09375-0.0161133,0.3046875-0.1010742,0.6328125
		s-0.1875,0.6606445-0.3076172,0.9975586s-0.215332,0.5581055-0.2856445,0.6635742L25.0339756,10.04494
		c-0.2050781-0.6035156-0.449707-1.0546875-0.7338867-1.3535156s-0.6518555-0.4482422-1.1030273-0.4482422
		c-0.3632813,0-0.6943359,0.1113281-0.9931641,0.3339844s-0.5375977,0.5727539-0.7163086,1.050293
		s-0.2680664,1.0795898-0.2680664,1.8061523c0,0.5976563,0.1025391,1.1191406,0.3076172,1.5644531
		s0.4819336,0.7851563,0.8305664,1.0195313s0.7368164,0.3515625,1.1645508,0.3515625
		c0.2460938,0,0.4702148-0.0219727,0.6723633-0.065918s0.4394531-0.1391602,0.7119141-0.2856445
		s0.6079102-0.3691406,1.0063477-0.6679688l0.4746094,0.5625c-0.4863281,0.5507813-0.9331055,0.9667969-1.340332,1.2480469
		s-0.7851563,0.4658203-1.1337891,0.5537109s-0.7338867,0.1318359-1.1557617,0.1318359
		C22.1130772,15.8457212,21.5124912,15.6772642,20.9558506,15.3403502z"/>
	<path class="st0" d="M32.1160049,14.9404478c0.4160156-0.1054688,0.7133789-0.2006836,0.8920898-0.2856445
		s0.2680664-0.168457,0.2680664-0.2504883v-3.8583984c0-0.4746094-0.0336914-0.8408203-0.1010742-1.0986328
		s-0.1713867-0.4394531-0.3120117-0.5449219s-0.3339844-0.1582031-0.5800781-0.1582031
		c-0.3222637,0-0.6577129,0.0981445-1.0063457,0.2944336s-0.7807617,0.5053711-1.2963867,0.9272461v4.4384766
		c0,0.0878906,0.1025391,0.1801758,0.3076172,0.2768555s0.4921875,0.1831055,0.8613281,0.2592773v0.6416016h-4.4384766v-0.6416016
		c0.4160156-0.1054688,0.7133789-0.1977539,0.8920898-0.2768555s0.2680664-0.1655273,0.2680664-0.2592773V4.4375181
		c0-0.3574219-0.019043-0.602051-0.0571289-0.733887s-0.1289063-0.2241211-0.2724609-0.2768555
		s-0.4204102-0.1025391-0.8305664-0.1494141V2.6621273c0.6503906-0.09375,1.1835938-0.1904297,1.5996094-0.2900391
		s0.84375-0.2373047,1.2832031-0.4130858l0.3867188,0.3603514v6.3896484
		c0.6445313-0.5273438,1.2626953-0.9199219,1.8544922-1.1777344c0.591795-0.2578125,1.1279278-0.3867188,1.6083965-0.3867188
		c0.5566406,0,1.0195313,0.1831055,1.3886719,0.5493164s0.5537109,0.9331055,0.5537109,1.7006836v5.0097656
		c0,0.0820313,0.0834961,0.1640625,0.2504883,0.2460938s0.4731445,0.1787109,0.918457,0.2900391v0.6416016h-4.4384766V14.9404478z"
		/>
	<path class="st0" d="M39.9172745,15.5820494v-0.6416016c0.3808594-0.0761719,0.6767578-0.1640625,0.8876953-0.2636719
		s0.3164063-0.1904297,0.3164063-0.2724609V5.4131041l-1.2041016,0.1669922l-0.1142578-0.8085938
		c0.5800781-0.1464844,1.3388672-0.2709961,2.2763672-0.3735352s1.7841797-0.1538086,2.5400391-0.1538086
		c1.1894531,0,2.2080078,0.2124023,3.0546875,0.637207s1.4912109,1.0415039,1.9335938,1.8500977
		s0.6630859,1.7783203,0.6630859,2.9091797c0,1.3769531-0.2607422,2.5107422-0.7822266,3.4013672
		s-1.1835938,1.5366211-1.9863281,1.9379883s-1.6435547,0.6020508-2.5224609,0.6020508H39.9172745z M43.3186417,13.9648619
		c0,0.1289063,0.0058594,0.2197266,0.0175781,0.2724609c0.0351563,0.140625,0.1464844,0.2431641,0.3339844,0.3076172
		s0.515625,0.0966797,0.984375,0.0966797c0.4921875,0,0.9902344-0.168457,1.4941406-0.5053711
		s0.9248047-0.8554688,1.2617188-1.5556641s0.5048828-1.565918,0.5048828-2.597168
		c0-1.5585938-0.3349609-2.7495117-1.0058594-3.5727539s-1.6455078-1.2348633-2.9228516-1.2348633
		c-0.140625,0-0.3632813,0.0058594-0.6679688,0.0175781V13.9648619z"/>
	<path class="st0" d="M56.3030167,15.4721861c-0.1494141-0.2490234-0.2392578-0.590332-0.2685547-1.0239258
		c-0.4863281,0.4921875-0.984375,0.8481445-1.4941406,1.0678711s-0.9814453,0.3295898-1.4150391,0.3295898
		c-0.3398438,0-0.6621094-0.0776367-0.9667969-0.2329102s-0.5537109-0.3852539-0.7470703-0.6899414
		s-0.2900391-0.6738281-0.2900391-1.1074219c0-0.3691406,0.0664063-0.6943359,0.1982422-0.9755859
		s0.3173828-0.5419922,0.5576172-0.7822266c0.2167969-0.2167969,0.4677734-0.4057617,0.7519531-0.5668945
		s0.6972656-0.3193359,1.2392578-0.4746094s1.2607422-0.300293,2.1572266-0.4350586V9.5439634
		c0-0.3925781-0.0849609-0.7001953-0.2548828-0.9228516s-0.4599609-0.3339844-0.8701172-0.3339844
		c-0.1816406,0-0.3603516,0.0410156-0.5361328,0.1230469s-0.3193359,0.2006836-0.4306641,0.355957
		s-0.1669922,0.3354492-0.1669922,0.5405273l0.0087891,0.1054688c0.0058594,0.0703125-0.15625,0.1655273-0.4873047,0.2856445
		s-0.6904297,0.2255859-1.0771484,0.3164063s-0.6269531,0.1245117-0.7207031,0.1010742l-0.1845703-0.4746094
		c0.1875-0.4570313,0.5117188-0.8759766,0.9716797-1.2568359s1.0019531-0.6826172,1.6259766-0.9052734
		s1.2548828-0.3339844,1.8935547-0.3339844c0.7734375,0,1.3564453,0.1933594,1.7490234,0.5800781
		s0.5888672,0.8964844,0.5888672,1.5292969v4.2363281c0,0.4570313,0.1171875,0.6855469,0.3515625,0.6855469
		c0.0878906,0,0.1865234-0.0161133,0.2949219-0.0483398s0.2763672-0.0952148,0.5048828-0.1889648l0.1933594,0.6591797
		c-0.4921875,0.3398438-0.9990234,0.6328125-1.5205078,0.8789063s-0.890625,0.3691406-1.1074219,0.3691406
		S56.4524307,15.7212095,56.3030167,15.4721861z M56.0256729,11.4424009
		c-0.6679688,0.1113281-1.1542969,0.2211914-1.4589844,0.3295898s-0.5390625,0.2446289-0.703125,0.4086914
		c-0.1699219,0.1699219-0.296875,0.3413086-0.3818359,0.5141602s-0.1279297,0.3764648-0.1279297,0.6108398
		c0,0.3574219,0.0869141,0.6137695,0.2597656,0.769043s0.3583984,0.2329102,0.5576172,0.2329102
		c0.2460938,0,0.5146484-0.065918,0.8046875-0.1977539s0.6396484-0.3735352,1.0498047-0.7250977V11.4424009z"/>
	<path class="st0" d="M59.6457901,14.9404478c0.375-0.0761719,0.6621094-0.1625977,0.8613281-0.2592773
		s0.2988281-0.1889648,0.2988281-0.2768555V9.8867369V9.5175962c0-0.3164063-0.0224609-0.5419922-0.0664063-0.6767578
		s-0.1435547-0.234375-0.2988281-0.2988281s-0.4199219-0.1142578-0.7949219-0.1494141V7.7773619
		c1.0605469-0.1464844,1.9628906-0.3574219,2.7070313-0.6328125h0.5625v7.2597656
		c0,0.0820313,0.0966797,0.1743164,0.2900391,0.2768555s0.4863281,0.1889648,0.8789063,0.2592773v0.6416016h-4.4384766V14.9404478z
		 M60.9114151,5.5844908c-0.2285156-0.1669922-0.3427734-0.4086914-0.3427734-0.7250977
		c0-0.2578125,0.0644531-0.487793,0.1933594-0.6899414c0.1289063-0.2021487,0.3056641-0.358887,0.53125-0.4702151
		s0.4736328-0.1669922,0.7431641-0.1669922c0.3457031,0,0.6337891,0.0820313,0.8652344,0.2460938
		s0.3476563,0.4042971,0.3476563,0.7207034c0,0.3925781-0.1396484,0.7133789-0.4179688,0.9624023
		s-0.6308594,0.3735352-1.0585938,0.3735352C61.4270401,5.8349791,61.1399307,5.751483,60.9114151,5.5844908z"/>
	<path class="st0" d="M64.5129776,14.9404478c0.4746094-0.0820313,0.8007813-0.1655273,0.9794922-0.2504883
		s0.2685547-0.1801758,0.2685547-0.2856445V4.4550962c0-0.3574219-0.0283203-0.6093752-0.0839844-0.7558596
		s-0.1523438-0.2416992-0.2900391-0.2856445s-0.3994141-0.0893555-0.7861328-0.1362305V2.6621273
		c0.6386719-0.09375,1.171875-0.1904297,1.5996094-0.2900391s0.8583984-0.2373047,1.2919922-0.4130858l0.3769531,0.3603514
		V14.404315c0,0.0996094,0.0976563,0.1948242,0.2949219,0.2856445c0.1953125,0.0908203,0.5175781,0.1743164,0.9628906,0.2504883
		v0.6416016h-4.6142578V14.9404478z"/>
	<path class="st0" d="M74.1262589,16.2412281c-0.4863281,1.2539063-1.0595703,2.1796875-1.7177734,2.7773438
		c-0.6601563,0.5976563-1.3789063,0.8964844-2.1582031,0.8964844c-0.28125,0-0.5615234-0.0336914-0.8398438-0.1010742
		s-0.5058594-0.1479492-0.6855469-0.2416992c-0.1777344-0.09375-0.2675781-0.1787109-0.2675781-0.2548828
		c0-0.0703125,0.0820313-0.2197266,0.2460938-0.4482422s0.3496094-0.4570313,0.5585938-0.6855469
		c0.2070313-0.2285156,0.3701172-0.3779297,0.4873047-0.4482422c0.1875,0.1230469,0.3818359,0.215332,0.5849609,0.2768555
		c0.2011719,0.0615234,0.3964844,0.0922852,0.5839844,0.0922852c0.1816406,0,0.3427734-0.0263672,0.4833984-0.0791016
		c0.2402344-0.0820313,0.4814453-0.2578125,0.7255859-0.5273438c0.2421875-0.2695313,0.4609375-0.6386719,0.6542969-1.1074219
		l0.2548828-0.6064444l-2.9443359-7.1367188c-0.0644531-0.1582031-0.1699219-0.28125-0.3164063-0.3691406
		s-0.3662109-0.1640625-0.6591797-0.2285156V7.4082212h3.9814453v0.6416016
		c-0.328125,0.0410156-0.5537109,0.0864258-0.6767578,0.1362305s-0.1845703,0.121582-0.1845703,0.215332
		c0,0.0585938,0.0234375,0.140625,0.0703125,0.2460938l1.8105469,4.4121094l1.7226563-4.4121094
		c0.0410156-0.1113281,0.0615234-0.1933594,0.0615234-0.2460938c0-0.0820313-0.0527344-0.1494141-0.1582031-0.2021484
		s-0.3017578-0.1025391-0.5888672-0.1494141V7.4082212h2.8740234v0.6416016
		c-0.2460938,0.0585938-0.4277344,0.1113281-0.5449219,0.1582031S77.277626,8.310565,77.215126,8.3750181
		c-0.0605469,0.0644531-0.1123047,0.1552734-0.1533203,0.2724609L74.1262589,16.2412281z"/>
</g>
<g>
	<g>
		<path class="st1" d="M58.8459854,24.5586109c0,0.0297852,0.0429688,0.0644531,0.1308594,0.1044922
			c0.0878906,0.0395508,0.2089844,0.0742188,0.3642578,0.1040039v0.1469727h-1.5556641V24.767107
			c0.1552734-0.0317383,0.2822266-0.0673828,0.3818359-0.105957c0.0986328-0.0385742,0.1484375-0.0727539,0.1484375-0.1025391
			l-0.0302734-3.1992188l-1.4980469,3.5546875h-0.1669922l-1.5205078-3.5307617l-0.03125,3.175293
			c0,0.0297852,0.0439453,0.0644531,0.1318359,0.1044922c0.0878906,0.0395508,0.2089844,0.0742188,0.3642578,0.1040039v0.1469727
			h-1.3847656V24.767107c0.1503906-0.0297852,0.2705078-0.0639648,0.3603516-0.1025391s0.1357422-0.0742188,0.1357422-0.105957
			l0.0332031-3.6674805c-0.0791016-0.0454102-0.1630859-0.0795898-0.2509766-0.1025391s-0.1689453-0.0341797-0.2441406-0.0341797
			V20.607439h0.9775391c0.0322266,0,0.0566406,0.0068359,0.0751953,0.0205078s0.0361328,0.0375977,0.0527344,0.0717773
			c0.0175781,0.0341797,0.0478516,0.0991211,0.0908203,0.1948242l1.3603516,3.0830078l1.3056641-3.0830078
			c0.0410156-0.0957031,0.0722656-0.1621094,0.0917969-0.2001953c0.0214844-0.0371094,0.0390625-0.0615234,0.0546875-0.0712891
			c0.0166016-0.0107422,0.0400391-0.015625,0.0722656-0.015625h0.9775391v0.1469727
			c-0.0634766,0-0.1357422,0.0107422-0.2167969,0.0327148c-0.0810547,0.0214844-0.1630859,0.0517578-0.2451172,0.090332
			L58.8459854,24.5586109z"/>
		<path class="st1" d="M61.4797745,24.8559742c-0.0498047-0.1069336-0.0771484-0.2504883-0.0820313-0.4306641
			c-0.1933594,0.1958008-0.390625,0.3432617-0.5908203,0.4428711c-0.2001953,0.0986328-0.3798828,0.1484375-0.5361328,0.1484375
			c-0.1191406,0-0.2333984-0.0263672-0.34375-0.0786133s-0.2021484-0.1337891-0.2753906-0.2446289
			c-0.0732422-0.1103516-0.109375-0.2485352-0.109375-0.4150391c0-0.1616211,0.0273438-0.3007813,0.0820313-0.4169922
			s0.1298828-0.222168,0.2255859-0.3178711c0.0839844-0.0844727,0.1796875-0.1567383,0.2851563-0.2172852
			c0.1064453-0.0600586,0.2597656-0.1181641,0.4619141-0.1738281c0.2011719-0.0561523,0.46875-0.1079102,0.8007813-0.1557617
			v-0.4819336c0-0.1665039-0.0410156-0.2978516-0.1230469-0.3945313c-0.0820313-0.097168-0.2207031-0.1455078-0.4160156-0.1455078
			c-0.1035156,0-0.2011719,0.0195313-0.2958984,0.0581055s-0.1699219,0.0932617-0.2255859,0.1640625
			s-0.0791016,0.1513672-0.0703125,0.2426758c0.0019531,0.0249023-0.0292969,0.0527344-0.0957031,0.0839844
			c-0.0664063,0.0302734-0.1445313,0.0571289-0.234375,0.0800781s-0.1611328,0.0341797-0.2128906,0.0341797
			c-0.0185547,0-0.03125-0.0009766-0.0380859-0.003418l-0.0478516-0.1333008
			c0.0683594-0.1479492,0.1835938-0.2895508,0.3466797-0.4238281s0.3466797-0.2421875,0.5517578-0.3232422
			c0.2050781-0.0805664,0.4023438-0.1210938,0.5917969-0.1210938c0.2480469,0,0.4414063,0.0654297,0.578125,0.1962891
			c0.1367188,0.1313477,0.2050781,0.3139648,0.2050781,0.5488281v1.9277344c0,0.1777344,0.0449219,0.2666016,0.1367188,0.2666016
			c0.0742188,0,0.1865234-0.0307617,0.3339844-0.0922852l0.0517578,0.1538086
			c-0.1865234,0.1298828-0.3447266,0.2260742-0.4736328,0.2890625c-0.1289063,0.0625-0.2255859,0.09375-0.2919922,0.09375
			C61.5930557,25.0166187,61.5305557,24.9629078,61.4797745,24.8559742z M61.3977432,23.2529469
			c-0.2431641,0.0385742-0.4365234,0.078125-0.5791016,0.1181641c-0.1425781,0.0395508-0.25,0.0805664-0.3242188,0.1230469
			c-0.0742188,0.0419922-0.1386719,0.0913086-0.1933594,0.1484375c-0.1318359,0.1391602-0.1982422,0.3017578-0.1982422,0.4887695
			c0,0.1118164,0.0214844,0.199707,0.0634766,0.2651367c0.0419922,0.0644531,0.0908203,0.1103516,0.1464844,0.1367188
			c0.0556641,0.0258789,0.109375,0.0390625,0.1591797,0.0390625c0.2822266,0,0.5917969-0.1445313,0.9257813-0.434082V23.2529469z"/>
		<path class="st1" d="M63.6008682,23.9057789c-0.0957031,0.0795898-0.1669922,0.1508789-0.2158203,0.2133789
			c-0.046875,0.0629883-0.0712891,0.1044922-0.0712891,0.125c0,0.0615234,0.0625,0.1162109,0.1884766,0.1640625
			c0.125,0.0478516,0.3535156,0.0913086,0.6865234,0.1298828c0.4560547,0.050293,0.7792969,0.1469727,0.9707031,0.2905273
			s0.2871094,0.3085938,0.2871094,0.4956055c0,0.2392578-0.0849609,0.4584961-0.2568359,0.6586914
			c-0.1699219,0.1992188-0.3886719,0.3554688-0.65625,0.46875c-0.265625,0.1152344-0.5351563,0.171875-0.8066406,0.171875
			c-0.2294922,0-0.4599609-0.0332031-0.6894531-0.0996094c-0.2304688-0.0664063-0.421875-0.1679688-0.5742188-0.3066406
			c-0.1533203-0.140625-0.2294922-0.3125-0.2294922-0.5205078c0-0.0913086,0.0234375-0.1806641,0.0703125-0.2680664
			c0.046875-0.0878906,0.1367188-0.1865234,0.2714844-0.2958984s0.3251953-0.2299805,0.5712891-0.3623047
			c-0.2626953-0.0932617-0.3935547-0.2197266-0.3935547-0.3793945c0-0.050293,0.0351563-0.1191406,0.1064453-0.206543
			c0.0703125-0.0878906,0.1992188-0.1967773,0.3857422-0.3266602c-0.234375-0.0639648-0.421875-0.184082-0.5625-0.3608398
			c-0.1396484-0.1762695-0.2099609-0.3901367-0.2099609-0.640625c0-0.2163086,0.0625-0.4189453,0.1875-0.6064453
			c0.1259766-0.1884766,0.2900391-0.3378906,0.4941406-0.449707s0.4160156-0.1674805,0.6347656-0.1674805
			c0.1318359,0,0.2587891,0.0195313,0.3808594,0.0581055s0.2314453,0.0932617,0.3300781,0.1640625
			c0.2089844-0.0205078,0.3847656-0.0493164,0.5273438-0.0874023c0.1425781-0.0371094,0.28125-0.0825195,0.4160156-0.1347656
			l0.0683594,0.1025391c-0.0078125,0.0161133-0.0214844,0.0488281-0.0410156,0.0991211
			c-0.0214844,0.050293-0.0439453,0.0947266-0.0683594,0.1333008c-0.0253906,0.0385742-0.0537109,0.0751953-0.0859375,0.109375
			c-0.1845703,0.0317383-0.3632813,0.0512695-0.5371094,0.0581055c0.1259766,0.1801758,0.1884766,0.3759766,0.1884766,0.5878906
			c0,0.2231445-0.0654297,0.425293-0.1943359,0.6069336c-0.1308594,0.1806641-0.2998047,0.3222656-0.5097656,0.4238281
			c-0.2099609,0.1010742-0.4257813,0.1518555-0.6494141,0.1518555H63.6008682z M62.9973526,25.1533375
			c-0.1035156,0.0864258-0.1708984,0.1611328-0.203125,0.2236328c-0.0322266,0.0629883-0.0478516,0.125-0.0478516,0.1865234
			c0,0.1254883,0.0537109,0.2416992,0.1621094,0.3491211s0.2519531,0.1914063,0.4306641,0.2558594
			s0.3710938,0.0957031,0.5761719,0.0957031c0.2001953,0,0.3779297-0.0351563,0.5332031-0.1035156
			c0.1552734-0.0703125,0.2744141-0.1660156,0.3583984-0.2890625c0.0849609-0.1235352,0.1269531-0.2636719,0.1269531-0.4208984
			c0-0.0913086-0.0292969-0.1694336-0.0888672-0.2338867c-0.0595703-0.0654297-0.1650391-0.1220703-0.3164063-0.1708984
			c-0.1513672-0.0493164-0.3603516-0.0883789-0.6269531-0.1181641c-0.1591797-0.0161133-0.3076172-0.0385742-0.4443359-0.0683594
			C63.2541885,24.9687672,63.1008682,25.0669117,62.9973526,25.1533375z M63.2893448,22.0566578
			c-0.0927734,0.0546875-0.1728516,0.1337891-0.2382813,0.2373047c-0.0664063,0.1040039-0.0996094,0.2265625-0.0996094,0.3676758
			c0,0.1665039,0.0341797,0.315918,0.1025391,0.449707c0.0683594,0.1328125,0.1728516,0.2392578,0.3125,0.3173828
			c0.140625,0.0791016,0.3144531,0.1181641,0.5214844,0.1181641c0.09375,0,0.1865234-0.0268555,0.2802734-0.0800781
			c0.09375-0.0537109,0.1699219-0.1323242,0.2304688-0.2363281c0.0605469-0.1035156,0.0908203-0.2260742,0.0908203-0.3671875
			c0-0.1640625-0.0361328-0.3139648-0.1074219-0.4492188c-0.0722656-0.1357422-0.1787109-0.2431641-0.3193359-0.3212891
			c-0.1416016-0.0791016-0.3115234-0.1181641-0.5097656-0.1181641
			C63.4709854,21.9746265,63.3830948,22.0019703,63.2893448,22.0566578z"/>
		<path class="st1" d="M67.4065323,24.8559742c-0.0498047-0.1069336-0.0771484-0.2504883-0.0820313-0.4306641
			c-0.1933594,0.1958008-0.390625,0.3432617-0.5908203,0.4428711c-0.2001953,0.0986328-0.3798828,0.1484375-0.5361328,0.1484375
			c-0.1191406,0-0.2333984-0.0263672-0.34375-0.0786133s-0.2021484-0.1337891-0.2753906-0.2446289
			c-0.0732422-0.1103516-0.109375-0.2485352-0.109375-0.4150391c0-0.1616211,0.0273438-0.3007813,0.0820313-0.4169922
			s0.1298828-0.222168,0.2255859-0.3178711c0.0839844-0.0844727,0.1796875-0.1567383,0.2851563-0.2172852
			c0.1064453-0.0600586,0.2597656-0.1181641,0.4619141-0.1738281c0.2011719-0.0561523,0.46875-0.1079102,0.8007813-0.1557617
			v-0.4819336c0-0.1665039-0.0410156-0.2978516-0.1230469-0.3945313c-0.0820313-0.097168-0.2207031-0.1455078-0.4160156-0.1455078
			c-0.1035156,0-0.2011719,0.0195313-0.2958984,0.0581055s-0.1699219,0.0932617-0.2255859,0.1640625
			s-0.0791016,0.1513672-0.0703125,0.2426758c0.0019531,0.0249023-0.0292969,0.0527344-0.0957031,0.0839844
			c-0.0664063,0.0302734-0.1445313,0.0571289-0.234375,0.0800781s-0.1611328,0.0341797-0.2128906,0.0341797
			c-0.0185547,0-0.03125-0.0009766-0.0380859-0.003418l-0.0478516-0.1333008
			c0.0683594-0.1479492,0.1835938-0.2895508,0.3466797-0.4238281s0.3466797-0.2421875,0.5517578-0.3232422
			c0.2050781-0.0805664,0.4023438-0.1210938,0.5917969-0.1210938c0.2480469,0,0.4414063,0.0654297,0.578125,0.1962891
			c0.1367188,0.1313477,0.2050781,0.3139648,0.2050781,0.5488281v1.9277344c0,0.1777344,0.0449219,0.2666016,0.1367188,0.2666016
			c0.0742188,0,0.1865234-0.0307617,0.3339844-0.0922852l0.0517578,0.1538086
			c-0.1865234,0.1298828-0.3447266,0.2260742-0.4736328,0.2890625c-0.1289063,0.0625-0.2255859,0.09375-0.2919922,0.09375
			C67.5198135,25.0166187,67.4573135,24.9629078,67.4065323,24.8559742z M67.324501,23.2529469
			c-0.2431641,0.0385742-0.4365234,0.078125-0.5791016,0.1181641c-0.1425781,0.0395508-0.25,0.0805664-0.3242188,0.1230469
			c-0.0742188,0.0419922-0.1386719,0.0913086-0.1933594,0.1484375c-0.1318359,0.1391602-0.1982422,0.3017578-0.1982422,0.4887695
			c0,0.1118164,0.0214844,0.199707,0.0634766,0.2651367c0.0419922,0.0644531,0.0908203,0.1103516,0.1464844,0.1367188
			c0.0556641,0.0258789,0.109375,0.0390625,0.1591797,0.0390625c0.2822266,0,0.5917969-0.1445313,0.9257813-0.434082V23.2529469z"/>
		<path class="st1" d="M68.4065323,24.9140797l-0.0888672-0.1538086l1.8964844-2.7172852h-1.1816406
			c-0.0869141,0-0.1640625,0.0375977-0.2324219,0.112793s-0.125,0.2084961-0.1679688,0.3999023l-0.1679688-0.0410156
			l0.0625-0.8339844c0.0908203,0.0249023,0.1728516,0.0405273,0.2460938,0.0458984
			c0.0722656,0.0058594,0.1914063,0.0087891,0.3554688,0.0087891h1.6816406l0.0742188,0.1469727l-1.9033203,2.7241211h1.4423828
			c0.0566406,0,0.1103516-0.0444336,0.1591797-0.1333008s0.0986328-0.2358398,0.1484375-0.440918l0.1611328,0.0341797
			c0,0.1572266-0.0039063,0.3188477-0.0107422,0.4853516s-0.0166016,0.2871094-0.0302734,0.3623047H68.4065323z"/>
		<path class="st1" d="M71.0412979,24.767107c0.1484375-0.0297852,0.2646484-0.0639648,0.3505859-0.1025391
			c0.0849609-0.0385742,0.1279297-0.0742188,0.1279297-0.105957v-1.9345703c0-0.1801758-0.0068359-0.3032227-0.0205078-0.3691406
			s-0.0527344-0.1137695-0.1162109-0.1435547s-0.1777344-0.0522461-0.3417969-0.0683594v-0.1367188
			c0.1484375-0.0273438,0.3027344-0.065918,0.4648438-0.1162109s0.2988281-0.1025391,0.4101563-0.1572266h0.1162109v2.9257813
			c0,0.0317383,0.0419922,0.0673828,0.125,0.105957s0.2011719,0.0727539,0.3535156,0.1025391v0.1469727h-1.4697266V24.767107z
			 M71.4514542,20.7441578c0-0.0844727,0.0175781-0.1621094,0.0527344-0.234375
			c0.0351563-0.0712891,0.0830078-0.1279297,0.1435547-0.1689453s0.1259766-0.0615234,0.1972656-0.0615234
			c0.1933594,0,0.2900391,0.1083984,0.2900391,0.324707c0,0.1298828-0.0380859,0.2402344-0.1142578,0.331543
			s-0.1708984,0.1367188-0.2822266,0.1367188C71.5471573,21.0722828,71.4514542,20.9629078,71.4514542,20.7441578z"/>
		<path class="st1" d="M74.6389542,24.767107c0.1660156-0.043457,0.2880859-0.081543,0.3642578-0.1147461
			c0.0761719-0.0327148,0.1142578-0.0639648,0.1142578-0.09375v-1.8081055c0-0.1845703-0.0146484-0.324707-0.0429688-0.4204102
			s-0.0732422-0.1616211-0.1347656-0.1982422s-0.1484375-0.0546875-0.2597656-0.0546875
			c-0.1572266,0-0.3369141,0.078125-0.5400391,0.234375c-0.203125,0.1557617-0.40625,0.3979492-0.6113281,0.7260742v1.5209961
			c0,0.0341797,0.0419922,0.0693359,0.1279297,0.105957c0.0849609,0.0366211,0.2021484,0.0708008,0.3505859,0.1025391v0.1469727
			h-1.4707031V24.767107c0.171875-0.0454102,0.2939453-0.0830078,0.3681641-0.112793s0.1103516-0.0615234,0.1103516-0.0957031
			v-2.074707c0-0.1298828-0.0078125-0.2197266-0.0253906-0.2700195c-0.0166016-0.050293-0.0566406-0.0864258-0.1171875-0.109375
			c-0.0625-0.0229492-0.1738281-0.043457-0.3359375-0.0615234v-0.1367188
			c0.2646484-0.0410156,0.5380859-0.1323242,0.8203125-0.2734375l0.1201172,0.1196289l0.0380859,0.8510742
			c0.1269531-0.1938477,0.2744141-0.3647461,0.4404297-0.5126953s0.3310547-0.2617188,0.4941406-0.3398438
			c0.1630859-0.0791016,0.3046875-0.1181641,0.4248047-0.1181641c0.1367188,0,0.2626953,0.0273438,0.3769531,0.0820313
			c0.1132813,0.0546875,0.2050781,0.1386719,0.2744141,0.2509766c0.0693359,0.1132813,0.1044922,0.2514648,0.1044922,0.4155273
			v2.1772461c0,0.0317383,0.0351563,0.0634766,0.1054688,0.09375c0.0712891,0.03125,0.1953125,0.0693359,0.3730469,0.1147461
			v0.1469727h-1.4697266V24.767107z"/>
		<path class="st1" d="M76.6467667,23.239275c0.0019531,0.2392578,0.0449219,0.4604492,0.1279297,0.6630859
			s0.2011719,0.3652344,0.3535156,0.4873047c0.1533203,0.121582,0.3300781,0.1826172,0.5302734,0.1826172
			c0.109375,0,0.2070313-0.0102539,0.2939453-0.0307617s0.1875-0.0644531,0.3027344-0.1313477
			c0.1152344-0.0673828,0.2539063-0.168457,0.4179688-0.3027344c0.0410156,0.0229492,0.0839844,0.0693359,0.1269531,0.1401367
			c-0.2001953,0.2211914-0.3720703,0.3857422-0.5146484,0.4936523c-0.1425781,0.1083984-0.2744141,0.1816406-0.3974609,0.21875
			c-0.1230469,0.0380859-0.2695313,0.0566406-0.4375,0.0566406c-0.2353516,0-0.453125-0.065918-0.6552734-0.1982422
			c-0.2011719-0.1323242-0.3623047-0.3183594-0.4814453-0.5585938c-0.1201172-0.2407227-0.1796875-0.5170898-0.1796875-0.8291016
			c0-0.3100586,0.0673828-0.6015625,0.2011719-0.875c0.1347656-0.2734375,0.3193359-0.4912109,0.5546875-0.652832
			c0.1064453-0.0751953,0.2314453-0.1391602,0.3740234-0.1914063s0.2714844-0.0786133,0.3876953-0.0786133
			c0.2783203,0,0.5048828,0.0708008,0.6796875,0.2119141c0.1757813,0.1411133,0.3007813,0.3164063,0.3769531,0.5244141
			c0.0742188,0.2089844,0.1123047,0.4223633,0.1123047,0.6411133c-0.0732422,0.0820313-0.1982422,0.1582031-0.3759766,0.2290039
			H76.6467667z M78.1301651,22.9316578c0.0498047,0,0.0839844-0.0087891,0.1025391-0.0253906
			c0.0185547-0.0175781,0.0273438-0.0498047,0.0273438-0.0976563c0-0.1069336-0.0195313-0.2226563-0.0576172-0.3466797
			c-0.0390625-0.1245117-0.1113281-0.2338867-0.2158203-0.328125c-0.1044922-0.0947266-0.2480469-0.1420898-0.4306641-0.1420898
			c-0.1552734,0-0.2949219,0.0395508-0.4189453,0.1176758c-0.1240234,0.0791016-0.2265625,0.1894531-0.3076172,0.3320313
			c-0.0810547,0.1420898-0.1347656,0.3056641-0.1621094,0.4902344H78.1301651z"/>
	</g>
</g>
<g>
	<path class="st0" d="M79.0696182,8.8813658c-0.1269531-0.0791016-0.2275391-0.1855469-0.3007813-0.3212891
		c-0.0732422-0.1347656-0.1103516-0.2822266-0.1103516-0.4414063c0-0.1611328,0.0371094-0.3085938,0.1103516-0.4433594
		c0.0732422-0.1337891,0.1738281-0.2402344,0.3007813-0.3193359c0.1279297-0.0791016,0.2714844-0.1181641,0.4287109-0.1181641
		c0.1601563,0,0.3037109,0.0390625,0.4335938,0.1181641c0.1289063,0.0791016,0.2304688,0.1855469,0.3037109,0.3193359
		c0.0732422,0.1347656,0.1103516,0.2822266,0.1103516,0.4433594c0,0.1591797-0.0371094,0.3066406-0.1103516,0.4414063
		c-0.0732422,0.1357422-0.1748047,0.2421875-0.3037109,0.3212891c-0.1298828,0.0791016-0.2734375,0.1181641-0.4335938,0.1181641
		C79.3411026,8.9995298,79.1975479,8.9604673,79.0696182,8.8813658z M79.159462,7.5122252
		c-0.1015625,0.0625-0.1796875,0.1474609-0.2373047,0.2548828c-0.0566406,0.1074219-0.0849609,0.2246094-0.0849609,0.3515625
		c0,0.1289063,0.0283203,0.2460938,0.0849609,0.3525391c0.0576172,0.1064453,0.1357422,0.1914063,0.2373047,0.2539063
		c0.1005859,0.0625,0.2138672,0.0947266,0.3388672,0.0947266c0.1269531,0,0.2412109-0.0322266,0.3427734-0.0947266
		c0.1025391-0.0625,0.1816406-0.1474609,0.2382813-0.2539063c0.0576172-0.1064453,0.0859375-0.2236328,0.0859375-0.3525391
		c0-0.1269531-0.0283203-0.2441406-0.0859375-0.3515625c-0.0566406-0.1074219-0.1357422-0.1923828-0.2382813-0.2548828
		c-0.1015625-0.0625-0.2158203-0.0947266-0.3427734-0.0947266C79.3733292,7.4174986,79.2600479,7.4497252,79.159462,7.5122252z
		 M79.1155167,8.5503111c0.0644531-0.0136719,0.0976563-0.0292969,0.0976563-0.0429688V7.7163267
		c-0.0429688,0.0058594-0.0732422,0.0097656-0.0927734,0.0117188l-0.0097656-0.0830078
		c0.1054688-0.0244141,0.2255859-0.0361328,0.3583984-0.0361328c0.1337891,0,0.2333984,0.0214844,0.2978516,0.0654297
		c0.0654297,0.0439453,0.0976563,0.1005859,0.0976563,0.1708984c0,0.0751953-0.0205078,0.1376953-0.0605469,0.1875
		c-0.0410156,0.0507813-0.1005859,0.0869141-0.1787109,0.1074219l0.2294922,0.3320313
		c0.0117188,0.0185547,0.0253906,0.0292969,0.0400391,0.0351563c0.015625,0.0039063,0.0410156,0.0058594,0.0751953,0.0039063
		l0.0068359,0.0566406c-0.0371094,0.0117188-0.0791016,0.0224609-0.1269531,0.0332031
		c-0.046875,0.0107422-0.0791016,0.015625-0.0947266,0.015625c-0.0146484,0-0.0283203-0.0039063-0.0410156-0.0107422
		c-0.0117188-0.0078125-0.0214844-0.0166016-0.0273438-0.0263672l-0.2177734-0.4199219H79.449501
		c-0.0107422,0-0.03125-0.0009766-0.0605469-0.0039063v0.3515625c0,0.0175781,0.0302734,0.0322266,0.0898438,0.0429688v0.0566406
		h-0.3632813V8.5503111z M79.3889542,8.0551939c0.0107422,0.0019531,0.0283203,0.0029297,0.0507813,0.0029297
		c0.0800781,0,0.1376953-0.0166016,0.171875-0.0478516c0.0351563-0.0322266,0.0527344-0.0791016,0.0527344-0.1435547
		c0-0.0498047-0.0185547-0.0908203-0.0576172-0.1210938c-0.0380859-0.03125-0.0927734-0.046875-0.1640625-0.046875
		c-0.0244141,0-0.0429688,0.0009766-0.0537109,0.0019531V8.0551939z"/>
</g>
</svg>
